<?xml version="1.0" encoding="utf-8"?>
<!-- Generator: Adobe Illustrator 26.1.0, SVG Export Plug-In . SVG Version: 6.00 Build 0)  -->
<svg version="1.1" id="Capa_1" xmlns="http://www.w3.org/2000/svg" xmlns:xlink="http://www.w3.org/1999/xlink" x="0px" y="0px"
	 viewBox="0 0 450 450" style="enable-background:new 0 0 450 450;" xml:space="preserve">
<style type="text/css">
	.st0{fill:#FFFFFF;}
	.st1{fill:#242A96;}
	.st2{fill:#4490FD;}
	.st3{fill:#232996;}
	.st4{fill:#FF7402;}
	.st5{fill:#4491FF;}
	.st6{fill:#FEB7A7;}
	.st7{fill:#86DCFB;}
	.st8{fill:#2B329B;}
	.st9{fill:#2F359B;}
	.st10{fill:#FAB5A7;}
	.st11{fill:#323EA1;}
	.st12{fill:#F5907F;}
	.st13{fill:#F5F4F3;}
	.st14{fill:#FEFEFF;}
</style>
<path class="st0" d="M0,0c149.99,0,299.97,0,450,0c0,149.97,0,299.95,0,450c-149.97,0-299.99,0-450,0C0,300.04,0,150.03,0,0z
	 M231.01,176.21c0.16-0.29,0.35-0.58,0.21-0.92c-0.14-0.33-0.45-0.46-0.78-0.55c-0.8-0.23-1.58-0.15-2.33,0.15
	c-0.86,0.35-1.44,0.94-1.29,1.97c-0.27-0.03-0.53-0.05-0.8-0.08c-0.36-1.62,0.39-2.43,1.62-2.97c0.63-0.28,1.26-0.2,1.92-0.04
	c1.15,0.29,1.43,0.02,1.11-1.13c-0.17-0.64-0.3-1.27-0.35-1.92c1.2-1.04,1.54-2.41,1.45-3.92c-0.09-1.5-0.7-2.13-2.18-2.31
	c-0.65-0.08-1.31-0.1-1.97-0.15c-1.21-2.36-3.16-3.69-5.75-4.1c-2.61-0.41-5.02,0.24-7.21,1.64c-2.77,1.78-4.33,4.26-4.15,7.64
	c0.03,0.65-0.06,1.1-0.7,1.48c-1.21,0.71-1.93,1.86-2.06,3.25c-0.12,1.32-0.16,2.67-0.01,3.97c0.31,2.72,2.76,4.44,5.43,3.95
	c0.39-0.07,0.78-0.16,1.17-0.25c0.18,0.84,0.79,1.41,1.26,2.08c-0.06,0.26-0.12,0.52-0.17,0.78c-0.45,0.35-0.52,0.88-0.71,1.37
	c-0.59,1.53-0.88,3.17-1.68,4.62c-3.55,0.24-6.99,0.99-10.28,2.33c-3.64,1.48-7.17,3.22-10.58,5.18c-2.37,1.37-4.59,2.96-6.66,4.75
	c-0.45,0.39-0.94,0.74-1.42,1.1c-0.16-1.39-0.33-2.77-0.48-4.16c-0.17-1.58-0.28-3.18-0.51-4.76c-0.37-2.5-0.79-4.98-1.25-7.46
	c-0.09-0.51-0.02-0.88,0.23-1.3c1.34-2.24,2.34-4.62,3.16-7.1c0.72-2.2,0.89-4.43,0.72-6.7c-0.08-1.12-0.33-2.24-0.87-3.26
	c-0.39-0.73-1.26-0.85-1.85-0.29c-0.19,0.18-0.35,0.4-0.48,0.63c-0.65,1.11-1.09,2.28-1.12,3.58c-0.01,0.46,0.03,0.94-0.26,1.35
	c-0.07,0.1-0.21,0.18-0.32,0.19c-0.07,0-0.19-0.16-0.2-0.26c-0.02-0.33-0.07-0.68,0-1c0.5-2.11,0.25-4.24,0.32-6.37
	c0.03-1.02-0.23-1.99-0.53-2.93c-0.34-1.1-1.46-1.28-2.15-0.38c-0.27,0.36-0.38,0.84-0.57,1.26c-0.21,0-0.41-0.01-0.62-0.01
	c-0.04-0.66-0.09-1.33-0.11-1.99c-0.03-0.81-0.24-1.58-0.64-2.28c-0.17-0.3-0.51-0.49-0.85-0.27c-0.74,0.46-1.38,1.04-1.69,1.9
	c-0.27,0.75-0.44,1.52-0.43,2.34c0.02,1.43-0.02,2.86-0.04,4.29c-0.33-0.63-0.38-1.28-0.55-1.9c-0.18-0.66-0.12-1.32-0.21-1.98
	c-0.14-0.98-0.29-1.97-0.52-2.93c-0.19-0.78-0.97-0.96-1.55-0.43c-0.45,0.42-0.79,0.92-0.95,1.5c-0.26,0.96-0.58,1.9-0.56,2.92
	c0.03,1.66,0.02,3.33,0,4.99c0,0.36,0.17,0.77-0.17,1.09c-0.4-0.07-0.44-0.45-0.61-0.71c-0.4-0.61-0.76-1.25-1.19-1.84
	c-0.27-0.38-0.62-0.75-1.15-0.63c-0.54,0.12-0.62,0.64-0.78,1.07c-0.07,0.18-0.1,0.39-0.1,0.59c0.01,2.8-0.2,5.62,0.1,8.38
	c0.39,3.62,1.08,7.22,2.35,10.67c0.31,0.83,0.44,1.67,0.38,2.54c-0.17,2.45-0.17,4.93-0.56,7.34c-0.4,2.44,0,4.93-0.64,7.33
	c0.09,4.79-0.56,9.56-0.45,14.35c0.09,3.99,0.03,7.99,0.03,11.99c0,0.8-0.04,1.6-0.05,2.4c-0.33,0-0.67-0.01-1,0
	c-0.91,0.04-1,0.09-1.18,1c-0.78,3.89-0.94,7.8-0.39,11.73c0.63,4.5,2.36,8.58,5,12.28c1.01,1.41,2.02,2.82,2.93,4.28
	c1.98,3.17,2.98,6.65,3.14,10.4c0.19,4.69-0.88,9.12-2.58,13.43c-1.09,2.76-0.12,4.32,2.78,4.33c6.93,0.02,13.86-0.01,20.78-0.02
	c0.4,2.94,0.77,5.88,0.94,8.84c-0.11,1.15-0.17,2.29,0.01,3.44c-0.01,0.87-0.02,1.73-0.02,2.6c0,14.19,0,28.37,0,42.56
	c0,0.53,0.01,1.07-0.01,1.6c-0.03,0.8-0.16,0.95-0.9,0.99c-0.33,0.02-0.67,0.01-1,0.02c-4.39,0.16-8.79,0.22-13.16,0.67
	c-1.72,0.17-3.44,0.36-5.13,0.78c-0.44,0.11-0.87,0.31-1.29,0.5c-0.22,0.1-0.2,0.57,0.03,0.68c0.36,0.17,0.72,0.34,1.1,0.44
	c1.55,0.41,3.14,0.6,4.73,0.77c2.98,0.32,5.98,0.45,8.97,0.56c2.79,0.1,5.59,0.18,8.38,0.27c-0.16,0.28-0.32,0.57-0.47,0.86
	c-0.64,1.27-0.69,2.49,0.3,3.63c-0.25,1.07-0.24,1.08-1.02,1.11c-0.47,0.02-0.93,0.01-1.4,0.01c-10.92,0-21.85,0-32.77,0
	c-0.67,0-1.33-0.03-2-0.05c-0.02-0.86-0.06-1.73-0.06-2.59c0-19.3,0-38.6,0-57.9c0-0.67,0-1.33-0.03-2
	c-0.02-0.47-0.3-0.71-0.76-0.74c-0.33-0.02-0.67-0.02-1-0.02c-2.79,0-5.59,0-8.38,0.01c0.01-0.6,0.01-1.2,0.05-1.8
	c0.19-3.59,0.43-7.17,0.58-10.76c0.34-8.31,0.63-16.62,0.94-24.94c0.02-0.67,0.02-1.33,0.27-1.97c0.8-0.36,1.14-1.1,1.45-1.83
	c1.06-2.44,1.97-4.94,2.58-7.53c0.77-3.3,1.36-6.62,1.69-10c0.35-3.64,0.72-7.27,0.66-10.93c-0.02-1.46-0.27-2.91-0.29-4.37
	c-0.04-2.94-0.48-5.83-1-8.7c-0.91-5.05-2.4-9.94-4.31-14.71c-1.49-3.71-3.24-7.29-5.45-10.64c-0.99-1.5-2.1-2.91-3.43-4.14
	c-0.65-0.59-1.32-1.12-2.24-1.21c-0.94-0.59-1.08-0.53-1.23,0.56c-0.01,0.06-0.01,0.12-0.01,0.19c-0.95,1.07-1.08,2.42-1.14,3.73
	c-0.25,5.46-0.02,10.91,0.44,16.35c0.21,2.51,0.46,5.02,0.78,7.52c0.19,1.52,0.2,3.06,0.47,4.55c0.34,1.91,0.31,3.83,0.63,5.74
	c0.45,2.75,0.57,5.54,0.94,8.31c0.45,3.42,1.01,6.82,1.5,10.24c0.51,3.55,1.16,7.08,2.08,10.54c0.46,1.73,1.03,3.44,1.67,5.11
	c0.48,1.25,1.17,2.41,2.65,2.73c-0.02,2.13,0.01,4.26-0.07,6.39c-0.21,5.66-0.45,11.32-0.72,16.97c-0.23,4.86-0.52,9.71-0.79,14.57
	c-3.75,0-7.51,0-11.26,0c-0.65-4.87-1.29-9.75-1.95-14.62c-0.72-5.33-1.47-10.66-2.2-16c-0.39-2.83-0.8-5.66-1.2-8.48
	c0.2-0.17,0.45-0.3,0.58-0.51c0.66-1.08,1.21-2.22,1.65-3.41c1.5-4.04,1.98-8.27,2.27-12.51c0.31-4.45,0.17-8.92-0.4-13.35
	c-0.45-3.49-1.04-6.96-1.92-10.37c-1.83-7.15-4.72-13.85-8.69-20.07c-2.19-3.42-4.64-6.64-7.3-9.72c-3.24-3.76-6.84-7.08-11.04-9.72
	c-1.87-1.17-3.81-2.24-6.16-1.92c-1.08-0.27-1.17-0.2-1.1,0.86c0,0.06,0.02,0.12,0.04,0.18c-0.75,0.49-0.91,1.26-0.95,2.07
	c-0.13,2.67,0.04,5.31,0.61,7.93c0.92,4.22,2.06,8.39,3.4,12.49c1.98,6.07,3.84,12.17,5.98,18.19c1.76,4.95,3.4,9.94,5.25,14.86
	c2.29,6.11,4.81,12.11,7.84,17.9c1.11,2.13,2.43,4.12,3.87,6.04c0.61,0.81,1.38,1.46,2.26,1.93c0.81,0.44,1.68,0.87,2.64,0.33
	c0.72,4.79,1.47,9.58,2.15,14.38c0.66,4.6,1.27,9.21,1.87,13.82c0.42,3.23,0.77,6.46,1.15,9.69c-3.28,0-6.55,0-9.83,0
	c-1.93-5.82-3.87-11.63-5.8-17.45c0.07-0.46,0.16-0.91,0.2-1.37c0.16-1.81-0.22-3.59-0.49-5.34c-0.51-3.34-1.27-6.64-2.27-9.88
	c-1.81-5.85-3.99-11.54-7.08-16.87c-3.11-5.38-6.69-10.39-11.21-14.68c-0.67-0.64-1.44-1.17-2.18-1.73
	c-0.33-0.25-0.73-0.32-1.14-0.22l0.01,0.01c0-0.28-0.16-0.38-0.41-0.4c-0.16-0.11-0.31-0.26-0.49-0.33c-0.57-0.2-0.9,0.08-0.78,0.67
	c0.05,0.25,0.19,0.49,0.29,0.73c-0.22,0.54-0.02,1.03,0.11,1.56c0.68,2.72,1.68,5.33,2.81,7.88c3.1,7,6.23,13.98,9.46,20.92
	c1.85,3.98,3.85,7.9,5.89,11.8c1.36,2.59,2.79,5.15,4.64,7.45c0.48,0.59,0.98,1.07,1.71,1.29c0.1,0.17,0.24,0.33,0.3,0.51
	c1.6,4.76,3.2,9.53,4.78,14.3c0.12,0.37,0.16,0.78,0.23,1.17c-0.8,0-1.6-0.01-2.4,0c-2.72,0.01-2.47-0.25-2.47,2.47
	c0,19.39,0,38.78,0,58.17c0,0.87-0.03,1.73-0.04,2.6c-2.33,0.02-4.66,0.03-7,0.06c-0.46,0.01-0.93,0.04-1.38,0.13
	c-0.14,0.03-0.32,0.29-0.33,0.44c0,0.15,0.16,0.4,0.31,0.46c0.77,0.3,1.58,0.14,2.37,0.14c75.53,0.01,151.06,0.01,226.59,0.01
	c0.53,0,1.07,0.01,1.6-0.01c0.69-0.02,1.09-0.31,0.97-0.68c-0.15-0.49-0.57-0.49-0.97-0.49c-1.53-0.03-3.06-0.05-4.6-0.07
	c0.02-1,0.05-2,0.05-3c0-33.1,0-66.2,0-99.3c0-0.53-0.01-1.07,0-1.6c0.03-1.57,0.05-1.6,1.53-1.62c0.67-0.01,1.33,0,2,0
	c0.8,0,1.6,0.03,2.4-0.03c0.99-0.08,1.91-0.98,2.03-1.91c0.14-1.06-0.37-1.99-1.37-2.4c-0.36-0.15-0.78-0.15-1.17-0.22
	c0.03-0.53,0.08-1.06,0.07-1.59c-0.01-0.73-0.19-0.89-0.98-0.93c-0.33-0.02-0.67-0.01-1-0.01c-2.33,0-4.66,0-6.99,0
	c-0.53,0-1.07,0-1.6-0.02c-0.61-0.03-0.76-0.28-0.6-0.93c0.1-0.39,0.23-0.76,0.35-1.14c2.05-6.47,4.1-12.94,6.16-19.41
	c3.15-9.89,6.33-19.77,9.42-29.68c0.34-1.07,0.9-1.55,1.88-1.73c0.45-0.08,0.92-0.1,1.38-0.12c0.4-0.02,0.8,0.02,1.2-0.01
	c0.29-0.02,0.5-0.23,0.48-0.52c-0.01-0.17-0.18-0.48-0.27-0.48c-1.22,0-1.51-0.73-1.53-1.78c0-0.3-0.2-0.67-0.43-0.88
	c-0.66-0.6-0.65-1.24-0.31-1.98c0.07-0.15-0.01-0.39-0.04-0.58c-0.03-0.18-0.56-0.34-0.69-0.21c-0.14,0.13-0.33,0.27-0.37,0.44
	c-0.21,0.85-0.71,1.3-1.58,1.54c-0.9,0.25-1.32,1.04-1.56,1.92c-0.26,0.95-0.29,0.95-1.16,0.9c-3.85-0.26-7.71-0.53-11.56-0.8
	c-8.5-0.6-17.01-1.21-25.51-1.81c-3.92-0.28-7.84-0.61-11.76-0.79c-3.92-0.18-7.8-0.76-11.72-0.84c-0.13,0-0.26-0.05-0.39-0.08
	c0.1-0.61,0.45-1.1,0.75-1.62c0.65-1.16,1.27-2.34,1.92-3.5c0.51-0.9,0.68-1.87,0.6-2.89c-0.04-0.51,0.16-1.13-0.43-1.44
	c-0.67-0.34-1.12,0.13-1.56,0.55c-0.14,0.14-0.27,0.3-0.42,0.43c-0.42,0.39-0.52,1.12-1.24,1.19c-0.67-0.67,0.21-1.17,0.2-1.77
	c0-0.19,0.15-0.37,0.18-0.57c0.09-0.79,0.16-1.59-0.18-2.36c-0.35-0.79-0.9-0.94-1.57-0.37c-0.92,0.79-1.67,1.72-2.26,2.77
	c-0.22,0.01-0.44,0.01-0.66,0.02c0-0.47,0.01-0.93-0.01-1.4c-0.01-0.49-0.14-0.95-0.62-1.17c-0.49-0.22-0.9,0.09-1.28,0.35
	c-0.27,0.19-0.52,0.42-0.72,0.69c-0.58,0.81-1.17,1.62-1.69,2.47c-0.69,1.13-1.32,2.31-1.99,3.45c-0.05,0.09-0.23,0.15-0.34,0.14
	c-0.08-0.01-0.19-0.18-0.18-0.27c0-0.2,0.04-0.4,0.12-0.58c0.37-0.9,0.32-1.84,0.19-2.76c-0.18-1.27-0.92-1.58-1.95-0.88
	c-0.38,0.26-0.75,0.56-1.05,0.91c-1.82,2.16-3.29,4.51-3.78,7.36c-2.41,0.04-4.69-0.2-5.9-0.64c0.33-0.28,0.62-0.54,0.93-0.77
	c1.99-1.44,4-2.87,5.99-4.33c0.45-0.33,1.27-0.56,0.98-1.29c-0.33-0.83-1.04-0.25-1.56-0.12c-1.55,0.38-3.08,0.83-4.63,1.22
	c-0.62,0.16-0.83-0.08-0.73-0.73c0.18-1.18,0.61-2.32,0.58-3.54c-0.07-3.15-2.62-5.69-5.76-5.72c-2.69-0.03-4.99,1.72-5.75,4.39
	c-0.23,0.81-0.23,1.7-0.69,2.42c-0.56,0.11-0.93-0.22-1.33-0.43c-1.3-0.67-2.59-1.36-3.88-2.05c-0.33-0.18-0.66-0.19-0.89,0.1
	c-0.17,0.21-0.16,0.5,0,0.75c0.21,0.34,0.43,0.67,0.65,1c1.11,1.66,2.21,3.32,3.32,4.99c0.26,0.39,0.53,0.77,0.75,1.18
	c0.34,0.64,0.1,1.36-0.54,1.67c-0.36,0.17-0.74,0.3-1.11,0.44c-2.05,0.78-4.1,1.56-6.15,2.35c-0.5,0.19-1,0.38-1.48,0.59
	c-0.25,0.11-0.43,0.32-0.4,0.63c0.03,0.3,0.24,0.46,0.5,0.56c0.31,0.12,0.63,0.21,0.94,0.32c1.7,0.58,3.38,1.21,5.1,1.72
	c1.01,0.29,1.46,0.71,1.6,1.87c0.42,3.34,3.23,5.45,6.48,5.1c0.88-0.1,1.73-0.35,2.41-0.88c0.72-0.57,1.42-0.55,2.23-0.34
	c1.35,0.34,2.72,0.62,4.09,0.92c-0.17,0.73-0.6,1.3-1.05,1.88c-1.17,1.51-2.32,3.03-3.47,4.55c-0.64,0.05-1.29,0.1-1.93,0.16
	c-0.38,0.03-0.55,0.26-0.59,0.63c-0.1,1.03,0.12,2.08-0.16,3.1c-0.89,1.29-1.76,2.59-2.68,3.85c-0.46,0.62-0.71,1.41-1.43,1.83
	c-0.2-0.49-0.41-0.98-0.59-1.48c-3.22-8.96-8.92-15.91-17.03-20.88c-2.49-1.53-5.11-2.83-7.99-3.49c-0.02-0.26-0.07-0.51-0.3-0.67
	c-0.04-1.45-0.08-2.91-0.12-4.36c0.14-0.3,0.32-0.58,0.63-0.74c1.07-0.57,1.91-1.44,2.66-2.35c1.17-1.44,2.08-3.04,2.16-4.97
	c0.18-0.5,0.16-1.02,0.12-1.54C231.29,177.23,231.16,176.73,231.01,176.21z M288.38,105.95c-10.87,0-21.73,0-32.6,0
	c-0.6,0-1.2-0.03-1.8,0.02c-1.42,0.11-2.33,0.93-2.55,2.36c-0.08,0.52-0.07,1.06-0.07,1.59c0,13.53,0,27.07,0,40.6
	c0,0.47,0,0.93,0.02,1.4c0.02,0.48,0.31,0.72,0.77,0.73c0.73,0.02,1.47,0.01,2.2,0.02c1.34,0.03,1.39,0.08,1.64,1.45
	c0.15,0.85,0.29,1.71,0.45,2.56c0.25,1.38,0.44,2.77,0.79,4.12c0.49,1.9,2.41,2.63,4.1,1.62c0.46-0.27,0.88-0.61,1.31-0.92
	c3.55-2.59,7.12-5.17,10.65-7.8c0.96-0.71,1.94-1.13,3.14-1.04c0.46,0.04,0.93,0.01,1.4,0.01c14.27,0,28.53,0,42.8,0
	c0.67,0,1.34,0.03,2-0.06c1.34-0.19,2.14-1.01,2.35-2.35c0.07-0.46,0.08-0.93,0.08-1.39c0-13.07,0-26.13,0-39.2
	c0-0.53-0.02-1.07-0.12-1.59c-0.25-1.22-1.11-1.98-2.35-2.1c-0.6-0.06-1.2-0.03-1.8-0.03C309.98,105.95,299.18,105.95,288.38,105.95
	z M200.24,85.55c-11.8,0-23.59,0.05-35.39-0.04c-2.99-0.02-3.88,1.55-3.88,3.84c0.04,14,0.02,27.99,0.02,41.99
	c0,0.53,0.02,1.07,0.12,1.59c0.25,1.28,1.17,2.12,2.46,2.26c0.59,0.07,1.2,0.04,1.8,0.04c15.59,0,31.19,0.02,46.78-0.03
	c1.63,0,2.94,0.42,4.23,1.39c3.89,2.92,7.83,5.77,11.78,8.62c2.44,1.76,4.55,0.95,5.13-1.97c0.44-2.22,0.8-4.46,1.22-6.68
	c0.24-1.27,0.29-1.3,1.52-1.33c0.4-0.01,0.8,0,1.2,0c2.27-0.01,2.1,0.22,2.1-2.2c0-14.46,0-28.93,0-43.39c0-0.53,0.02-1.07-0.04-1.6
	c-0.16-1.36-1.1-2.31-2.47-2.46c-0.59-0.06-1.2-0.04-1.8-0.04C223.43,85.54,211.83,85.54,200.24,85.55z M177.74,139.52
	c-0.03-1.19-0.98-2.14-2.15-2.16c-1.22-0.02-2.31,1.08-2.27,2.28c0.04,1.24,1.13,2.21,2.39,2.13
	C176.91,141.7,177.77,140.75,177.74,139.52z M187.75,149.23c-0.03-1.29-1.05-2.2-2.37-2.13c-1.16,0.07-2.11,1.11-2.07,2.26
	c0.04,1.14,1.06,2.14,2.21,2.16C186.76,151.56,187.78,150.51,187.75,149.23z M185.58,141.77c1.22-0.01,2.13-0.9,2.16-2.12
	c0.04-1.27-0.98-2.32-2.21-2.3c-1.15,0.02-2.15,1-2.21,2.15C183.27,140.72,184.32,141.78,185.58,141.77z M175.46,147.1
	c-1.18,0.04-2.14,1.02-2.15,2.19c-0.01,1.21,1.11,2.29,2.32,2.24c1.24-0.05,2.19-1.14,2.11-2.42
	C177.66,147.92,176.69,147.07,175.46,147.1z M353.32,296.55c1.19-0.01,2.16-0.93,2.22-2.11c0.06-1.19-1.04-2.32-2.24-2.32
	c-1.24,0.01-2.23,1.07-2.18,2.35C351.15,295.68,352.08,296.55,353.32,296.55z M353.21,272.78c-1.19,0.03-2.1,0.98-2.11,2.19
	c-0.01,1.27,1.04,2.3,2.29,2.23c1.16-0.06,2.14-1.07,2.15-2.21C355.55,273.76,354.48,272.74,353.21,272.78z M343.44,296.55
	c1.22,0.02,2.19-0.86,2.25-2.05c0.07-1.28-0.89-2.35-2.14-2.39c-1.22-0.04-2.3,1.04-2.28,2.28
	C341.29,295.57,342.26,296.53,343.44,296.55z M193.16,149.23c-0.03,1.27,0.98,2.33,2.22,2.31c1.14-0.02,2.15-1,2.2-2.16
	c0.05-1.24-0.98-2.29-2.25-2.27C194.11,147.11,193.19,148.02,193.16,149.23z M165.86,147.1c-1.22-0.04-2.21,0.82-2.3,2
	c-0.09,1.28,0.84,2.36,2.1,2.43c1.22,0.07,2.32-0.99,2.33-2.23C167.99,148.14,167.04,147.14,165.86,147.1z M195.26,141.78
	c1.27,0.05,2.33-0.95,2.33-2.2c0-1.15-0.97-2.17-2.13-2.23c-1.24-0.07-2.3,0.96-2.3,2.23C193.15,140.79,194.06,141.73,195.26,141.78
	z M165.51,141.77c1.27,0.12,2.38-0.81,2.47-2.05c0.08-1.14-0.83-2.21-1.98-2.35c-1.22-0.15-2.37,0.81-2.44,2.07
	C163.49,140.65,164.33,141.66,165.51,141.77z M343.47,282.43c-1.26,0.02-2.27,1.11-2.19,2.34c0.08,1.18,1.07,2.09,2.25,2.08
	c1.27-0.01,2.23-1.05,2.17-2.33C345.63,283.32,344.66,282.41,343.47,282.43z M353.21,286.85c1.26,0.04,2.34-0.98,2.33-2.21
	c0-1.15-0.97-2.15-2.15-2.21c-1.27-0.06-2.3,0.94-2.3,2.21C351.1,285.85,352.02,286.81,353.21,286.85z M343.5,272.79
	c-1.27,0-2.29,1.05-2.23,2.29c0.06,1.16,1.05,2.12,2.21,2.13c1.25,0.02,2.24-1.03,2.2-2.31
	C345.65,273.68,344.72,272.79,343.5,272.79z M106.7,363.62c-0.74,0.07-1.35-0.11-1.91,0.17c-0.15,0.07-0.31,0.3-0.31,0.45
	c0,0.16,0.17,0.42,0.31,0.45c1.17,0.29,2.35,0.19,3.52,0.06c0.23-0.03,0.45-0.3,0.36-0.6c-0.05-0.17-0.22-0.4-0.36-0.42
	C107.73,363.66,107.14,363.65,106.7,363.62z M102.44,364.88c0.35-0.04,0.69-0.04,0.99-0.13c0.15-0.05,0.31-0.27,0.35-0.44
	c0.05-0.28-0.13-0.53-0.39-0.58c-0.71-0.15-1.44-0.15-2.15,0.02c-0.15,0.04-0.31,0.27-0.35,0.43c-0.06,0.29,0.13,0.52,0.39,0.58
	C101.67,364.85,102.07,364.85,102.44,364.88z"/>
<path class="st1" d="M196.81,302.19c-0.17-2.96-0.54-5.9-0.94-8.84c-0.11-1.57-0.23-3.15-0.34-4.72c0.58-0.15,0.68-0.56,0.59-1.08
	c-0.32-1.9-0.64-3.8-0.97-5.69c-0.08-0.44-0.07-0.97-0.69-1.06c-0.4-0.06-0.59,0.39-0.45,1.28c0.32,2.03,0.67,4.06,1.01,6.09
	c-3.78-0.02-7.56-0.1-11.34-0.04c-1.2,0.02-1.78-0.46-2.25-1.47c-1.15-2.48-2.01-5.04-2.38-7.76c-0.84-6.17,0.6-11.7,4.57-16.54
	c0.47,0,0.95,0.07,1.39-0.03c2.36-0.5,4.77-0.42,7.14-0.6c3.51-0.26,7.02-0.67,10.55-0.58c0.13,0,0.27,0.01,0.4-0.02
	c1.72-0.36,3.42-0.18,5.15,0c2.2,0.22,4.34,0.63,6.42,1.33c2.27,0.76,4.55,1.46,6.94,1.76c2.59,0.33,5.18,0.33,7.76,0.03
	c1.26-0.15,2.5-0.31,3.77-0.31c0.16,0.53,0.39,0.99,1.05,1.03c0.66,0.04,1.33,0.12,1.99,0.16c2.26,0.12,4.52,0.22,6.78,0.36
	c0.62,0.04,1.19-0.08,1.75-0.3c1.18-0.47,2.4-0.79,3.65-0.98c4.6-0.7,8.56,0.55,11.79,3.94c1.02,1.07,1.85,2.27,2.51,3.59
	c1.88,3.74,2.51,7.7,1.93,11.83c-0.18,1.27-0.24,2.51-0.09,3.77c0.62,5.09,1.23,10.17,1.83,15.26c0.79,6.67,1.56,13.35,2.34,20.03
	c0.03,0.26,0.05,0.53,0.06,0.8c0.01,0.4-0.19,0.6-0.59,0.65c-0.2,0.02-0.39,0.08-0.58,0.13c-0.81-0.08-1.58,0.15-2.37,0.27
	c-0.93,0.02-1.86,0-2.79,0.08c-4.77,0.39-9.55,0.75-14.31,1.24c-2.31,0.24-4.66,0.2-6.94,0.72c-0.13-0.02-0.26-0.03-0.4-0.05
	c-0.96-0.13-1.95,0.46-2.9-0.11c-0.31-0.98-0.15-1.98-0.14-2.97c0.07-8.99,0.16-17.98,0.23-26.97c0.01-1.2-0.05-2.39-0.07-3.59
	c0.02-0.92,0.11-1.85,0.04-2.76c-0.12-1.41,0.2-2.59,1.31-3.53c0.39-0.33,0.82-0.7,0.93-1.25c0.03-0.15-0.1-0.36-0.21-0.5
	c-0.06-0.08-0.25-0.12-0.35-0.08c-0.18,0.06-0.37,0.15-0.5,0.29c-0.79,0.88-1.68,1.68-2.28,2.71c-0.78,0.03-1.57,0.08-2.35,0.08
	c-2.29,0-4.58-0.02-6.87-0.03c-0.5-0.27-0.46-0.77-0.51-1.22c-0.49-4.64-1-9.27-1.44-13.92c-0.09-0.99-0.4-1.76-1.07-2.49
	c-5.44-5.88-13.43-7.59-21.08-4.62c-0.24,0.09-0.48,0.24-0.65,0.42c-0.1,0.11-0.1,0.38-0.04,0.54c0.06,0.18,0.24,0.34,0.47,0.28
	c0.32-0.08,0.64-0.18,0.95-0.29c1.38-0.51,2.81-0.86,4.26-1.04c5.97-0.73,11.03,1.11,15.18,5.46c0.48,0.5,0.74,1.05,0.81,1.76
	c0.21,2.39,0.49,4.77,0.73,7.16c0.26,2.45,0.53,4.9,0.75,7.36c0.05,0.6,0.3,1,0.79,1.28c0.07,1.52,0.12,3.04,0.5,4.53
	c0.02,0.66,0.01,1.33,0.08,1.99c0.46,4.49,0.95,8.98,1.41,13.48c0.52,5.02,1.06,10.04,1.53,15.07c0.3,3.21,0.59,2.48-2.33,3.02
	c-0.14,0.01-0.29,0.01-0.43,0.02c-2.05,0.16-4.1,0.3-6.14,0.48c-3.7,0.34-7.4,0.7-11.1,1.07c-2.9,0.29-5.81,0.6-8.71,0.9
	c-0.58-0.11-1.15,0-1.72,0.11c-0.05-0.19-0.13-0.38-0.16-0.58c-0.45-4.17-0.87-8.34-1.33-12.51c-0.39-3.51-0.81-7.01-1.21-10.52
	C197.21,304.37,197.15,303.26,196.81,302.19z"/>
<path class="st2" d="M184.1,204.16c0.47-0.37,0.96-0.71,1.42-1.1c2.07-1.79,4.29-3.39,6.66-4.75c3.41-1.96,6.94-3.7,10.58-5.18
	c3.29-1.34,6.73-2.09,10.28-2.33c-0.22,1.04-0.44,2.08-0.66,3.12c-0.14,0.66,0.08,1.15,0.63,1.55c1.57,1.15,3.2,2.16,5.02,2.85
	c1.46,0.55,2.98,0.71,4.52,0.53c1.47-0.17,2.44-0.96,2.87-2.41c0.17-0.59,0.21-1.18,0.2-1.78c0-0.8-0.01-1.6-0.02-2.4
	c2.88,0.66,5.5,1.97,7.99,3.49c8.11,4.97,13.8,11.92,17.03,20.88c0.18,0.5,0.39,0.98,0.58,1.47c-0.16,0.36-0.28,0.74-0.48,1.07
	c-3.14,4.99-6.06,10.1-8.72,15.36c-0.21,0.41-0.39,0.84-0.78,1.13c-0.79,0.04-1.59,0.03-2.37,0.13c-0.55,0.07-0.75,0.49-0.66,1.03
	c-0.31,1.95-0.71,3.89-0.89,5.84c-0.19,1.96-0.6,3.91-0.43,5.9c-0.64,0.23-1.3,0.17-1.96,0.17c-1.84,0.01-3.69,0-5.53,0
	c-0.46,0-0.93-0.03-1.38,0.03c-1.52,0.19-2.4,1.58-1.9,3.04c0.17,0.49,0.5,0.92,0.76,1.38c-0.66,0.67-1.51,0.38-2.27,0.38
	c-12.34,0.02-24.69,0.01-37.03,0.01c-0.53,0-1.06-0.01-1.59-0.02c-0.35-0.01-0.64-0.15-0.89-0.38c0.51-3.34,1.03-6.67,1.52-10.01
	c0.33-2.22,0.85-4.42,0.97-6.67c0.41-0.95,0.49-1.95,0.45-2.96c0.13-0.58,0.63-1.02,0.63-1.77c-1.07-0.45-2.15-0.96-3.26-1.37
	c-0.76-0.28-1-0.76-0.95-1.52c0.1-1.39,0.14-2.79,0.21-4.19c0.16-3.19,0.21-6.4,0-9.58c-0.23-3.39-0.09-6.79-0.57-10.16
	C184.04,204.7,184.09,204.42,184.1,204.16z"/>
<path class="st3" d="M226.87,253.19c-0.26-0.46-0.59-0.89-0.76-1.38c-0.5-1.46,0.38-2.85,1.9-3.04c0.45-0.06,0.92-0.03,1.38-0.03
	c1.84,0,3.69,0,5.53,0c0.66,0,1.32,0.06,1.96-0.17c0.26,0.03,0.53,0.09,0.79,0.09c5.58,0.01,11.16,0.02,16.74,0.02
	c0.07,0,0.13,0,0.2,0c0.72-0.03,0.88-0.21,0.91-1c0-0.13-0.01-0.27-0.01-0.4c-0.01-10.9-0.01-21.79-0.03-32.69
	c0-0.72,0.12-1.46-0.15-2.17c0.28-1.02,0.07-2.07,0.16-3.1c0.03-0.37,0.21-0.6,0.59-0.63c0.64-0.06,1.29-0.1,1.93-0.16
	c0.39,0.05,0.78,0.13,1.17,0.13c5.62,0.01,11.24,0.01,16.87,0c0.39,0,0.78-0.08,1.17-0.13c0.79,0.04,1.59,0.11,2.38,0.11
	c14.58,0.01,29.16,0,43.74,0.01c0.6,0,1.2,0,1.8,0.02c0.45,0.01,0.76,0.22,0.77,0.71c0.02,0.53,0.02,1.06,0.02,1.6
	c0,13.51,0,27.03,0,40.54c0,0.66-0.05,1.33-0.07,1.99c-4.26-0.01-8.52-0.03-12.78-0.03c-27.89,0-55.77,0-83.66,0.01
	C228.55,253.52,227.7,253.44,226.87,253.19z M294.45,231.05c0.13-2.19-1.96-3.84-3.79-3.8c-2.1,0.04-3.8,1.72-3.8,3.82
	c0.01,2.11,1.69,3.77,3.82,3.77C292.85,234.83,294.45,233.22,294.45,231.05z"/>
<path class="st4" d="M288.38,105.95c10.8,0,21.6,0,32.4,0c0.6,0,1.2-0.02,1.8,0.03c1.23,0.12,2.09,0.88,2.35,2.1
	c0.11,0.52,0.12,1.06,0.12,1.59c0.01,13.07,0.01,26.13,0,39.2c0,0.47-0.01,0.94-0.08,1.39c-0.21,1.34-1.02,2.16-2.35,2.35
	c-0.66,0.09-1.33,0.06-2,0.06c-14.27,0-28.53,0-42.8,0c-0.47,0-0.94,0.03-1.4-0.01c-1.2-0.09-2.18,0.33-3.14,1.04
	c-3.53,2.63-7.09,5.2-10.65,7.8c-0.43,0.31-0.85,0.65-1.31,0.92c-1.7,1.01-3.62,0.28-4.1-1.62c-0.35-1.35-0.54-2.74-0.79-4.12
	c-0.16-0.85-0.29-1.71-0.45-2.56c-0.25-1.37-0.3-1.42-1.64-1.45c-0.73-0.01-1.47,0-2.2-0.02c-0.46-0.01-0.75-0.26-0.77-0.73
	c-0.02-0.47-0.02-0.93-0.02-1.4c0-13.53,0-27.07,0-40.6c0-0.53-0.02-1.07,0.07-1.59c0.23-1.42,1.13-2.25,2.55-2.36
	c0.6-0.04,1.2-0.02,1.8-0.02C266.65,105.95,277.52,105.95,288.38,105.95z M294.62,129.32c-0.65-0.09-1.24-0.13-1.81-0.26
	c-0.45-0.1-0.77-0.66-0.7-1.09c0.07-0.43,0.33-0.74,0.75-0.83c0.45-0.1,0.92-0.1,1.38-0.19c0.16-0.03,0.39-0.2,0.42-0.35
	c0.16-0.72,0.26-1.5-0.04-2.16c-0.25-0.57-0.96-0.27-1.46-0.36c-0.07-0.01-0.13-0.02-0.2-0.04c-0.49-0.12-0.85-0.5-0.88-0.95
	c-0.03-0.5,0.37-0.98,0.96-1.08c0.33-0.06,0.66-0.05,0.99-0.07c0.49-0.03,0.7-0.32,0.7-0.78c0-1.13,0.06-2.27-0.03-3.4
	c-0.29-3.59-3.13-6.2-6.63-6.15c-3.48,0.05-6.23,2.78-6.41,6.38c-0.04,0.73-0.03,1.47,0,2.2c0.02,0.52-0.18,1.1,0.2,1.54
	c0.34,0.4,0.88,0.15,1.32,0.27c0.06,0.02,0.13,0.03,0.19,0.05c0.46,0.15,0.75,0.59,0.7,1.08c-0.05,0.44-0.28,0.76-0.71,0.87
	c-0.32,0.08-0.66,0.09-0.99,0.11c-0.49,0.03-0.72,0.31-0.71,0.77c0.01,0.6-0.08,1.24,0.12,1.77c0.22,0.58,0.94,0.3,1.43,0.44
	c0.06,0.02,0.13,0.02,0.19,0.05c0.41,0.16,0.65,0.45,0.66,0.9c0.01,0.43-0.15,0.82-0.56,0.97c-0.36,0.14-0.77,0.16-1.17,0.2
	c-0.5,0.04-0.69,0.33-0.69,0.78c0,1-0.05,2,0.01,3c0.21,3.33,2.77,5.98,5.95,6.22c3.39,0.25,6.24-1.91,6.94-5.31
	C294.89,132.39,294.83,130.87,294.62,129.32z M276.05,132.36c0.27,5.58,4.1,10.26,9.29,11.62c0.26,0.07,0.53,0.09,0.78,0.16
	c1.17,0.28,1.19,0.28,1.2,1.43c0.02,1.4,0,2.8,0.01,4.2c0,0.46-0.02,0.93,0.21,1.36c0.22,0.4,0.69,0.63,1.18,0.54
	c0.43-0.08,0.75-0.32,0.82-0.76c0.07-0.46,0.08-0.93,0.08-1.39c0.01-1.47,0.02-2.93,0.01-4.4c0-0.55,0.25-0.87,0.78-0.99
	c0.39-0.09,0.79-0.15,1.17-0.27c4.97-1.57,8.18-5.81,8.75-10.66c0.11-0.97-0.32-1.56-1.06-1.6c-0.68-0.04-1.09,0.35-1.21,1.29
	c-0.13,1.07-0.4,2.09-0.82,3.08c-1.98,4.63-6.99,7.07-11.64,5.69c-3.94-1.17-6.76-4.58-7.2-8.71c-0.05-0.46-0.08-0.93-0.19-1.38
	c-0.12-0.45-0.64-0.75-1.09-0.7c-0.45,0.04-0.91,0.42-1,0.85C276.07,131.96,276.07,132.23,276.05,132.36z"/>
<path class="st5" d="M120.83,363.6c0.01-0.87,0.04-1.73,0.04-2.6c0-19.39,0-38.78,0-58.17c0-2.72-0.25-2.46,2.47-2.47
	c0.8,0,1.6,0,2.4,0c0.48,0,0.95,0,1.43,0c3.28,0,6.55,0,9.83,0.01c0.45,0,0.91,0,1.36-0.01c3.75,0,7.51,0,11.26,0
	c0.44,0,0.87,0.01,1.31,0.01c2.79,0,5.59,0,8.38,0c0.33,0,0.67,0,1,0.02c0.46,0.02,0.74,0.27,0.76,0.74c0.03,0.66,0.03,1.33,0.03,2
	c0,19.3,0,38.6,0,57.9c0,0.86,0.04,1.73,0.06,2.59c-0.26,0.01-0.53,0.04-0.8,0.04c-12.72,0-25.43,0-38.15,0
	C121.76,363.65,121.29,363.61,120.83,363.6z"/>
<path class="st4" d="M200.24,85.54c11.6,0,23.19,0,34.79,0c0.6,0,1.2-0.03,1.8,0.04c1.37,0.15,2.32,1.1,2.47,2.46
	c0.06,0.53,0.04,1.06,0.04,1.6c0,14.46,0,28.93,0,43.39c0,2.42,0.18,2.18-2.1,2.2c-0.4,0-0.8-0.01-1.2,0
	c-1.23,0.02-1.28,0.06-1.52,1.33c-0.42,2.23-0.78,4.46-1.22,6.68c-0.58,2.92-2.68,3.73-5.13,1.97c-3.95-2.84-7.89-5.7-11.78-8.62
	c-1.29-0.97-2.61-1.39-4.23-1.39c-15.59,0.05-31.19,0.03-46.78,0.03c-0.6,0-1.2,0.03-1.8-0.04c-1.29-0.14-2.2-0.99-2.46-2.26
	c-0.1-0.52-0.12-1.06-0.12-1.59c-0.01-14,0.02-27.99-0.02-41.99c-0.01-2.29,0.89-3.86,3.88-3.84
	C176.64,85.6,188.44,85.55,200.24,85.54z M197.05,131.52c2.25,0.53,4.52,0.4,6.75,0c12.14-2.15,20.24-14.09,16.74-26.71
	c-2.81-10.13-13.34-17.54-25.32-14.72c-11.03,2.59-18.18,13.54-15.71,25.04c1.02,4.73,3.41,8.62,7.08,11.76
	c0.38,0.32,0.95,0.51,1.01,1.13c-0.08,0.09-0.2,0.28-0.25,0.26c-0.43-0.15-0.84-0.39-1.28-0.51c-1.26-0.34-2.55,0.57-2.73,1.89
	c-0.15,1.13,0.72,2.25,1.85,2.41c1.37,0.19,2.51-0.77,2.54-2.12c0.01-0.55-0.2-1.02-0.4-1.51c-0.1-0.24,0.09-0.34,0.24-0.44
	c0.54-0.15,0.85,0.3,1.23,0.52c1.38,0.8,2.73,1.64,4.31,2c1.25,1.77,1.82,1.94,3.75,1.09C196.94,131.58,196.99,131.55,197.05,131.52
	z M177.74,129.91c0-1.18-0.93-2.15-2.1-2.21c-1.2-0.06-2.31,1.02-2.31,2.23c0.01,1.16,0.97,2.15,2.13,2.18
	C176.74,132.15,177.74,131.18,177.74,129.91z M165.73,132.11c1.18,0.01,2.17-0.9,2.24-2.06c0.07-1.22-0.96-2.33-2.17-2.36
	c-1.24-0.02-2.23,1.01-2.21,2.29C163.61,131.19,164.52,132.1,165.73,132.11z"/>
<path class="st6" d="M184.1,204.16c-0.01,0.27-0.06,0.54-0.02,0.8c0.48,3.37,0.35,6.78,0.57,10.16c0.21,3.19,0.16,6.39,0,9.58
	c-0.07,1.4-0.11,2.79-0.21,4.19c-0.05,0.77,0.19,1.24,0.95,1.52c1.11,0.41,2.19,0.91,3.26,1.37c0,0.75-0.5,1.19-0.63,1.77
	c-0.78,0.82-1.64,1.6-1.61,2.88c-0.6,0.24-0.9,0.75-1.22,1.27c-0.98,1.59-1.96,3.16-2.95,4.74c-0.24,0.39-0.39,0.93-0.85,1.06
	c-0.81,0.23-1.34,0.86-2.02,1.25c-1.6,0.91-3.31,1.42-5.16,1.21c-4.06-0.47-7.27-3.98-7.49-8.1c-0.03-0.65,0.09-1.34-0.34-1.93
	c0.02-0.8,0.05-1.6,0.05-2.4c0-4,0.06-7.99-0.03-11.99c-0.11-4.8,0.54-9.56,0.45-14.35c0.64-2.4,0.24-4.89,0.64-7.33
	c0.4-2.41,0.39-4.89,0.56-7.34c0.06-0.88-0.07-1.71-0.38-2.54c-1.27-3.45-1.95-7.05-2.35-10.67c-0.3-2.76-0.09-5.59-0.1-8.38
	c0-0.2,0.03-0.4,0.1-0.59c0.15-0.43,0.24-0.95,0.78-1.07c0.54-0.12,0.88,0.25,1.15,0.63c0.42,0.59,0.79,1.23,1.19,1.84
	c0.17,0.26,0.21,0.64,0.61,0.71c0.35-0.32,0.17-0.73,0.17-1.09c0.02-1.66,0.03-3.33,0-4.99c-0.02-1.02,0.29-1.97,0.56-2.92
	c0.16-0.58,0.5-1.08,0.95-1.5c0.58-0.53,1.36-0.36,1.55,0.43c0.23,0.96,0.39,1.95,0.52,2.93c0.09,0.66,0.03,1.32,0.21,1.98
	c0.17,0.62,0.23,1.28,0.55,1.9c0.02-1.43,0.06-2.86,0.04-4.29c-0.01-0.82,0.15-1.59,0.43-2.34c0.31-0.85,0.95-1.43,1.69-1.9
	c0.34-0.21,0.68-0.03,0.85,0.27c0.4,0.7,0.61,1.47,0.64,2.28c0.02,0.66,0.07,1.33,0.11,1.99c-0.03,0.66-0.09,1.32-0.09,1.98
	c-0.01,1.39,0.01,2.78,0.02,4.17c0,0.06,0.05,0.12,0.08,0.18c0,0.01,0.08-0.03,0.13-0.05c0.26-2.08,0.7-4.15,0.47-6.27
	c0.18-0.43,0.29-0.91,0.57-1.26c0.69-0.9,1.81-0.72,2.15,0.38c0.29,0.94,0.56,1.91,0.53,2.93c-0.07,2.12,0.18,4.26-0.32,6.37
	c-0.08,0.32-0.03,0.66,0,1c0.01,0.1,0.13,0.26,0.2,0.26c0.11,0,0.25-0.09,0.32-0.19c0.29-0.4,0.25-0.89,0.26-1.35
	c0.03-1.3,0.47-2.47,1.12-3.58c0.13-0.23,0.29-0.45,0.48-0.63c0.59-0.56,1.46-0.43,1.85,0.29c0.54,1.01,0.79,2.13,0.87,3.26
	c0.17,2.27,0,4.5-0.72,6.7c-0.81,2.48-1.82,4.86-3.16,7.1c-0.25,0.43-0.32,0.8-0.23,1.3c0.46,2.48,0.88,4.97,1.25,7.46
	c0.23,1.58,0.34,3.17,0.51,4.76C183.77,201.39,183.94,202.77,184.1,204.16z M175.56,181.53c0.06,0.74-0.09,1.29,0.21,1.76
	c0.09,0.14,0.32,0.27,0.48,0.27c0.16,0,0.44-0.15,0.46-0.28c0.09-0.45,0.14-0.91,0.13-1.36c-0.03-0.75,0.18-1.42,0.48-2.1
	c0.55-1.21,1.45-2.01,2.64-2.56c0.63-0.29,0.91-0.77,0.71-1c-0.36-0.42-0.84-0.29-1.29-0.21c-0.25,0.05-0.49,0.19-0.71,0.32
	C176.6,177.56,175.62,179.38,175.56,181.53z M168.53,173.99c0.14,0.59,0.26,1.23,0.45,1.85c0.1,0.33,0.41,0.54,0.77,0.45
	c0.33-0.08,0.6-0.35,0.59-0.7c-0.02-0.72-0.23-1.4-0.62-2.01c-0.15-0.24-0.42-0.29-0.69-0.2
	C168.75,173.47,168.63,173.7,168.53,173.99z M174.07,174.03c-0.04-0.4-0.05-0.8-0.14-1.18c-0.07-0.26-0.33-0.43-0.61-0.36
	c-0.17,0.04-0.41,0.19-0.44,0.32c-0.17,0.78-0.17,1.57,0,2.34c0.06,0.27,0.32,0.43,0.6,0.36c0.17-0.04,0.4-0.19,0.44-0.33
	C174.02,174.82,174.02,174.42,174.07,174.03z M177.68,174.67c-0.04-0.29-0.05-0.69-0.15-1.06c-0.04-0.14-0.27-0.28-0.44-0.32
	c-0.28-0.07-0.54,0.09-0.6,0.37c-0.15,0.71-0.19,1.43,0.04,2.13c0.09,0.26,0.3,0.45,0.58,0.45c0.29,0,0.47-0.19,0.5-0.49
	C177.64,175.42,177.66,175.09,177.68,174.67z"/>
<path class="st7" d="M226.87,253.19c0.83,0.25,1.69,0.33,2.56,0.33c27.89-0.01,55.77-0.01,83.66-0.01c4.26,0,8.52,0.02,12.78,0.03
	c0.81,0.02,1.63,0.03,2.44,0.05c0.66-0.02,1.33-0.06,1.99-0.06c4.53-0.01,9.05-0.01,13.58-0.01c0.39,0.07,0.81,0.07,1.17,0.22
	c1.01,0.41,1.51,1.34,1.37,2.4c-0.12,0.93-1.04,1.83-2.03,1.91c-0.79,0.06-1.6,0.02-2.4,0.03c-0.67,0-1.33-0.01-2,0
	c-1.48,0.03-1.51,0.06-1.53,1.62c-0.01,0.53,0,1.07,0,1.6c0,33.1,0,66.2,0,99.3c0,1-0.03,2-0.05,3c-0.65,0-1.3,0-1.95,0
	c-0.02-0.93-0.05-1.86-0.05-2.8c0-33.31,0-66.62,0-99.93c0-0.67,0-1.33-0.02-2c-0.02-0.46-0.26-0.76-0.74-0.77
	c-0.67-0.03-1.33-0.03-2-0.03c-31.64,0-63.28,0-94.92,0c-0.73,0-1.46-0.01-2.2-0.02c-16.63,0-33.26,0-49.88,0.01
	c-0.86,0-1.73,0.05-2.59,0.07c-0.93-0.01-1.87,0.03-2.8-0.06c-1.21-0.11-2.05-1.13-2.04-2.32c0.01-1.1,0.78-2.04,1.92-2.21
	c0.65-0.1,1.33-0.07,1.99-0.09c0.66-0.02,1.34,0.1,1.95-0.27c0.25,0.23,0.55,0.37,0.89,0.38c0.53,0.01,1.06,0.02,1.59,0.02
	c12.34,0,24.69,0.01,37.03-0.01C225.36,253.57,226.21,253.86,226.87,253.19z"/>
<path class="st2" d="M198.35,362.54c-0.98-1.14-0.94-2.36-0.3-3.63c0.15-0.29,0.31-0.57,0.47-0.86c1.64-1.11,2.66-2.64,3.09-4.57
	c0.5-1.11,1-2.22,1.5-3.34c0.04-0.16,0.08-0.33,0.13-0.49l-0.01,0.03c0.5-0.11,0.72-0.56,1.06-0.86c1.74-1.57,3.7-2.24,6.07-1.74
	c1.45,0.31,2.8,0.85,4.15,1.39c1.48,0.6,2.92,1.29,4.48,1.67c2.63,0.64,4.73-0.08,6.33-2.22c0.85-1.13,1.43-2.39,1.91-3.72
	c0.9-2.52,1.35-5.14,1.69-7.79c0.52,0.33,0.83,0.84,1.19,1.31c0.49,0.62,0.95,1.28,1.54,1.81c1.81,1.62,3.96,2.53,6.36,1.93
	c1.48-0.37,2.95-0.63,4.45-0.81c0.52,0.05,1.05,0.11,1.57,0.16c4.02,0.44,7.69,1.77,10.93,4.23c-0.3,2.71-0.67,5.41-0.88,8.13
	c-0.2,2.59-0.52,5.16-0.83,7.73c-0.13,1.06-0.2,1.11-1.22,1.15c-0.53,0.02-1.07,0.01-1.6,0.01c-16.33,0-32.67,0-49,0
	c-0.53,0-1.07,0.02-1.6,0C199.28,362.02,198.81,362.27,198.35,362.54z"/>
<path class="st7" d="M102,179.68c2.35-0.32,4.29,0.75,6.16,1.92c4.2,2.64,7.8,5.96,11.04,9.72c2.66,3.08,5.12,6.3,7.3,9.72
	c3.97,6.22,6.85,12.91,8.69,20.07c0.88,3.42,1.47,6.89,1.92,10.37c0.57,4.43,0.71,8.91,0.4,13.35c-0.29,4.23-0.77,8.47-2.27,12.51
	c-0.44,1.19-0.99,2.33-1.65,3.41c-0.13,0.21-0.38,0.34-0.58,0.51c-0.06-0.19-0.14-0.37-0.17-0.57c-0.84-5.39-1.86-10.74-3.06-16.06
	c-2.08-9.23-4.89-18.23-8.33-27.03c-3.35-8.56-7.27-16.85-11.69-24.9C107.32,188.26,104.64,183.98,102,179.68z"/>
<path class="st7" d="M131.83,262.47c-0.96,0.54-1.83,0.11-2.64-0.33c-0.88-0.47-1.65-1.12-2.26-1.93c-1.45-1.91-2.76-3.9-3.87-6.04
	c-3.02-5.79-5.54-11.79-7.84-17.9c-1.85-4.92-3.49-9.91-5.25-14.86c-2.14-6.02-4-12.12-5.98-18.19c-1.34-4.1-2.47-8.27-3.4-12.49
	c-0.57-2.62-0.75-5.26-0.61-7.93c0.04-0.82,0.2-1.58,0.95-2.07c0.74,0.61,1.12,1.48,1.61,2.27c6.11,9.65,11.36,19.75,15.77,30.29
	c2.99,7.13,5.59,14.4,7.72,21.85C128.6,244.1,130.41,253.24,131.83,262.47z"/>
<path class="st4" d="M185.08,253.18c-0.61,0.37-1.29,0.24-1.95,0.27c-0.67,0.02-1.34-0.01-1.99,0.09c-1.14,0.18-1.91,1.11-1.92,2.21
	c-0.01,1.19,0.83,2.2,2.04,2.32c0.93,0.09,1.86,0.04,2.8,0.05c0.15,1.44-0.47,2.8-0.44,4.23c-3.98,4.83-5.41,10.37-4.57,16.54
	c0.37,2.72,1.23,5.28,2.38,7.76c0.47,1.01,1.05,1.49,2.25,1.47c3.78-0.06,7.56,0.02,11.34,0.04c0.17,0.15,0.34,0.31,0.51,0.46
	c0.11,1.57,0.23,3.15,0.34,4.72c-6.93,0.01-13.86,0.04-20.78,0.02c-2.9-0.01-3.87-1.57-2.78-4.33c1.7-4.31,2.78-8.75,2.58-13.43
	c-0.15-3.74-1.15-7.22-3.14-10.4c-0.92-1.47-1.93-2.88-2.93-4.28c-2.64-3.7-4.37-7.77-5-12.28c-0.55-3.92-0.39-7.84,0.39-11.73
	c0.18-0.91,0.27-0.96,1.18-1c0.33-0.02,0.67,0,1,0c0.43,0.59,0.3,1.27,0.34,1.93c0.22,4.12,3.43,7.63,7.49,8.1
	c1.85,0.21,3.56-0.3,5.16-1.21c0.69-0.39,1.21-1.02,2.02-1.25c0.47-0.13,0.61-0.67,0.85-1.06c0.99-1.58,1.97-3.16,2.95-4.74
	c0.32-0.51,0.62-1.03,1.22-1.27c0.39,0.03,0.78,0.05,1.17,0.08c-0.12,2.25-0.65,4.45-0.97,6.67
	C186.11,246.52,185.59,249.85,185.08,253.18z"/>
<path class="st8" d="M198.35,362.54c0.46-0.27,0.92-0.52,1.49-0.48c0.53,0.03,1.07,0,1.6,0c16.33,0,32.67,0,49,0
	c0.53,0,1.07,0.01,1.6-0.01c1.02-0.03,1.09-0.09,1.22-1.15c0.32-2.57,0.64-5.15,0.83-7.73c0.21-2.72,0.58-5.42,0.88-8.13
	c1.62,0.84,2.81,2.16,3.93,3.55c0.49,0.62,0.95,1.26,1.43,1.89c0.15,0.37,0.29,0.74,0.45,1.1c1.39,3.09,2.23,6.25,1.33,9.66
	c-0.12,0.47,0.12,0.75,0.62,0.78c0.46,0.03,0.93,0.03,1.39,0.03c8.77,0,17.54,0,26.32,0c0.46,0,0.93,0.01,1.39-0.03
	c0.57-0.05,0.84-0.29,0.9-0.87c0.09-0.86,0.1-1.72,0.19-2.58c0.21-1.91,0.46-3.81,0.68-5.72c0.29-2.57,0.57-5.14,0.85-7.71
	c0.34,0.2,0.71,0.36,1.02,0.6c2.91,2.3,4.77,5.3,5.82,8.84c0.52,1.74,0.79,3.49,0.42,5.3c-0.12,0.59-0.22,1.17-0.32,1.76
	c-0.12,0.72,0.35,1.27,0.66,1.82c0.19,0.33,0.73,0.18,1.12,0.19c0.27,0.01,0.53,0,0.8,0c10.23,0,20.46,0,30.69,0
	c0.6,0,1.19-0.04,1.79-0.06c0.65,0,1.3,0,1.95,0c1.53,0.02,3.06,0.04,4.6,0.07c0.4,0.01,0.82,0,0.97,0.49
	c0.11,0.37-0.29,0.66-0.97,0.68c-0.53,0.02-1.07,0.01-1.6,0.01c-75.53,0-151.06,0-226.59-0.01c-0.79,0-1.6,0.15-2.37-0.14
	c-0.15-0.06-0.31-0.3-0.31-0.46c0-0.16,0.18-0.42,0.33-0.44c0.45-0.09,0.92-0.13,1.38-0.13c2.33-0.03,4.66-0.04,7-0.06
	c0.47,0.02,0.93,0.05,1.4,0.05c12.72,0,25.43,0,38.15,0c0.27,0,0.53-0.03,0.8-0.04c0.66,0.02,1.33,0.04,2,0.04
	c10.92,0,21.85,0,32.77,0c0.47,0,0.93,0.01,1.4-0.01C198.11,363.62,198.11,363.61,198.35,362.54z"/>
<path class="st9" d="M343.87,253.52c-4.53,0-9.05,0-13.58,0.01c-0.66,0-1.33,0.04-1.99,0.06c0-0.53-0.01-1.07,0.01-1.6
	c0.03-0.86,0.11-0.95,0.9-0.99c0.4-0.02,0.8-0.03,1.2-0.01c0.55,0.02,0.86-0.27,1.02-0.76c0.41-1.27,0.81-2.53,1.22-3.8
	c4.9-15.41,9.79-30.82,14.69-46.23c0.18-0.57,0.38-1.14,0.54-1.71c0.12-0.42-0.14-0.78-0.59-0.85c-0.33-0.05-0.66-0.06-1-0.08
	c-2.33-0.16-4.65-0.33-6.98-0.49c-4.78-0.34-9.56-0.69-14.35-1.02c-4.72-0.33-9.44-0.62-14.15-0.95
	c-6.64-0.46-13.28-0.96-19.93-1.42c-0.93-0.06-1.86-0.03-2.79-0.05c-0.75-0.31-1.56-0.28-2.35-0.33c-2.84-0.18-5.68-0.37-8.52-0.52
	c-0.92-0.05-1.83-0.35-2.76-0.17c-0.45-0.14-0.9-0.13-1.36-0.05c-2.22-0.25-4.44-0.59-6.69-0.49c-1.66-0.15-3.31-0.31-4.97-0.45
	c-1.45-0.12-1.32,0.21-1.57,1.45c-0.08,0.42,0.05,0.8,0.23,1.15c1.16,2.24,2.34,4.48,3.51,6.71c0.23,1.16-0.16,1.2-1.08,1.17
	c-1.36-0.3-2.73-0.58-4.09-0.92c-0.81-0.2-1.51-0.22-2.23,0.34c-0.68,0.53-1.53,0.79-2.41,0.88c-3.25,0.35-6.06-1.76-6.48-5.1
	c-0.14-1.16-0.59-1.57-1.6-1.87c-1.72-0.5-3.4-1.14-5.1-1.72c-0.31-0.11-0.64-0.2-0.94-0.32c-0.25-0.1-0.47-0.25-0.5-0.56
	c-0.03-0.31,0.15-0.52,0.4-0.63c0.48-0.22,0.98-0.4,1.48-0.59c2.05-0.78,4.1-1.57,6.15-2.35c0.37-0.14,0.75-0.27,1.11-0.44
	c0.64-0.31,0.87-1.03,0.54-1.67c-0.21-0.41-0.49-0.79-0.75-1.18c-1.1-1.66-2.21-3.32-3.32-4.99c-0.22-0.33-0.44-0.67-0.65-1
	c-0.16-0.25-0.17-0.54,0-0.75c0.24-0.29,0.56-0.28,0.89-0.1c1.29,0.69,2.58,1.38,3.88,2.05c0.4,0.21,0.77,0.54,1.33,0.43
	c0.46-0.72,0.46-1.61,0.69-2.42c0.76-2.67,3.05-4.41,5.75-4.39c3.14,0.03,5.68,2.58,5.76,5.72c0.03,1.22-0.4,2.36-0.58,3.54
	c-0.1,0.65,0.1,0.88,0.73,0.73c1.55-0.39,3.08-0.84,4.63-1.22c0.52-0.13,1.23-0.71,1.56,0.12c0.29,0.73-0.54,0.97-0.98,1.29
	c-1.98,1.46-3.99,2.88-5.99,4.33c-0.31,0.22-0.59,0.49-0.93,0.77c1.22,0.44,3.49,0.68,5.9,0.64c1.6,0.13,3.19,0.43,4.81,0.35
	c0.57,0.02,1.14,0.04,1.7,0.06c0.62,0.18,1.24,0.22,1.87,0.11c0.53,0.31,1.1,0.27,1.68,0.21c0.89,0.17,1.78,0.23,2.68,0.1
	c0.45,0.03,0.9,0.06,1.35,0.09c1.27,0.43,2.58,0.35,3.89,0.33c0.13,0.03,0.26,0.08,0.39,0.08c3.92,0.08,7.81,0.66,11.72,0.84
	c3.92,0.18,7.84,0.52,11.76,0.79c8.5,0.6,17.01,1.21,25.51,1.81c3.85,0.27,7.71,0.54,11.56,0.8c0.86,0.06,0.9,0.05,1.16-0.9
	c0.24-0.89,0.66-1.68,1.56-1.92c0.87-0.24,1.37-0.68,1.58-1.54c0.04-0.17,0.23-0.3,0.37-0.44c0.13-0.13,0.65,0.03,0.69,0.21
	c0.04,0.19,0.11,0.42,0.04,0.58c-0.34,0.74-0.35,1.38,0.31,1.98c0.23,0.21,0.42,0.58,0.43,0.88c0.01,1.05,0.3,1.78,1.53,1.78
	c0.1,0,0.26,0.31,0.27,0.48c0.02,0.29-0.19,0.5-0.48,0.52c-0.4,0.03-0.8-0.01-1.2,0.01c-0.46,0.02-0.93,0.04-1.38,0.12
	c-0.98,0.18-1.54,0.66-1.88,1.73c-3.09,9.91-6.27,19.79-9.42,29.68c-2.06,6.47-4.11,12.94-6.16,19.41
	c-0.12,0.38-0.25,0.76-0.35,1.14c-0.17,0.65-0.01,0.9,0.6,0.93c0.53,0.03,1.07,0.02,1.6,0.02c2.33,0,4.66,0,6.99,0
	c0.33,0,0.67-0.01,1,0.01c0.78,0.04,0.97,0.2,0.98,0.93C343.95,252.46,343.9,252.99,343.87,253.52z M261.21,188
	c1.31-0.41,2.26-1.31,3.29-2.25c-0.21-0.06-0.28-0.11-0.33-0.09c-0.57,0.14-1.15,0.26-1.72,0.43c-1.26,0.36-1.26,0.37-1.21,1.96
	c-0.13-0.09-0.2-0.06-0.2,0.09c0,0.01,0.07,0.02,0.1,0.02C261.42,188.1,261.05,188.21,261.21,188z M247.49,194.8
	c0.32-1.41,0.61-2.63,0.88-3.86c0.04-0.17-0.05-0.38-0.11-0.72c-2.15,0.73-4.22,1.46-6.56,2.57
	C243.74,193.6,245.49,194.15,247.49,194.8z M258.07,199.88c0.86,0.2,1.62,0.41,2.4,0.53c0.44,0.07,0.87,0.38,1.42,0.06
	c-0.69-1.62-1.44-3.2-2.52-4.87C258.9,197.13,258.7,198.5,258.07,199.88z M249.46,185.54c0.91-2.78,0.67-2.29-1.37-3.42
	c-0.34-0.19-0.69-0.69-1.27-0.21c0.7,1.05,1.39,2.1,2.1,3.14C249.02,185.2,249.2,185.31,249.46,185.54z"/>
<path class="st7" d="M142.43,186.85c0.92,0.09,1.59,0.62,2.23,1.21c1.33,1.22,2.44,2.63,3.43,4.14c2.21,3.35,3.96,6.92,5.45,10.64
	c1.91,4.76,3.4,9.66,4.31,14.71c0.52,2.87,0.95,5.76,1,8.7c0.02,1.46,0.27,2.91,0.29,4.37c0.06,3.66-0.31,7.29-0.66,10.93
	c-0.33,3.38-0.92,6.7-1.69,10c-0.61,2.6-1.51,5.09-2.58,7.53c-0.32,0.73-0.66,1.47-1.45,1.82c-0.21-0.65-0.12-1.32-0.11-1.99
	c0.14-7.27-0.07-14.52-0.58-21.77c-0.44-6.25-1.2-12.46-2.18-18.64c-1.13-7.1-2.61-14.14-4.48-21.09
	C144.48,193.88,143.43,190.37,142.43,186.85z"/>
<path class="st10" d="M255.34,212.43c0.28,0.71,0.15,1.45,0.15,2.17c0.02,10.9,0.02,21.79,0.03,32.69c0,0.13,0.01,0.27,0.01,0.4
	c-0.03,0.79-0.19,0.96-0.91,1c-0.07,0-0.13,0-0.2,0c-5.58-0.01-11.16-0.01-16.74-0.02c-0.26,0-0.53-0.06-0.79-0.09
	c-0.17-1.99,0.24-3.94,0.43-5.9c0.19-1.96,0.59-3.9,0.89-5.84c0.38,0.08,0.76,0.16,1.14,0.25c1.32,0.31,1.6,0.11,1.89-1.4
	c0.39-0.29,0.57-0.72,0.78-1.13c2.66-5.26,5.58-10.37,8.72-15.36c0.21-0.33,0.32-0.71,0.48-1.07c0.72-0.42,0.97-1.21,1.43-1.83
	C253.58,215.02,254.44,213.72,255.34,212.43z"/>
<path class="st7" d="M151.19,262.43c-1.49-0.32-2.17-1.49-2.65-2.73c-0.64-1.67-1.21-3.38-1.67-5.11
	c-0.91-3.47-1.57-6.99-2.08-10.54c-0.49-3.41-1.05-6.82-1.5-10.24c-0.36-2.76-0.48-5.56-0.94-8.31c-0.31-1.91-0.29-3.83-0.63-5.74
	c-0.26-1.49-0.27-3.03-0.47-4.55c-0.32-2.5-0.57-5.01-0.78-7.52c-0.45-5.44-0.68-10.89-0.44-16.35c0.06-1.31,0.19-2.66,1.14-3.73
	c1.02,2.54,1.69,5.18,2.4,7.81c2.05,7.52,3.71,15.12,4.97,22.82c0.96,5.85,1.67,11.73,2.2,17.63c0.39,4.38,0.55,8.78,0.58,13.17
	C151.38,253.5,151.42,257.97,151.19,262.43z"/>
<path class="st10" d="M262.54,202.11c0.93,0.03,1.31-0.01,1.08-1.17c0.86-0.22,1.09-1.1,1.69-1.6c0.55-0.45,0.7-1.07,0.7-1.77
	c-0.01-1.84-0.05-3.69,0.41-5.5c2.25-0.1,4.46,0.24,6.69,0.49c0.02,0.2,0.05,0.4,0.06,0.59c0.11,1.79,0.27,3.59-1.04,5.1
	c-0.23,0.26-0.14,0.67,0.18,0.86c0.31,0.18,0.64,0.07,0.91-0.17c0.05-0.04,0.11-0.08,0.14-0.14c0.98-1.61,1.81-3.24,1.17-5.22
	c-0.1-0.3-0.05-0.66-0.07-0.99c0.93-0.19,1.84,0.12,2.76,0.17c2.84,0.15,5.68,0.34,8.52,0.52c0.79,0.05,1.59,0.03,2.35,0.33
	c-0.49,1.52-1.3,2.88-2.13,4.23c-2.01,3.28-4.44,6.23-7.21,8.9c-0.56,0.54-1.25,0.99-1.52,1.79c-0.39,0.05-0.78,0.13-1.17,0.13
	c-5.62,0.01-11.24,0.01-16.87,0c-0.39,0-0.78-0.09-1.17-0.13c1.16-1.52,2.3-3.05,3.47-4.55
	C261.94,203.42,262.37,202.84,262.54,202.11z M281.73,196.29c0.26,0,0.33,0.02,0.39,0c0.72-0.23,1.47-1.32,1.49-2.14
	c0-0.24-0.37-0.5-0.56-0.39c-0.7,0.39-1.23,0.98-1.66,1.65C281.21,195.68,281.59,196.29,281.73,196.29z"/>
<path class="st4" d="M201.61,353.48c-0.43,1.93-1.45,3.46-3.09,4.57c-2.79-0.09-5.59-0.17-8.38-0.27c-2.99-0.1-5.99-0.24-8.97-0.56
	c-1.59-0.17-3.18-0.36-4.73-0.77c-0.38-0.1-0.75-0.27-1.1-0.44c-0.23-0.11-0.25-0.58-0.03-0.68c0.42-0.19,0.85-0.39,1.29-0.5
	c1.68-0.42,3.4-0.61,5.13-0.78c4.38-0.44,8.77-0.5,13.16-0.67c0.33-0.01,0.67,0,1-0.02c0.74-0.05,0.87-0.19,0.9-0.99
	c0.02-0.53,0.01-1.07,0.01-1.6c0-14.19,0-28.37,0-42.56c0-0.87,0.01-1.73,0.02-2.6c0.12-0.03,0.24-0.08,0.35-0.14
	c0.41,3.5,0.83,7.01,1.21,10.52c0.46,4.17,0.89,8.34,1.33,12.51c0.02,0.2,0.1,0.38,0.16,0.58c-0.04,0.53-0.12,1.05-0.12,1.58
	c-0.01,6.98-0.01,13.95,0,20.93c0,0.33-0.01,0.67,0.01,1c0.04,0.63,0.16,0.75,0.86,0.84C200.95,353.47,201.28,353.47,201.61,353.48z
	"/>
<path class="st11" d="M131.83,262.47c-1.41-9.23-3.22-18.37-5.79-27.35c-2.12-7.44-4.73-14.71-7.72-21.85
	c-4.41-10.53-9.67-20.63-15.77-30.29c-0.49-0.78-0.87-1.65-1.61-2.27c-0.01-0.06-0.03-0.12-0.04-0.18c-0.07-1.06,0.02-1.14,1.1-0.86
	c2.64,4.3,5.32,8.59,7.76,13.02c4.42,8.06,8.34,16.34,11.69,24.9c3.44,8.8,6.25,17.81,8.33,27.03c1.2,5.32,2.22,10.67,3.06,16.06
	c0.03,0.19,0.12,0.38,0.17,0.57c0.4,2.83,0.8,5.65,1.2,8.48c0.74,5.33,1.48,10.66,2.2,16c0.66,4.87,1.3,9.75,1.95,14.62
	c-0.45,0-0.91,0-1.36,0.01c-0.38-3.23-0.73-6.47-1.15-9.69c-0.6-4.61-1.21-9.22-1.87-13.82
	C133.3,272.05,132.55,267.26,131.83,262.47z"/>
<path class="st7" d="M97.2,232.08c0.4-0.11,0.78-0.03,1.1,0.22c0.72,0.57,1.46,1.11,2.11,1.76c4.38,4.35,7.84,9.44,10.85,14.89
	c2.99,5.41,5.1,11.18,6.85,17.12c0.97,3.28,1.71,6.64,2.2,10.03c0.26,1.78,0.63,3.59,0.47,5.42c-0.04,0.47-0.13,0.93-0.19,1.39
	c-0.18-0.5-0.37-1-0.53-1.51c-2.61-7.9-5.59-15.65-9.05-23.19c-3.91-8.52-8.27-16.76-13.17-24.7
	C97.58,233.07,97.15,232.69,97.2,232.08z"/>
<path class="st7" d="M120.43,284.39c-0.73-0.22-1.23-0.7-1.71-1.29c-1.85-2.3-3.28-4.85-4.64-7.45c-2.04-3.89-4.04-7.81-5.89-11.8
	c-3.22-6.94-6.36-13.92-9.46-20.92c-1.13-2.55-2.12-5.16-2.81-7.88c-0.13-0.52-0.33-1.02-0.11-1.56c0.12,0.15,0.26,0.3,0.37,0.47
	c8.63,13.2,15.75,27.18,21.3,41.94C118.55,278.71,119.68,281.48,120.43,284.39z"/>
<path class="st6" d="M271.6,191.09c-1.62,0.08-3.21-0.23-4.81-0.35c0.48-2.85,1.96-5.2,3.78-7.36c0.3-0.35,0.67-0.65,1.05-0.91
	c1.03-0.7,1.77-0.38,1.95,0.88c0.13,0.92,0.18,1.86-0.19,2.76c-0.07,0.18-0.11,0.39-0.12,0.58c0,0.09,0.11,0.26,0.18,0.27
	c0.11,0.02,0.29-0.05,0.34-0.14c0.67-1.15,1.3-2.32,1.99-3.45c0.52-0.85,1.1-1.66,1.69-2.47c0.19-0.27,0.45-0.5,0.72-0.69
	c0.38-0.26,0.79-0.57,1.28-0.35c0.48,0.21,0.61,0.68,0.62,1.17c0.01,0.47,0.01,0.93,0.01,1.4c-0.12,0.15-0.3,0.28-0.35,0.45
	c-0.05,0.16-0.02,0.42,0.09,0.53c0.14,0.15,0.37,0.04,0.48-0.12c0.17-0.27,0.3-0.58,0.44-0.87c0.59-1.06,1.34-1.99,2.26-2.77
	c0.67-0.57,1.21-0.42,1.57,0.37c0.35,0.77,0.27,1.56,0.18,2.36c-0.02,0.19-0.18,0.38-0.18,0.57c0.01,0.6-0.87,1.1-0.2,1.77
	c0.72-0.07,0.82-0.8,1.24-1.19c0.15-0.13,0.27-0.29,0.42-0.43c0.44-0.42,0.9-0.89,1.56-0.55c0.59,0.3,0.39,0.93,0.43,1.44
	c0.08,1.02-0.09,1.99-0.6,2.89c-0.65,1.16-1.27,2.34-1.92,3.5c-0.29,0.52-0.64,1.01-0.75,1.62c-1.31,0.01-2.62,0.09-3.89-0.33
	c-0.05-0.39-0.13-0.79-0.62-0.81c-0.47-0.03-0.62,0.35-0.74,0.73c-0.9,0.13-1.79,0.08-2.68-0.1c0.11-0.37,0.25-0.74,0.34-1.12
	c0.07-0.28-0.07-0.52-0.32-0.65c-0.25-0.12-0.52-0.07-0.74,0.09c-0.49,0.37-0.66,0.96-0.95,1.47c-0.63,0.11-1.26,0.06-1.87-0.11
	c-0.17-0.2-0.32-0.45-0.53-0.58C272.27,190.24,272.04,190.36,271.6,191.09z M277.64,187.63c-0.09,0.08-0.19,0.14-0.25,0.23
	c-0.09,0.13-0.04,0.23,0.11,0.25c0.02,0,0.06-0.09,0.08-0.15c0.02-0.11,0.03-0.23,0.05-0.35c0.34-0.17,0.39-0.48,0.4-0.81
	c0.55-0.2,0.73-0.71,0.96-1.17c0.15-0.31,0.08-0.71-0.09-0.63c-0.16,0.07-0.33,0.2-0.43,0.34c-0.3,0.44-0.45,0.94-0.41,1.48
	C277.7,186.99,277.66,187.31,277.64,187.63z M282.02,188.41c0.9-0.76,1.48-1.76,1.96-2.81c-0.01-0.24-0.12-0.38-0.37-0.4
	c-0.95,0.87-1.5,1.93-1.58,3.22c-0.05,0.02-0.1,0.03-0.14,0.05c-0.02,0.02-0.02,0.06-0.04,0.1
	C281.92,188.52,281.97,188.46,282.02,188.41z M272.63,188.61c-0.04,0.09-0.1,0.18-0.13,0.28c-0.01,0.03,0.07,0.08,0.11,0.13
	c0.05-0.1,0.11-0.19,0.14-0.29C272.76,188.7,272.68,188.65,272.63,188.61z M273.04,187.73l-0.07,0.12l0.11,0.01L273.04,187.73z"/>
<path class="st11" d="M151.19,262.43c0.23-4.46,0.18-8.92,0.15-13.39c-0.03-4.4-0.2-8.8-0.58-13.17c-0.52-5.9-1.24-11.78-2.2-17.63
	c-1.26-7.7-2.93-15.3-4.97-22.82c-0.71-2.63-1.38-5.28-2.4-7.81c0-0.06,0-0.13,0.01-0.19c0.16-1.09,0.29-1.15,1.24-0.56
	c1,3.52,2.04,7.03,2.99,10.56c1.87,6.95,3.34,13.99,4.48,21.09c0.99,6.18,1.75,12.39,2.18,18.64c0.51,7.25,0.71,14.5,0.58,21.77
	c-0.01,0.66-0.11,1.33,0.11,1.99c-0.25,0.63-0.25,1.3-0.27,1.97c-0.31,8.31-0.6,16.62-0.94,24.94c-0.15,3.59-0.39,7.18-0.58,10.76
	c-0.03,0.6-0.03,1.2-0.05,1.79c-0.44,0-0.87-0.01-1.31-0.01c0.26-4.86,0.55-9.71,0.79-14.57c0.27-5.66,0.51-11.31,0.72-16.97
	C151.2,266.69,151.17,264.56,151.19,262.43z"/>
<path class="st4" d="M227.63,164.35c0.66,0.05,1.31,0.07,1.97,0.15c1.48,0.18,2.09,0.8,2.18,2.31c0.09,1.5-0.25,2.88-1.45,3.92
	c-0.93,0.39-1.89,0.54-2.9,0.5c-1.19-0.05-2.38-0.04-3.57-0.08c-1.71-0.05-3.26,0.45-4.68,1.39c-0.77,0.51-1.52,1.04-2.28,1.56
	c-0.1-0.25-0.19-0.49-0.29-0.74c-0.69-1.73-1.92-2.79-3.8-3.04c-0.25-0.03-0.49-0.16-0.74-0.24c0.11-0.31,0.22-0.62,0.32-0.94
	c1.57-5.2,8.15-7.84,12.33-5.77c0.29,0.14,0.62,0.19,0.94,0.29c0.23,0.23,0.47,0.45,0.7,0.68
	C226.85,164.83,226.85,164.83,227.63,164.35z"/>
<path class="st6" d="M216.89,174.1c0.76-0.52,1.52-1.05,2.28-1.57c1.41-0.94,2.96-1.44,4.68-1.39c1.19,0.03,2.38,0.03,3.57,0.08
	c1.01,0.04,1.97-0.1,2.9-0.5c0.06,0.65,0.18,1.29,0.35,1.92c0.31,1.15,0.04,1.42-1.11,1.13c-0.66-0.16-1.29-0.24-1.92,0.04
	c-1.23,0.54-1.97,1.35-1.62,2.97c-0.2,0.48-0.39,0.95-0.43,1.49c-0.09,1.15,0.51,1.87,1.41,2.38c0.86,0.48,2.07,0.15,2.8-0.69
	c0.25-0.29,0.4-0.68,0.82-0.79c-0.08,1.94-0.99,3.53-2.16,4.97c-0.74,0.92-1.58,1.78-2.66,2.35c-0.31,0.16-0.48,0.44-0.63,0.74
	c-0.91,0-1.83-0.04-2.74-0.01c-1.99,0.07-3.71-0.62-5.24-1.83c-0.36-0.29-0.7-0.6-1.2-0.58l0.01,0.01
	c-0.01-0.34-0.09-0.63-0.42-0.81c-0.47-0.66-1.08-1.24-1.26-2.08c0.84-0.66,1.63-1.37,2.16-2.31c1.47,2.05,1.47,2.05,4.03,1.96
	c0.07,0,0.13-0.01,0.2-0.01c0.17,0.72,0.52,1.34,0.96,1.93c0.94,1.26,3.34,1.23,4.21,0.07c0.55-0.73,0.55-1.15-0.26-1.54
	c-0.3-0.14-0.6-0.3-0.92-0.35c-1.17-0.18-2.35-0.33-3.52-0.48c0.36-1.14,0.69-2.29-0.08-3.4c0.49-0.28,1-0.52,1.46-0.84
	c0.49-0.34,0.52-0.81,0.21-1.31c-0.14-0.14-0.28-0.28-0.42-0.42l0.03,0.05c-0.86-1.13-2.05-0.98-3.2-0.75
	c-0.59,0.11-0.98,0.63-1.32,1.11c-0.42,0.58-0.3,1.24-0.17,1.88c-0.27,0.16-0.54,0.33-0.81,0.49
	C216.91,176.7,216.9,175.4,216.89,174.1z"/>
<path class="st8" d="M216.51,179.63c-0.53,0.95-1.33,1.65-2.16,2.31c-0.39,0.08-0.78,0.17-1.17,0.25c-2.67,0.49-5.12-1.23-5.43-3.95
	c-0.15-1.31-0.11-2.66,0.01-3.97c0.13-1.39,0.85-2.53,2.06-3.25c0.64-0.37,0.74-0.82,0.7-1.48c-0.18-3.39,1.38-5.87,4.15-7.64
	c2.19-1.41,4.59-2.06,7.21-1.64c2.59,0.41,4.54,1.74,5.75,4.1c-0.78,0.47-0.78,0.47-1.28-0.02c-0.23-0.23-0.47-0.45-0.7-0.68
	c-0.66-1.09-1.72-1.64-2.87-2.01c-3.65-1.19-8.48,0.78-10.31,4.17c-0.65,1.2-0.95,2.48-0.76,3.84c0.03,0.21,0.13,0.37,0.36,0.41
	c0.25,0.08,0.49,0.21,0.74,0.24c1.88,0.26,3.11,1.31,3.8,3.04c0.1,0.24,0.19,0.49,0.29,0.74c0.01,1.3,0.01,2.61,0.02,3.91
	C216.78,178.55,216.65,179.09,216.51,179.63z"/>
<path class="st11" d="M120.43,284.39c-0.75-2.9-1.88-5.68-2.93-8.48c-5.55-14.77-12.67-28.74-21.3-41.94
	c-0.11-0.17-0.25-0.31-0.37-0.47c-0.1-0.24-0.24-0.48-0.29-0.73c-0.11-0.59,0.22-0.87,0.78-0.67c0.18,0.06,0.33,0.22,0.49,0.33
	c0.04,0.23,0.14,0.4,0.41,0.4c0,0-0.01-0.01-0.01-0.01c-0.05,0.6,0.39,0.97,0.67,1.4c5.06,7.82,9.56,15.95,13.6,24.34
	c3.57,7.43,6.65,15.06,9.35,22.85c0.17,0.5,0.37,0.99,0.55,1.49c1.93,5.82,3.87,11.63,5.8,17.45c-0.48,0-0.96,0-1.43,0
	c-0.07-0.39-0.11-0.79-0.23-1.17c-1.58-4.77-3.18-9.53-4.78-14.3C120.67,284.71,120.53,284.56,120.43,284.39z"/>
<path class="st6" d="M225.61,192.27c0.01,0.8,0.02,1.6,0.02,2.4c0,0.6-0.03,1.19-0.2,1.78c-0.43,1.45-1.4,2.23-2.87,2.41
	c-1.54,0.18-3.06,0.02-4.52-0.53c-1.82-0.69-3.46-1.71-5.02-2.85c-0.55-0.4-0.77-0.9-0.63-1.55c0.22-1.04,0.44-2.08,0.66-3.12
	c0.8-1.45,1.09-3.09,1.68-4.62c0.19-0.49,0.26-1.02,0.71-1.37c0.2,0.01,0.39,0.02,0.59,0.03c0,0-0.01-0.01-0.01-0.01
	c0.22,1.91,0.93,3.58,2.32,4.94c0.57,0.56,1.13,1.13,1.7,1.69c0.24,0.23,0.48,0.46,0.74,0.67c0.83,0.68,1.81,0.74,2.83,0.71
	c0.81-0.02,1.07-0.7,1.54-1.13c0.05-0.04,0.11-0.07,0.17-0.11C225.55,191.76,225.6,192,225.61,192.27z"/>
<path class="st12" d="M225.31,191.59c-0.06,0.04-0.12,0.06-0.17,0.11c-0.47,0.43-0.73,1.11-1.54,1.13c-1.02,0.03-2-0.03-2.83-0.71
	c-0.26-0.21-0.5-0.44-0.74-0.67c-0.57-0.56-1.13-1.13-1.7-1.69c-1.39-1.36-2.1-3.03-2.32-4.94c0.5-0.01,0.83,0.3,1.2,0.58
	c1.53,1.21,3.25,1.9,5.24,1.83c0.91-0.03,1.83,0,2.74,0.01C225.23,188.69,225.27,190.14,225.31,191.59z"/>
<path class="st8" d="M177.74,139.52c0.03,1.23-0.83,2.18-2.03,2.25c-1.26,0.08-2.35-0.89-2.39-2.13c-0.04-1.2,1.05-2.3,2.27-2.28
	C176.76,137.38,177.71,138.33,177.74,139.52z"/>
<path class="st9" d="M187.75,149.23c0.03,1.28-0.99,2.33-2.23,2.3c-1.15-0.03-2.16-1.02-2.21-2.16c-0.04-1.15,0.91-2.19,2.07-2.26
	C186.7,147.03,187.72,147.94,187.75,149.23z"/>
<path class="st8" d="M185.58,141.77c-1.26,0.01-2.31-1.05-2.26-2.27c0.05-1.15,1.06-2.12,2.21-2.15c1.24-0.03,2.25,1.02,2.21,2.3
	C187.71,140.87,186.8,141.77,185.58,141.77z"/>
<path class="st9" d="M175.46,147.1c1.23-0.04,2.2,0.82,2.28,2.01c0.09,1.28-0.86,2.37-2.11,2.42c-1.21,0.05-2.33-1.03-2.32-2.24
	C173.32,148.12,174.28,147.14,175.46,147.1z"/>
<path class="st9" d="M353.32,296.55c-1.23,0.01-2.16-0.87-2.21-2.08c-0.05-1.27,0.94-2.34,2.18-2.35c1.21-0.01,2.3,1.12,2.24,2.32
	C355.48,295.62,354.5,296.54,353.32,296.55z"/>
<path class="st9" d="M353.21,272.78c1.27-0.04,2.34,0.98,2.33,2.21c-0.01,1.14-0.99,2.15-2.15,2.21c-1.24,0.06-2.3-0.96-2.29-2.23
	C351.11,273.76,352.02,272.81,353.21,272.78z"/>
<path class="st9" d="M343.44,296.55c-1.19-0.02-2.15-0.98-2.17-2.15c-0.02-1.23,1.06-2.32,2.28-2.28c1.25,0.04,2.21,1.1,2.14,2.39
	C345.63,295.7,344.66,296.58,343.44,296.55z"/>
<path class="st9" d="M193.16,149.23c0.03-1.21,0.96-2.11,2.17-2.13c1.27-0.01,2.31,1.03,2.25,2.27c-0.05,1.16-1.06,2.15-2.2,2.16
	C194.14,151.55,193.13,150.5,193.16,149.23z"/>
<path class="st9" d="M165.86,147.1c1.18,0.04,2.13,1.03,2.12,2.2c-0.01,1.24-1.11,2.3-2.33,2.23c-1.26-0.07-2.19-1.15-2.1-2.43
	C163.64,147.92,164.63,147.06,165.86,147.1z"/>
<path class="st9" d="M195.26,141.78c-1.2-0.04-2.11-0.99-2.1-2.2c0.01-1.27,1.07-2.29,2.3-2.23c1.15,0.06,2.12,1.08,2.13,2.23
	C197.59,140.83,196.53,141.82,195.26,141.78z"/>
<path class="st9" d="M165.51,141.77c-1.18-0.11-2.03-1.12-1.96-2.33c0.07-1.25,1.22-2.22,2.44-2.07c1.16,0.15,2.06,1.22,1.98,2.35
	C167.9,140.96,166.78,141.89,165.51,141.77z"/>
<path class="st9" d="M343.47,282.43c1.19-0.02,2.16,0.89,2.22,2.08c0.07,1.29-0.89,2.32-2.17,2.33c-1.18,0.01-2.17-0.9-2.25-2.08
	C341.19,283.54,342.21,282.46,343.47,282.43z"/>
<path class="st9" d="M353.21,286.85c-1.19-0.04-2.1-1-2.11-2.2c0-1.28,1.03-2.27,2.3-2.21c1.17,0.05,2.14,1.05,2.15,2.21
	C355.55,285.87,354.47,286.89,353.21,286.85z"/>
<path class="st9" d="M343.5,272.79c1.22,0,2.14,0.89,2.18,2.11c0.04,1.29-0.95,2.33-2.2,2.31c-1.16-0.02-2.16-0.97-2.21-2.13
	C341.21,273.84,342.24,272.79,343.5,272.79z"/>
<path class="st12" d="M230.63,179.16c-0.42,0.11-0.57,0.5-0.82,0.79c-0.73,0.85-1.94,1.18-2.8,0.69c-0.89-0.5-1.5-1.23-1.41-2.38
	c0.04-0.54,0.23-1.01,0.43-1.49c0.27,0.03,0.53,0.05,0.8,0.08c1.06,0.66,2.12,0.22,3.18,0c0.04,0.46,0.25,0.75,0.75,0.76
	C230.8,178.14,230.81,178.66,230.63,179.16z"/>
<path class="st9" d="M230.01,176.86c-1.06,0.22-2.12,0.66-3.18,0c-0.15-1.03,0.42-1.62,1.29-1.97c0.74-0.3,1.53-0.39,2.33-0.15
	c0.32,0.1,0.63,0.22,0.78,0.55c0.15,0.34-0.05,0.63-0.21,0.92C230.68,176.43,230.34,176.65,230.01,176.86z"/>
<path class="st11" d="M106.7,363.62c0.44,0.03,1.03,0.04,1.61,0.12c0.14,0.02,0.31,0.25,0.36,0.42c0.09,0.29-0.13,0.57-0.36,0.6
	c-1.17,0.13-2.36,0.24-3.52-0.06c-0.14-0.04-0.31-0.3-0.31-0.45c0-0.16,0.16-0.38,0.31-0.45
	C105.35,363.52,105.96,363.69,106.7,363.62z"/>
<path class="st13" d="M177.95,165.2c0.23,2.12-0.21,4.19-0.47,6.27c-0.06,0.02-0.13,0.06-0.13,0.05c-0.04-0.06-0.08-0.12-0.08-0.18
	c-0.01-1.39-0.03-2.78-0.02-4.17c0-0.66,0.06-1.32,0.09-1.98C177.54,165.2,177.75,165.2,177.95,165.2z"/>
<path class="st11" d="M102.44,364.88c-0.37-0.03-0.77-0.04-1.15-0.12c-0.27-0.06-0.46-0.3-0.39-0.58c0.04-0.17,0.2-0.4,0.35-0.43
	c0.71-0.17,1.44-0.17,2.15-0.02c0.26,0.05,0.44,0.31,0.39,0.58c-0.03,0.17-0.2,0.39-0.35,0.44
	C103.13,364.85,102.79,364.84,102.44,364.88z"/>
<path class="st12" d="M197.17,305.48c-0.11,0.07-0.22,0.12-0.35,0.14c-0.18-1.15-0.12-2.29-0.01-3.44
	C197.15,303.26,197.21,304.37,197.17,305.48z"/>
<path class="st6" d="M230.01,176.86c0.33-0.22,0.67-0.43,1-0.65c0.16,0.51,0.28,1.02-0.26,1.41
	C230.25,177.62,230.05,177.32,230.01,176.86z"/>
<path class="st13" d="M280.75,182.4c-0.14,0.29-0.27,0.59-0.44,0.87c-0.1,0.17-0.33,0.27-0.48,0.12c-0.11-0.11-0.14-0.37-0.09-0.53
	c0.05-0.17,0.23-0.3,0.35-0.45C280.31,182.42,280.53,182.41,280.75,182.4z"/>
<path class="st12" d="M216.03,184.82c-0.2-0.01-0.39-0.02-0.59-0.03c0.06-0.26,0.12-0.52,0.17-0.78
	C215.94,184.19,216.02,184.49,216.03,184.82z"/>
<path class="st7" d="M97.21,232.83c-0.27,0-0.37-0.17-0.41-0.4C97.05,232.46,97.22,232.56,97.21,232.83z"/>
<path class="st14" d="M336.46,363.59c-0.6,0.02-1.19,0.06-1.79,0.06c-10.23,0-20.46,0-30.69,0c-0.27,0-0.53,0.01-0.8,0
	c-0.39-0.01-0.94,0.14-1.12-0.19c-0.31-0.55-0.78-1.1-0.66-1.82c0.1-0.59,0.2-1.18,0.32-1.76c0.37-1.81,0.1-3.56-0.42-5.3
	c-1.05-3.54-2.91-6.54-5.82-8.84c-0.31-0.24-0.68-0.4-1.02-0.6c-0.08-0.1-0.15-0.23-0.25-0.3c-2.92-2.08-6.18-3.39-9.71-3.9
	c-2.3-0.34-4.64-0.4-6.88,0.5c-0.44,0.18-0.9,0.24-1.37,0.2c-2.33-0.21-4.41-0.92-5.91-2.86c-0.61-0.79-1.24-1.56-1.85-2.34
	c0.13-2.72-0.42-5.39-0.58-8.09c-0.09-1.37-0.28-2.75-0.31-4.13c0.19-0.04,0.39-0.1,0.58-0.13c0.39-0.05,0.6-0.25,0.59-0.65
	c-0.01-0.27-0.03-0.53-0.06-0.8c-0.78-6.68-1.55-13.35-2.34-20.03c-0.6-5.09-1.21-10.18-1.83-15.26c-0.15-1.27-0.09-2.51,0.09-3.77
	c0.57-4.13-0.05-8.09-1.93-11.83c-0.66-1.31-1.5-2.52-2.51-3.59c-3.23-3.39-7.19-4.64-11.79-3.94c-1.25,0.19-2.48,0.51-3.65,0.98
	c-0.56,0.22-1.13,0.34-1.75,0.3c-2.26-0.14-4.52-0.24-6.78-0.36c-0.66-0.04-1.33-0.12-1.99-0.16c-0.66-0.04-0.89-0.5-1.05-1.03
	c0.36-0.44,0.9-0.51,1.4-0.66c0.44-0.13,0.89-0.22,1.33-0.36c0.73-0.24,0.87-0.4,0.79-1.13c-0.14-1.25-0.18-2.49-0.13-3.74
	c0.73,0.01,1.46,0.02,2.2,0.02c31.64,0,63.28,0,94.92,0c0.67,0,1.33,0,2,0.03c0.47,0.02,0.72,0.32,0.74,0.77
	c0.02,0.67,0.02,1.33,0.02,2c0,33.31,0,66.62,0,99.93C336.41,361.73,336.44,362.66,336.46,363.59z M335.72,274.45
	c-0.26-0.38-0.45-0.82-0.78-1.12c-0.87-0.79-2.23-0.72-3.02,0.1c-0.84,0.87-0.87,2.14-0.07,3.03c0.8,0.89,2.07,1.02,3.01,0.24
	c0.34-0.28,0.57-0.71,0.84-1.08C336.15,275.24,336.15,274.85,335.72,274.45z M335.71,284.05c-0.27-0.37-0.48-0.8-0.82-1.1
	c-0.9-0.78-2.22-0.67-3.02,0.18c-0.82,0.87-0.81,2.16,0.01,3.03c0.81,0.85,2.12,0.95,3.02,0.16c0.33-0.29,0.54-0.73,0.81-1.1
	C336.15,284.83,336.15,284.44,335.71,284.05z M323.69,296.55c1.18,0.01,2.17-0.91,2.24-2.09c0.07-1.19-1.01-2.33-2.22-2.34
	c-1.16-0.01-2.16,0.95-2.21,2.12C321.45,295.55,322.39,296.54,323.69,296.55z M335.69,294.34c-0.01-1.27-1.08-2.29-2.31-2.22
	c-1.15,0.07-2.11,1.09-2.11,2.24c0,1.25,1.06,2.24,2.34,2.18C334.82,296.49,335.7,295.56,335.69,294.34z M321.5,275.01
	c0.01,1.18,0.96,2.16,2.13,2.19c1.23,0.03,2.32-1.02,2.31-2.25c-0.01-1.24-1.08-2.22-2.36-2.17
	C322.38,272.84,321.49,273.8,321.5,275.01z M323.68,286.85c1.26,0,2.31-1.06,2.25-2.29c-0.05-1.16-1.04-2.11-2.21-2.13
	c-1.27-0.02-2.26,1-2.21,2.29C321.54,285.93,322.49,286.85,323.68,286.85z"/>
<path class="st14" d="M242.47,340.65c-1.5,0.18-2.97,0.44-4.45,0.81c-2.41,0.6-4.55-0.31-6.36-1.93c-0.58-0.52-1.05-1.18-1.54-1.81
	c-0.37-0.47-0.67-0.98-1.19-1.3c-0.06-0.91-0.06-1.83-0.19-2.74c-0.35-2.39-0.7-4.77-0.76-7.19c2.91-0.54,2.63,0.19,2.33-3.02
	c-0.47-5.03-1.01-10.05-1.53-15.07c-0.47-4.49-0.95-8.98-1.41-13.48c-0.07-0.66-0.05-1.32-0.08-1.99c1.48-1.19,1.7-2.29,0.76-3.8
	c-0.13-0.22-0.31-0.41-0.46-0.61c0.01-0.26,0.03-0.53,0.04-0.79c2.29,0.01,4.58,0.03,6.87,0.03c0.78,0,1.57-0.05,2.35-0.08
	c0.43,1.24,0.69,2.51,0.76,3.82c0.03,0.45-0.06,0.93,0.3,1.3c0.03,1.2,0.08,2.39,0.07,3.59c-0.07,8.99-0.17,17.98-0.23,26.97
	c-0.01,0.99-0.17,1.99,0.14,2.97c0.95,0.57,1.94-0.03,2.9,0.11c0.13,0.02,0.26,0.03,0.4,0.05c0.05,1.06,0.1,2.13,0.41,3.16
	c0.03,0.86-0.02,1.72,0.1,2.56C242.08,335.02,242.39,337.83,242.47,340.65z"/>
<path class="st6" d="M242.47,340.65c-0.08-2.82-0.39-5.63-0.78-8.42c-0.12-0.84-0.07-1.71-0.1-2.56c0.53-0.03,1.07,0.02,1.58-0.09
	c3.28-0.71,6.54-1.47,9.82-2.19c3.34-0.74,6.69-1.41,10.02-2.2c0.74-0.18,1.59-0.13,2.22-0.71c0.79-0.12,1.56-0.35,2.37-0.27
	c0.02,1.39,0.22,2.76,0.31,4.13c0.17,2.7,0.71,5.38,0.58,8.09c-0.25,0.69-0.36,1.4-0.48,2.12c-0.44,2.75-1.05,5.45-2.36,7.95
	c-1.15,2.18-2.79,3.67-5.32,3.98c-0.48-0.63-0.94-1.27-1.43-1.89c-1.12-1.39-2.31-2.71-3.93-3.55c-3.23-2.46-6.91-3.79-10.93-4.23
	C243.52,340.76,243,340.71,242.47,340.65z"/>
<path class="st6" d="M227.97,326.5c0.07,2.42,0.42,4.8,0.76,7.19c0.13,0.9,0.13,1.82,0.19,2.74c-0.34,2.64-0.79,5.26-1.69,7.79
	c-0.47,1.32-1.06,2.59-1.91,3.72c-1.6,2.14-3.7,2.86-6.33,2.22c-1.56-0.38-3-1.07-4.48-1.67c-1.36-0.55-2.71-1.08-4.15-1.39
	c-2.37-0.51-4.32,0.17-6.07,1.74c-0.34,0.3-0.56,0.76-1.06,0.86c-0.07-1.46-0.15-2.92,0.24-4.35c0.09-0.31,0.11-0.66,0.08-0.99
	c-0.16-1.51-0.35-3.02-0.53-4.53c-0.22-1.91-0.45-3.81-0.67-5.72c0.66-0.04,1.3-0.12,1.94-0.35c1.18-0.41,2.41-0.7,3.61-1.07
	c4.79-1.5,9.58-3.03,14.37-4.53c1.57-0.5,3.13-1.05,4.77-1.33c0.18-0.03,0.33-0.19,0.49-0.3
	C227.68,326.51,227.83,326.5,227.97,326.5z"/>
<path class="st2" d="M236.53,258.05c-0.05,1.25-0.01,2.49,0.13,3.74c0.08,0.73-0.06,0.89-0.79,1.13c-0.43,0.14-0.89,0.24-1.33,0.36
	c-0.5,0.14-1.04,0.22-1.4,0.66c-1.27,0-2.51,0.16-3.77,0.31c-2.58,0.3-5.17,0.3-7.76-0.03c-2.39-0.31-4.67-1-6.94-1.76
	c-2.08-0.69-4.22-1.11-6.42-1.33c-1.73-0.17-3.43-0.35-5.15,0c-0.13,0.03-0.27,0.02-0.4,0.02c-3.53-0.1-7.04,0.32-10.55,0.58
	c-2.38,0.18-4.79,0.1-7.14,0.6c-0.45,0.09-0.93,0.02-1.39,0.03c-0.03-1.43,0.59-2.79,0.44-4.23c0.86-0.02,1.73-0.07,2.59-0.07
	C203.27,258.06,219.9,258.05,236.53,258.05z"/>
<path class="st13" d="M202.36,334.09c0.22,1.91,0.45,3.81,0.67,5.72c0.18,1.51,0.37,3.02,0.53,4.53c0.03,0.32,0.01,0.67-0.08,0.99
	c-0.4,1.44-0.32,2.89-0.24,4.35c0,0,0.01-0.03,0.01-0.03c-0.42,0.07-0.31,0.27-0.13,0.49c-0.5,1.11-1,2.22-1.5,3.34
	c-0.33-0.02-0.67-0.01-0.99-0.05c-0.7-0.09-0.82-0.21-0.86-0.84c-0.02-0.33-0.01-0.66-0.01-1c0-6.98,0-13.95,0-20.93
	c0-0.53,0.08-1.05,0.12-1.58c0.57-0.11,1.14-0.22,1.73-0.11c0.2,1.25,0.44,2.49,0.47,3.76
	C202.07,333.19,202.26,333.64,202.36,334.09z"/>
<path class="st12" d="M202.36,334.09c-0.1-0.45-0.29-0.9-0.3-1.36c-0.03-1.27-0.27-2.51-0.47-3.76c2.9-0.3,5.8-0.61,8.71-0.9
	c3.7-0.37,7.4-0.73,11.1-1.07c2.05-0.19,4.1-0.32,6.14-0.48c-0.16,0.1-0.32,0.27-0.49,0.3c-1.64,0.28-3.19,0.83-4.77,1.33
	c-4.79,1.51-9.58,3.03-14.37,4.53c-1.2,0.38-2.42,0.66-3.61,1.07C203.66,333.97,203.02,334.05,202.36,334.09z"/>
<path class="st13" d="M227.63,287.75c-0.01,0.26-0.03,0.53-0.04,0.79c-0.27-0.04-0.53-0.08-0.8-0.12c-0.5-0.28-0.74-0.68-0.79-1.28
	c-0.22-2.46-0.5-4.91-0.75-7.36c-0.25-2.39-0.52-4.77-0.73-7.16c-0.06-0.71-0.33-1.26-0.81-1.76c-4.15-4.35-9.21-6.19-15.18-5.46
	c-1.46,0.18-2.88,0.53-4.26,1.04c-0.31,0.11-0.63,0.21-0.95,0.29c-0.23,0.06-0.41-0.1-0.47-0.28c-0.05-0.16-0.06-0.43,0.04-0.54
	c0.16-0.19,0.41-0.33,0.65-0.42c7.65-2.97,15.64-1.26,21.08,4.62c0.67,0.72,0.98,1.5,1.07,2.49c0.44,4.64,0.95,9.28,1.44,13.92
	C227.17,286.98,227.12,287.48,227.63,287.75z"/>
<path class="st12" d="M265.23,324.47c-0.63,0.58-1.48,0.53-2.22,0.71c-3.33,0.79-6.68,1.46-10.02,2.2
	c-3.27,0.72-6.54,1.48-9.82,2.19c-0.51,0.11-1.05,0.06-1.58,0.09c-0.3-1.03-0.35-2.09-0.41-3.16c2.28-0.52,4.63-0.48,6.94-0.72
	c4.76-0.49,9.54-0.85,14.31-1.24C263.37,324.47,264.3,324.49,265.23,324.47z"/>
<path class="st13" d="M195.53,288.63c-0.17-0.15-0.34-0.31-0.51-0.46c-0.34-2.03-0.69-4.06-1.01-6.09
	c-0.14-0.89,0.04-1.34,0.45-1.28c0.63,0.09,0.62,0.62,0.69,1.06c0.33,1.9,0.65,3.79,0.97,5.69
	C196.2,288.07,196.11,288.48,195.53,288.63z"/>
<path class="st13" d="M237.91,292.82c-0.36-0.37-0.27-0.85-0.3-1.3c-0.08-1.31-0.33-2.58-0.76-3.82c0.6-1.04,1.49-1.83,2.28-2.71
	c0.12-0.14,0.32-0.23,0.5-0.29c0.1-0.03,0.29,0.01,0.35,0.08c0.11,0.14,0.24,0.35,0.21,0.5c-0.11,0.55-0.54,0.92-0.93,1.25
	c-1.11,0.95-1.43,2.13-1.31,3.53C238.02,290.97,237.93,291.9,237.91,292.82z"/>
<path class="st4" d="M226.78,288.42c0.27,0.04,0.53,0.08,0.8,0.12c0.16,0.2,0.33,0.39,0.46,0.61c0.94,1.51,0.71,2.6-0.76,3.8
	C226.9,291.46,226.84,289.94,226.78,288.42z"/>
<path class="st12" d="M241.23,235.67c-0.29,1.51-0.57,1.71-1.89,1.4c-0.38-0.09-0.76-0.17-1.14-0.25c-0.08-0.54,0.12-0.96,0.66-1.03
	C239.65,235.7,240.44,235.71,241.23,235.67z"/>
<path class="st13" d="M187.58,236.51c-0.39-0.03-0.78-0.05-1.17-0.08c-0.03-1.28,0.83-2.06,1.61-2.88
	C188.07,234.56,187.98,235.56,187.58,236.51z"/>
<path class="st14" d="M277.23,208.56c0.27-0.8,0.96-1.25,1.52-1.79c2.77-2.67,5.2-5.62,7.21-8.9c0.83-1.35,1.64-2.71,2.13-4.23
	c0.93,0.01,1.86-0.02,2.79,0.05c6.64,0.46,13.28,0.95,19.93,1.42c4.72,0.33,9.44,0.63,14.15,0.95c4.78,0.33,9.57,0.68,14.35,1.02
	c2.33,0.17,4.65,0.33,6.98,0.49c0.33,0.02,0.67,0.03,1,0.08c0.45,0.07,0.71,0.42,0.59,0.85c-0.16,0.58-0.36,1.14-0.54,1.71
	c-4.9,15.41-9.79,30.82-14.69,46.23c-0.4,1.27-0.81,2.53-1.22,3.8c-0.16,0.5-0.47,0.78-1.02,0.76c-0.4-0.01-0.8-0.01-1.2,0.01
	c-0.78,0.04-0.86,0.13-0.9,0.99c-0.02,0.53-0.01,1.07-0.01,1.6c-0.81-0.02-1.63-0.03-2.44-0.05c0.02-0.67,0.07-1.33,0.07-1.99
	c0-13.51,0-27.03,0-40.54c0-0.53,0-1.07-0.02-1.6c-0.01-0.49-0.32-0.7-0.77-0.71c-0.6-0.02-1.2-0.02-1.8-0.02
	c-14.58,0-29.16,0-43.74-0.01C278.82,208.67,278.02,208.59,277.23,208.56z"/>
<path class="st7" d="M294.45,231.05c0,2.17-1.6,3.79-3.76,3.79c-2.13,0-3.81-1.67-3.82-3.77c-0.01-2.1,1.7-3.78,3.8-3.82
	C292.49,227.2,294.58,228.86,294.45,231.05z"/>
<path class="st13" d="M294.62,129.32c0.21,1.55,0.27,3.08-0.04,4.58c-0.7,3.4-3.55,5.56-6.94,5.31c-3.18-0.24-5.74-2.89-5.95-6.22
	c-0.06-1-0.02-2-0.01-3c0-0.46,0.19-0.74,0.69-0.78c0.39-0.03,0.8-0.06,1.17-0.2c0.4-0.15,0.57-0.54,0.56-0.97
	c-0.01-0.45-0.26-0.74-0.66-0.9c-0.06-0.02-0.13-0.03-0.19-0.05c-0.49-0.14-1.21,0.14-1.43-0.44c-0.2-0.53-0.11-1.18-0.12-1.77
	c-0.01-0.46,0.22-0.74,0.71-0.77c0.33-0.02,0.67-0.03,0.99-0.11c0.42-0.11,0.66-0.43,0.71-0.87c0.05-0.49-0.24-0.93-0.7-1.08
	c-0.06-0.02-0.13-0.03-0.19-0.05c-0.44-0.12-0.98,0.12-1.32-0.27c-0.38-0.44-0.18-1.02-0.2-1.54c-0.03-0.73-0.03-1.47,0-2.2
	c0.18-3.59,2.93-6.33,6.41-6.38c3.5-0.05,6.34,2.56,6.63,6.15c0.09,1.13,0.03,2.26,0.03,3.4c0,0.46-0.21,0.75-0.7,0.78
	c-0.33,0.02-0.67,0.01-0.99,0.07c-0.59,0.1-1,0.58-0.96,1.08c0.03,0.45,0.38,0.84,0.88,0.95c0.06,0.02,0.13,0.03,0.2,0.04
	c0.5,0.09,1.21-0.2,1.46,0.36c0.3,0.66,0.2,1.44,0.04,2.16c-0.03,0.14-0.26,0.31-0.42,0.35c-0.45,0.1-0.93,0.09-1.38,0.19
	c-0.42,0.09-0.68,0.4-0.75,0.83c-0.07,0.43,0.25,0.99,0.7,1.09C293.38,129.19,293.97,129.23,294.62,129.32z"/>
<path class="st13" d="M276.05,132.36c0.01-0.13,0.01-0.4,0.06-0.65c0.09-0.43,0.55-0.81,1-0.85c0.45-0.04,0.98,0.26,1.09,0.7
	c0.11,0.45,0.14,0.91,0.19,1.38c0.44,4.13,3.26,7.54,7.2,8.71c4.66,1.39,9.66-1.06,11.64-5.69c0.42-0.98,0.69-2.01,0.82-3.08
	c0.11-0.94,0.53-1.33,1.21-1.29c0.74,0.04,1.18,0.64,1.06,1.6c-0.57,4.85-3.78,9.08-8.75,10.66c-0.38,0.12-0.78,0.18-1.17,0.27
	c-0.52,0.12-0.78,0.44-0.78,0.99c0.01,1.47,0,2.93-0.01,4.4c0,0.46-0.01,0.93-0.08,1.39c-0.07,0.43-0.39,0.68-0.82,0.76
	c-0.5,0.09-0.97-0.14-1.18-0.54c-0.24-0.43-0.21-0.9-0.21-1.36c0-1.4,0.01-2.8-0.01-4.2c-0.01-1.14-0.03-1.14-1.2-1.43
	c-0.26-0.06-0.53-0.09-0.78-0.16C280.15,142.62,276.33,137.94,276.05,132.36z"/>
<path class="st13" d="M187.61,128.03c-0.06-0.62-0.63-0.81-1.01-1.13c-3.67-3.13-6.06-7.03-7.08-11.76
	c-2.47-11.5,4.68-22.45,15.71-25.04c11.98-2.82,22.51,4.59,25.32,14.72c3.5,12.61-4.6,24.55-16.74,26.71c-2.23,0.4-4.5,0.52-6.75,0
	c0.17-0.43,0.42-0.84,0.49-1.28c0.19-1.16-0.59-2.23-1.74-2.5c-1.1-0.26-2.26,0.44-2.57,1.61c-0.1,0.38-0.08,0.78-0.11,1.18
	c-1.58-0.36-2.94-1.19-4.31-2c-0.38-0.22-0.69-0.67-1.23-0.52L187.61,128.03z M201.08,100.86c0,0-0.01,0-0.01,0
	c0-2.13,0.01-4.26-0.01-6.39c0-0.54-0.34-0.75-0.96-0.72c-0.46,0.02-0.76,0.23-0.78,0.71c-0.02,0.46-0.01,0.93-0.01,1.4
	c0,3.19-0.03,6.39,0.01,9.58c0.02,1.23-0.04,2.23-1.24,3.07c-1.2,0.84-1.27,2.58-0.5,3.8c0.78,1.24,2.27,1.79,3.65,1.28
	c1.24-0.46,1.99-1.39,1.99-2.7c0-0.9,0.42-1.29,1.13-1.65c2.14-1.08,4.25-2.2,6.37-3.3c0.41-0.21,0.83-0.43,1.22-0.67
	c0.15-0.09,0.33-0.29,0.32-0.44c-0.01-0.4-0.2-0.77-0.52-1.03c-0.24-0.19-0.49-0.06-0.73,0.06c-2.24,1.17-4.48,2.34-6.72,3.51
	c-0.47,0.25-0.95,0.48-1.42,0.72c-0.4,0.21-0.75,0.09-1.12-0.11c-0.56-0.3-0.67-0.76-0.67-1.33
	C201.09,104.72,201.08,102.79,201.08,100.86z"/>
<path class="st1" d="M187.58,128.01c-0.15,0.11-0.34,0.2-0.24,0.44c0.2,0.49,0.41,0.96,0.4,1.51c-0.03,1.35-1.17,2.3-2.54,2.12
	c-1.14-0.15-2.01-1.28-1.85-2.41c0.18-1.32,1.47-2.24,2.73-1.89c0.44,0.12,0.85,0.36,1.28,0.51c0.05,0.02,0.16-0.17,0.25-0.26
	C187.61,128.03,187.58,128.01,187.58,128.01z"/>
<path class="st1" d="M177.74,129.91c0,1.28-1,2.24-2.28,2.2c-1.16-0.04-2.12-1.02-2.13-2.18c-0.01-1.21,1.11-2.28,2.31-2.23
	C176.81,127.76,177.74,128.73,177.74,129.91z"/>
<path class="st1" d="M165.73,132.11c-1.21-0.02-2.12-0.92-2.15-2.12c-0.02-1.28,0.97-2.31,2.21-2.29c1.21,0.02,2.24,1.13,2.17,2.36
	C167.9,131.21,166.91,132.13,165.73,132.11z"/>
<path class="st9" d="M193.13,130.52c0.03-0.39,0.01-0.8,0.11-1.18c0.31-1.16,1.46-1.87,2.57-1.61c1.15,0.27,1.93,1.35,1.74,2.5
	c-0.07,0.44-0.32,0.85-0.49,1.28c-0.06,0.03-0.12,0.06-0.18,0.09C194.95,132.46,194.38,132.3,193.13,130.52z"/>
<path class="st12" d="M175.56,181.53c0.06-2.15,1.04-3.97,3.11-5.16c0.23-0.13,0.46-0.28,0.71-0.32c0.44-0.08,0.92-0.21,1.29,0.21
	c0.2,0.23-0.08,0.7-0.71,1c-1.19,0.55-2.09,1.35-2.64,2.56c-0.3,0.68-0.51,1.35-0.48,2.1c0.02,0.45-0.04,0.92-0.13,1.36
	c-0.03,0.13-0.3,0.28-0.46,0.28c-0.16,0-0.39-0.13-0.48-0.27C175.47,182.81,175.61,182.26,175.56,181.53z"/>
<path class="st12" d="M168.53,173.99c0.11-0.29,0.23-0.52,0.5-0.61c0.27-0.09,0.54-0.03,0.69,0.2c0.39,0.61,0.6,1.29,0.62,2.01
	c0.01,0.35-0.26,0.62-0.59,0.7c-0.35,0.08-0.67-0.13-0.77-0.45C168.79,175.23,168.67,174.59,168.53,173.99z"/>
<path class="st12" d="M174.07,174.03c-0.04,0.39-0.05,0.79-0.14,1.17c-0.04,0.14-0.27,0.28-0.44,0.33c-0.29,0.07-0.54-0.09-0.6-0.36
	c-0.17-0.78-0.18-1.57,0-2.34c0.03-0.14,0.27-0.28,0.44-0.32c0.28-0.07,0.54,0.1,0.61,0.36
	C174.02,173.23,174.02,173.63,174.07,174.03z"/>
<path class="st12" d="M177.68,174.67c-0.03,0.42-0.04,0.75-0.07,1.07c-0.03,0.3-0.21,0.49-0.5,0.49c-0.28,0-0.49-0.2-0.58-0.45
	c-0.23-0.7-0.19-1.42-0.04-2.13c0.06-0.27,0.32-0.43,0.6-0.37c0.17,0.04,0.4,0.18,0.44,0.32
	C177.64,173.98,177.65,174.37,177.68,174.67z"/>
<path class="st6" d="M203.12,350.15c-0.18-0.22-0.29-0.42,0.13-0.49C203.2,349.82,203.16,349.98,203.12,350.15z"/>
<path class="st5" d="M260.33,350.48c2.54-0.3,4.18-1.8,5.32-3.98c1.32-2.49,1.92-5.2,2.36-7.95c0.12-0.72,0.22-1.44,0.48-2.12
	c0.62,0.78,1.25,1.55,1.85,2.34c1.49,1.94,3.58,2.65,5.91,2.86c0.46,0.04,0.92-0.02,1.37-0.2c2.24-0.9,4.58-0.84,6.88-0.5
	c3.53,0.52,6.79,1.83,9.71,3.9c0.1,0.07,0.17,0.2,0.25,0.3c-0.28,2.57-0.56,5.14-0.85,7.71c-0.22,1.91-0.47,3.81-0.68,5.72
	c-0.09,0.86-0.1,1.72-0.19,2.58c-0.06,0.58-0.34,0.82-0.9,0.87c-0.46,0.04-0.93,0.03-1.39,0.03c-8.77,0-17.54,0-26.32,0
	c-0.46,0-0.93,0-1.39-0.03c-0.5-0.03-0.75-0.31-0.62-0.78c0.9-3.41,0.05-6.57-1.33-9.66C260.61,351.22,260.48,350.85,260.33,350.48z
	"/>
<path class="st13" d="M266.42,192.07c-0.46,1.81-0.42,3.66-0.41,5.5c0.01,0.7-0.15,1.31-0.7,1.77c-0.6,0.5-0.83,1.38-1.69,1.6
	c-1.17-2.24-2.35-4.47-3.51-6.71c-0.18-0.35-0.32-0.73-0.23-1.15c0.24-1.24,0.11-1.57,1.57-1.45
	C263.11,191.76,264.76,191.92,266.42,192.07z"/>
<path class="st13" d="M247.49,194.8c-2-0.64-3.75-1.2-5.8-2.01c2.34-1.11,4.41-1.84,6.56-2.57c0.06,0.34,0.15,0.54,0.11,0.72
	C248.11,192.17,247.82,193.39,247.49,194.8z"/>
<path class="st13" d="M258.07,199.88c0.63-1.38,0.83-2.75,1.3-4.27c1.08,1.67,1.84,3.25,2.52,4.87c-0.55,0.32-0.98,0.01-1.42-0.06
	C259.7,200.29,258.93,200.07,258.07,199.88z"/>
<path class="st12" d="M274.46,192.61c0.02,0.33-0.03,0.68,0.07,0.99c0.65,1.98-0.19,3.61-1.17,5.22c-0.03,0.05-0.09,0.1-0.14,0.14
	c-0.27,0.24-0.6,0.35-0.91,0.17c-0.33-0.19-0.41-0.6-0.18-0.86c1.31-1.52,1.15-3.31,1.04-5.1c-0.01-0.2-0.04-0.4-0.06-0.59
	C273.56,192.48,274.02,192.47,274.46,192.61z"/>
<path class="st13" d="M249.46,185.54c-0.27-0.23-0.44-0.34-0.55-0.49c-0.71-1.04-1.4-2.09-2.1-3.14c0.58-0.48,0.93,0.02,1.27,0.21
	C250.13,183.25,250.38,182.76,249.46,185.54z"/>
<path class="st13" d="M261.25,188.05c-0.05-1.59-0.05-1.59,1.21-1.96c0.57-0.16,1.14-0.29,1.72-0.43c0.05-0.01,0.12,0.03,0.33,0.09
	c-1.03,0.94-1.98,1.84-3.29,2.25L261.25,188.05z"/>
<path class="st12" d="M275.17,191.26c0.29-0.51,0.46-1.1,0.95-1.47c0.22-0.17,0.49-0.22,0.74-0.09c0.25,0.12,0.39,0.36,0.32,0.65
	c-0.09,0.38-0.22,0.75-0.34,1.12C276.27,191.53,275.7,191.57,275.17,191.26z"/>
<path class="st12" d="M271.6,191.09c0.44-0.73,0.67-0.85,1.17-0.53c0.21,0.14,0.35,0.39,0.53,0.58
	C272.73,191.13,272.16,191.11,271.6,191.09z"/>
<path class="st12" d="M279.52,191.56c0.11-0.38,0.27-0.75,0.74-0.73c0.48,0.03,0.57,0.42,0.62,0.81
	C280.42,191.62,279.97,191.59,279.52,191.56z"/>
<path class="st13" d="M261.21,188c-0.17,0.21,0.2,0.1-0.06,0.15c-0.03,0.01-0.1-0.01-0.1-0.02c0-0.14,0.07-0.17,0.2-0.08
	C261.25,188.05,261.21,188,261.21,188z"/>
<path class="st12" d="M281.73,196.29c-0.13,0-0.51-0.62-0.34-0.89c0.43-0.67,0.95-1.25,1.66-1.65c0.2-0.11,0.57,0.16,0.56,0.39
	c-0.02,0.82-0.77,1.91-1.49,2.14C282.06,196.31,281.99,196.29,281.73,196.29z"/>
<path class="st13" d="M282.04,188.43c0.08-1.29,0.63-2.36,1.58-3.22c0.12,0.13,0.24,0.26,0.37,0.4c-0.49,1.05-1.06,2.05-1.96,2.81
	L282.04,188.43z"/>
<path class="st13" d="M278.04,186.82c-0.04-0.54,0.11-1.03,0.41-1.48c0.1-0.15,0.27-0.27,0.43-0.34c0.17-0.08,0.25,0.32,0.09,0.63
	c-0.23,0.46-0.41,0.97-0.96,1.17L278.04,186.82z"/>
<path class="st13" d="M277.62,187.61c-0.01,0.12-0.02,0.23-0.05,0.35c-0.01,0.05-0.05,0.15-0.08,0.15c-0.15-0.02-0.2-0.12-0.11-0.25
	c0.06-0.09,0.17-0.15,0.25-0.23C277.64,187.63,277.62,187.61,277.62,187.61z"/>
<path class="st13" d="M278.01,186.81c0,0.33-0.06,0.64-0.4,0.81c0,0,0.02,0.02,0.02,0.02c0.02-0.32,0.06-0.64,0.4-0.81
	C278.04,186.82,278.01,186.81,278.01,186.81z"/>
<path class="st0" d="M272.63,188.61c0.04,0.04,0.13,0.09,0.12,0.11c-0.03,0.1-0.09,0.2-0.14,0.29c-0.04-0.04-0.12-0.1-0.11-0.13
	C272.53,188.79,272.59,188.7,272.63,188.61z"/>
<path class="st0" d="M283.98,185.6c-0.12-0.13-0.24-0.26-0.37-0.4C283.87,185.21,283.97,185.36,283.98,185.6z"/>
<polygon class="st0" points="273.04,187.73 273.07,187.85 272.97,187.84 "/>
<path class="st13" d="M282.02,188.41c-0.05,0.06-0.1,0.11-0.15,0.17c0.01-0.03,0.01-0.08,0.04-0.1c0.04-0.03,0.09-0.04,0.14-0.05
	C282.04,188.43,282.02,188.41,282.02,188.41z"/>
<path class="st13" d="M212.06,170.08c-0.23-0.05-0.33-0.21-0.36-0.41c-0.18-1.37,0.12-2.65,0.76-3.84
	c1.83-3.39,6.66-5.36,10.31-4.17c1.14,0.37,2.21,0.92,2.87,2.01c-0.31-0.09-0.65-0.14-0.94-0.29c-4.18-2.07-10.76,0.58-12.33,5.77
	C212.28,169.46,212.17,169.77,212.06,170.08z"/>
<path class="st12" d="M216.51,179.63c0.13-0.54,0.27-1.08,0.4-1.62c0.27-0.16,0.54-0.33,0.81-0.49c0.27,0.03,0.54,0.07,0.81,0.1
	c0.83,0.54,1.72,0.31,2.6,0.19c0.76,1.12,0.44,2.26,0.08,3.4c-0.16,0.13-0.31,0.25-0.47,0.38c-0.07,0-0.13,0.01-0.2,0.01
	C217.98,181.67,217.98,181.67,216.51,179.63z"/>
<path class="st13" d="M220.74,181.58c0.16-0.13,0.31-0.25,0.47-0.38c1.17,0.16,2.35,0.3,3.52,0.48c0.32,0.05,0.63,0.21,0.92,0.35
	c0.81,0.39,0.81,0.81,0.26,1.54c-0.88,1.16-3.27,1.19-4.21-0.07C221.26,182.92,220.91,182.3,220.74,181.58z"/>
<path class="st11" d="M221.13,177.8c-0.88,0.12-1.77,0.36-2.6-0.19c-0.18-1.13,0.5-1.65,1.41-2.03c0.8-0.34,1.66-0.16,2.48-0.3
	c0,0-0.03-0.05-0.03-0.05c-0.07,0.35,0.2,0.36,0.42,0.42c0.32,0.5,0.28,0.97-0.21,1.31C222.14,177.28,221.62,177.52,221.13,177.8z"
	/>
<path class="st13" d="M222.42,175.28c-0.82,0.14-1.68-0.04-2.48,0.3c-0.9,0.39-1.59,0.9-1.41,2.03c-0.27-0.03-0.54-0.06-0.81-0.1
	c-0.13-0.65-0.25-1.3,0.17-1.88c0.34-0.48,0.73-0.99,1.32-1.11C220.37,174.3,221.56,174.15,222.42,175.28z"/>
<path class="st13" d="M222.8,175.64c-0.22-0.06-0.49-0.07-0.42-0.42C222.52,175.36,222.66,175.5,222.8,175.64z"/>
<path class="st9" d="M323.69,296.55c-1.3-0.01-2.24-0.99-2.19-2.3c0.05-1.17,1.05-2.13,2.21-2.12c1.21,0.01,2.29,1.14,2.22,2.34
	C325.86,295.63,324.88,296.55,323.69,296.55z"/>
<path class="st9" d="M335.69,294.34c0.01,1.22-0.87,2.15-2.09,2.2c-1.28,0.06-2.34-0.93-2.34-2.18c0-1.15,0.96-2.17,2.11-2.24
	C334.61,292.05,335.68,293.07,335.69,294.34z"/>
<path class="st9" d="M321.5,275.01c-0.01-1.21,0.88-2.17,2.08-2.22c1.28-0.05,2.35,0.93,2.36,2.17c0.01,1.22-1.07,2.28-2.31,2.25
	C322.45,277.17,321.51,276.2,321.5,275.01z"/>
<path class="st9" d="M323.68,286.85c-1.2,0-2.14-0.92-2.18-2.13c-0.04-1.29,0.94-2.3,2.21-2.29c1.17,0.01,2.16,0.97,2.21,2.13
	C325.99,285.79,324.94,286.85,323.68,286.85z"/>
<path class="st9" d="M335.71,285.22c-0.27,0.37-0.47,0.81-0.81,1.1c-0.9,0.79-2.21,0.69-3.02-0.16c-0.82-0.87-0.83-2.15-0.01-3.03
	c0.8-0.86,2.12-0.96,3.02-0.18c0.34,0.29,0.55,0.73,0.82,1.1C335.71,284.44,335.71,284.83,335.71,285.22z"/>
<path class="st9" d="M335.7,275.62c-0.28,0.36-0.5,0.79-0.84,1.08c-0.94,0.78-2.2,0.65-3.01-0.24c-0.8-0.89-0.77-2.16,0.07-3.03
	c0.8-0.82,2.15-0.9,3.02-0.1c0.33,0.3,0.52,0.74,0.78,1.12C335.72,274.84,335.71,275.23,335.7,275.62z"/>
<path class="st13" d="M335.7,275.62c0.01-0.39,0.01-0.79,0.02-1.18C336.15,274.85,336.15,275.24,335.7,275.62z"/>
<path class="st13" d="M335.71,285.22c0-0.39,0-0.79,0-1.18C336.15,284.44,336.15,284.83,335.71,285.22z"/>
<path class="st4" d="M201.08,100.86c0,1.93,0.01,3.86,0,5.79c0,0.57,0.11,1.03,0.67,1.33c0.38,0.2,0.72,0.32,1.12,0.11
	c0.47-0.25,0.95-0.48,1.42-0.72c2.24-1.17,4.48-2.34,6.72-3.51c0.24-0.13,0.49-0.26,0.73-0.06c0.32,0.26,0.51,0.62,0.52,1.03
	c0.01,0.15-0.17,0.35-0.32,0.44c-0.39,0.25-0.81,0.46-1.22,0.67c-2.12,1.11-4.24,2.23-6.37,3.3c-0.71,0.36-1.13,0.74-1.13,1.65
	c0,1.32-0.75,2.25-1.99,2.7c-1.38,0.51-2.87-0.04-3.65-1.28c-0.77-1.22-0.7-2.96,0.5-3.8c1.2-0.84,1.26-1.84,1.24-3.07
	c-0.04-3.19-0.02-6.39-0.01-9.58c0-0.47-0.01-0.93,0.01-1.4c0.02-0.49,0.32-0.69,0.78-0.71c0.62-0.03,0.96,0.18,0.96,0.72
	c0.02,2.13,0.01,4.26,0.01,6.39C201.07,100.86,201.08,100.86,201.08,100.86z"/>
</svg>
