<?xml version="1.0" encoding="utf-8"?>
<!-- Generator: Adobe Illustrator 21.0.0, SVG Export Plug-In . SVG Version: 6.00 Build 0)  -->
<svg version="1.1" id="Capa_1" xmlns="http://www.w3.org/2000/svg" xmlns:xlink="http://www.w3.org/1999/xlink" x="0px" y="0px"
	 viewBox="0 0 102.9 100" style="enable-background:new 0 0 102.9 100;" xml:space="preserve">
<style type="text/css">
	.st0{fill:#FFFFFF;}
	.st1{fill:#FFCF04;}
	.st2{fill:#E23B87;}
</style>
<path class="st0" d="M85.3,63.4c-2.9,0-5.3,2.2-5.8,4.9c-0.8-0.1-2.1-0.5-3.1-1.7c-0.5-0.7-0.7-2.2-1-3.6c-0.5-2.4-0.9-5.2-2.8-6.8
	c-1.7-1.5-3.4-1.9-4.8-1.9c0.3-1.3,0.5-2.6,0.5-4s-0.2-2.8-0.5-4c1.3,0,3-0.4,4.8-1.9c1.9-1.6,2.4-4.4,2.8-6.8c0.3-1.5,0.5-3,1-3.6
	c1-1.3,2.3-1.7,3.1-1.7c0.5,2.8,2.9,4.9,5.8,4.9c3.2,0,5.9-2.6,5.9-5.9c0-3.2-2.6-5.9-5.9-5.9c-2.4,0-4.4,1.4-5.3,3.4
	c-1.3,0-4.2,0.4-6.2,3.1c-0.9,1.3-1.3,3.1-1.6,5c-0.3,1.9-0.7,4-1.7,4.8c-1.8,1.5-3.5,0.9-3.6,0.9l-0.1,0.2c-1.7-3.5-4.5-6.3-8-8
	l0.2-0.1c0,0-0.7-1.7,0.9-3.6c0.8-0.9,3-1.3,4.8-1.7c2-0.3,3.8-0.7,5-1.6c2.8-2.1,3.1-4.9,3.1-6.2c2-0.9,3.4-3,3.4-5.3
	c0-3.2-2.6-5.9-5.9-5.9s-5.9,2.6-5.9,5.9c0,2.9,2.2,5.3,4.9,5.8c-0.1,0.8-0.5,2.1-1.7,3.1c-0.7,0.5-2.2,0.7-3.6,1
	c-2.4,0.5-5.2,0.9-6.8,2.8c-1.5,1.7-1.9,3.4-1.9,4.8c-1.3-0.3-2.6-0.5-4-0.5s-2.8,0.2-4,0.5c0-1.3-0.4-3-1.9-4.8
	c-1.6-1.9-4.4-2.4-6.8-2.8c-1.5-0.3-3-0.5-3.6-1c-1.3-1-1.7-2.3-1.7-3.1c2.8-0.5,4.9-2.9,4.9-5.8c0-3.2-2.6-5.9-5.9-5.9
	c-3.2,0-5.9,2.6-5.9,5.8c0,2.4,1.4,4.4,3.4,5.3c0,1.3,0.4,4.2,3.1,6.2c1.3,0.9,3.1,1.3,5,1.6c1.9,0.3,4,0.7,4.8,1.7
	c1.5,1.8,0.9,3.5,0.9,3.6l0.2,0.1c-3.5,1.7-6.3,4.5-8,8l-0.1-0.1c0,0-1.7,0.7-3.6-0.9c-0.9-0.8-1.3-3-1.7-4.8c-0.3-2-0.7-3.8-1.6-5
	c-2.1-2.8-4.9-3.1-6.2-3.1c-0.9-2-3-3.4-5.3-3.4c-3.2,0-5.9,2.6-5.9,5.9c0,3.2,2.6,5.9,5.9,5.9c2.9,0,5.3-2.2,5.8-4.9
	c0.8,0.1,2.1,0.5,3.1,1.7c0.5,0.7,0.7,2.2,1,3.6c0.5,2.4,0.9,5.2,2.8,6.8c1.7,1.5,3.4,1.9,4.8,1.9c-0.3,1.3-0.5,2.6-0.5,4
	s0.2,2.8,0.5,4c-1.3,0-3,0.4-4.8,1.9c-1.9,1.6-2.4,4.4-2.8,6.8c-0.3,1.5-0.5,3-1,3.6c-1,1.3-2.3,1.7-3.1,1.7
	c-0.5-2.8-2.9-4.9-5.8-4.9c-3.2,0-5.9,2.6-5.9,5.9s2.6,5.9,5.9,5.9c2.4,0,4.4-1.4,5.3-3.4c1.3,0,4.2-0.4,6.2-3.1
	c0.9-1.3,1.3-3.1,1.6-5c0.3-1.9,0.7-4,1.7-4.8c1.8-1.5,3.5-0.9,3.6-0.9l0.1-0.2c1.7,3.5,4.5,6.3,8,8l-0.2,0.1
	c0.1,0.2,0.7,1.9-0.9,3.6c-0.8,0.9-3,1.3-4.8,1.7c-2,0.3-3.8,0.7-5,1.6c-2.8,2.1-3.1,4.9-3.1,6.2c-2,0.9-3.4,3-3.4,5.3
	c0,3.2,2.6,5.9,5.9,5.9s5.9-2.6,5.9-5.9c0-2.9-2.2-5.3-4.9-5.8c0.1-0.8,0.5-2.1,1.7-3.1c0.7-0.5,2.2-0.7,3.6-1
	c2.4-0.5,5.2-0.9,6.8-2.8c1.5-1.7,1.9-3.4,1.9-4.8c1.3,0.3,2.6,0.5,4,0.5s2.8-0.2,4-0.5c0,1.3,0.4,3,1.9,4.8
	c1.6,1.9,4.4,2.4,6.8,2.8c1.5,0.3,3,0.5,3.6,1c1.3,1,1.7,2.3,1.7,3.1c-2.8,0.5-4.9,2.9-4.9,5.8c0,3.2,2.6,5.9,5.9,5.9
	s5.9-2.6,5.9-5.9c0-2.4-1.4-4.4-3.4-5.3c0-1.3-0.4-4.2-3.1-6.2c-1.3-0.9-3.1-1.3-5-1.6c-1.9-0.3-4-0.7-4.8-1.7
	C58.4,67.7,59,66,59,65.9l-0.2-0.1c3.5-1.7,6.3-4.5,8-8l0.1,0.2c0,0,1.7-0.7,3.6,0.9c0.9,0.8,1.3,3,1.7,4.8c0.3,2,0.7,3.8,1.6,5
	c2.1,2.8,4.9,3.1,6.2,3.1c0.9,2,3,3.4,5.3,3.4c3.2,0,5.9-2.6,5.9-5.9S88.5,63.4,85.3,63.4z M51.3,64c-7.5,0-13.7-6.1-13.7-13.7
	s6.1-13.7,13.7-13.7S65,42.7,65,50.3S58.9,64,51.3,64z"/>
<circle class="st1" cx="51.3" cy="50.2" r="9"/>
<g>
	<path class="st2" d="M85.3,28.7c1.3,0,2.5,1.1,2.5,2.5c0,1.4-1.1,2.5-2.5,2.5c-1.3,0-2.5-1.1-2.5-2.5S84,28.7,85.3,28.7z"/>
</g>
<g>
	<path class="st2" d="M67.9,16.2c0-1.3,1.1-2.5,2.5-2.5c1.3,0,2.5,1.1,2.5,2.5c0,1.3-1.1,2.5-2.5,2.5S67.9,17.7,67.9,16.2z"/>
</g>
<g>
	<path class="st2" d="M32.3,13.8c1.3,0,2.5,1.1,2.5,2.5s-1.1,2.5-2.5,2.5c-1.3,0-2.5-1.1-2.5-2.5S30.9,13.8,32.3,13.8z"/>
</g>
<g>
	<path class="st2" d="M17.3,33.7c-1.3,0-2.5-1.1-2.5-2.5s1.1-2.5,2.5-2.5s2.5,1.1,2.5,2.5C19.8,32.6,18.7,33.7,17.3,33.7z"/>
</g>
<g>
	<path class="st2" d="M17.3,71.8c-1.3,0-2.5-1.1-2.5-2.5s1.1-2.5,2.5-2.5s2.5,1.1,2.5,2.5S18.7,71.8,17.3,71.8z"/>
</g>
<g>
	<path class="st2" d="M34.8,84.3c0,1.3-1.1,2.5-2.5,2.5c-1.3,0-2.5-1.1-2.5-2.5c0-1.3,1.1-2.5,2.5-2.5
		C33.6,81.8,34.8,82.9,34.8,84.3z"/>
</g>
<g>
	<path class="st2" d="M70.4,86.8c-1.3,0-2.5-1.1-2.5-2.5c0-1.3,1.1-2.5,2.5-2.5c1.3,0,2.5,1.1,2.5,2.5
		C72.9,85.6,71.7,86.8,70.4,86.8z"/>
</g>
<g>
	<path class="st2" d="M85.3,71.8c-1.3,0-2.5-1.1-2.5-2.5s1.1-2.5,2.5-2.5c1.3,0,2.5,1.1,2.5,2.5S86.7,71.8,85.3,71.8z"/>
</g>
</svg>
