<?xml version="1.0" encoding="utf-8"?>
<!-- Generator: Adobe Illustrator 21.0.0, SVG Export Plug-In . SVG Version: 6.00 Build 0)  -->
<svg version="1.1" id="Capa_1" xmlns="http://www.w3.org/2000/svg" xmlns:xlink="http://www.w3.org/1999/xlink" x="0px" y="0px"
	 viewBox="0 0 750 375" style="enable-background:new 0 0 750 375;" xml:space="preserve">
<style type="text/css">
	.st0{fill:#FFFFFF;}
	.st1{fill:#FFCF04;}
	.st2{fill:#E33B88;}
</style>
<path class="st0" d="M318.1,240.1c-10.7,0-19.7,8-21.5,18.2c-3-0.2-7.7-1.7-11.5-6.5c-1.7-2.5-2.7-8-3.7-13.5
	c-1.7-9-3.5-19.2-10.5-25.2c-6.2-5.5-12.7-7-17.7-7c1.2-4.7,1.7-9.7,1.7-15s-0.7-10.2-1.7-15c5,0,11.2-1.5,17.7-7
	c7-6,8.7-16.2,10.5-25.2c1-5.5,2-11,3.7-13.5c3.7-4.7,8.5-6.2,11.5-6.5c1.7,10.2,10.7,18.2,21.5,18.2c12,0,21.7-9.7,21.7-21.7
	c0-12-9.7-21.7-21.7-21.7c-8.7,0-16.2,5.2-19.7,12.7c-4.7,0-15.5,1.5-23,11.5c-3.5,4.7-4.7,11.5-6,18.7c-1.2,7-2.7,15-6.2,18
	c-6.7,5.7-13,3.5-13.5,3.2l-0.2,0.7c-6.2-13-16.7-23.5-29.7-29.7l0.7-0.2c0,0-2.5-6.5,3.2-13.5c3-3.5,11-5,18-6.2
	c7.2-1.2,14-2.5,18.7-6c10.2-7.7,11.5-18.2,11.5-23c7.5-3.5,12.7-11,12.7-19.7c0-12-9.7-21.7-21.7-21.7c-12,0-21.7,9.7-21.7,21.7
	c0,10.7,8,19.7,18.2,21.5c-0.2,3-1.7,7.7-6.5,11.5c-2.5,1.7-8,2.7-13.5,3.7c-9,1.7-19.2,3.5-25.2,10.5c-5.5,6.2-7,12.7-7,17.7
	c-4.7-1.2-9.7-1.7-15-1.7s-10.2,0.7-15,1.7c0-5-1.5-11.2-7-17.7c-6-7-16.2-8.7-25.2-10.5c-5.5-1-11-2-13.5-3.7
	c-4.7-3.7-6.2-8.5-6.5-11.5c10.2-1.7,18.2-10.7,18.2-21.5c0-12-9.7-21.7-21.7-21.7s-22,9.5-22,21.5c0,8.7,5.2,16.2,12.7,19.7
	c0,4.7,1.5,15.5,11.5,23c4.7,3.5,11.5,4.7,18.7,6c7,1.2,15,2.7,18,6.2c5.7,6.7,3.5,13,3.2,13.5l0.7,0.2c-13,6.2-23.5,16.7-29.7,29.7
	l-0.2-0.2c0,0-6.5,2.5-13.5-3.2c-3.5-3-5-11-6.2-18c-1.2-7.2-2.5-14-6-18.7c-7.7-10.2-18.2-11.5-23-11.5C82.5,104.3,75,99,66.3,99
	c-12,0-21.7,9.7-21.7,21.7c0,12,9.7,21.7,21.7,21.7c10.7,0,19.7-8,21.5-18.2c3,0.2,7.7,1.7,11.5,6.5c1.7,2.5,2.7,8,3.7,13.5
	c1.7,9,3.5,19.2,10.5,25.2c6.2,5.5,12.7,7,17.7,7c-1.2,4.7-1.7,9.7-1.7,15s0.7,10.2,1.7,15c-5,0-11.2,1.5-17.7,7
	c-7,6-8.7,16.2-10.5,25.2c-1,5.5-2,11-3.7,13.5c-3.7,4.7-8.5,6.2-11.5,6.5C86,248.3,77,240.3,66.3,240.3c-12,0-21.7,9.7-21.7,21.7
	c0,12,9.7,21.7,21.7,21.7c8.7,0,16.2-5.2,19.7-12.7c4.7,0,15.5-1.5,23-11.5c3.5-4.7,4.7-11.5,6-18.7c1.2-7,2.7-15,6.2-18
	c6.7-5.7,13-3.5,13.5-3.2l0.2-0.7c6.2,13,16.7,23.5,29.7,29.7l-0.7,0.2c0.2,0.7,2.5,7-3.2,13.5c-3,3.5-11,5-18,6.2
	c-7.2,1.2-14,2.5-18.7,6c-10.2,7.7-11.5,18.2-11.5,23c-7.5,3.5-12.7,11-12.7,19.7c0,12,9.7,21.7,21.7,21.7s21.7-9.7,21.7-21.7
	c0-10.7-8-19.7-18.2-21.5c0.2-3,1.7-7.7,6.5-11.5c2.5-1.7,8-2.7,13.5-3.7c9-1.7,19.2-3.5,25.2-10.5c5.5-6.2,7-12.7,7-17.7
	c4.7,1.2,9.7,1.7,15,1.7c5.2,0,10.2-0.7,15-1.7c0,5,1.5,11.2,7,17.7c6,7,16.2,8.7,25.2,10.5c5.5,1,11,2,13.5,3.7
	c4.7,3.7,6.2,8.5,6.5,11.5c-10.2,1.7-18.2,10.7-18.2,21.5c0,12,9.7,21.7,21.7,21.7c12,0,21.7-9.7,21.7-21.7
	c0-8.7-5.2-16.2-12.7-19.7c0-4.7-1.5-15.5-11.5-23c-4.7-3.5-11.5-4.7-18.7-6c-7-1.2-15-2.7-18-6.2c-5.7-6.7-3.5-13-3.2-13.5
	l-0.7-0.2c13-6.2,23.5-16.7,29.7-29.7l0.2,0.7c0,0,6.5-2.5,13.5,3.2c3.5,3,5,11,6.2,18c1.2,7.2,2.5,14,6,18.7
	c7.7,10.2,18.2,11.5,23,11.5c3.5,7.5,11,12.7,19.7,12.7c12,0,21.7-9.7,21.7-21.7C339.6,250,330.1,240.1,318.1,240.1z M192.1,242.1
	c-28,0-50.9-22.7-50.9-50.9s22.7-50.9,50.9-50.9s50.9,22.7,50.9,50.9S220.1,242.1,192.1,242.1z"/>
<circle class="st1" cx="192.1" cy="191.1" r="33.2"/>
<g>
	<path class="st0" d="M313.6,159.2c0-4.5,3.2-7.2,7.2-7.2c3.7,0,7.2,2.7,7.2,7.2v64.6c0,4.5-3.2,7.2-7.2,7.2c-3.7,0-7.2-2.7-7.2-7.2
		V159.2z"/>
	<path class="st0" d="M340.1,178.7c0-5.2,2.5-7.7,6.5-7.7c4,0,6.5,2.5,6.5,7.5h0.2c2.2-5,7.2-7.5,12.2-7.5c7.2,0,12.5,4.5,12.5,14.2
		v38.2c0,5.2-2.5,7.7-6.5,7.7c-4,0-6.5-2.5-6.5-7.7v-35.2c0-4.2-2.2-6-5-6c-4.2,0-6.7,3-6.7,10.2v30.9c0,5.2-2.5,7.7-6.5,7.7
		s-6.5-2.5-6.5-7.7L340.1,178.7L340.1,178.7z"/>
	<path class="st0" d="M386.5,179.7c-0.2-1.2-0.5-2-0.5-3c0-3.7,3.2-6,6.5-6c4.2,0,6.5,2,7.2,6.7l6.7,37.7h0.2l6.5-37.7
		c0.7-4.2,2.2-6.7,6.7-6.7c4.5,0,6.5,2.7,6.5,5.5c0,1.5-0.2,2.7-0.7,4.5l-10.5,44.4c-1,3.7-2.7,5.7-9.2,5.7c-7,0-8.5-2.7-9.7-8.2
		L386.5,179.7z"/>
	<path class="st0" d="M432,194.9c0-14.7,2.2-24.2,19.7-24.2c13.5,0,18,7.5,18,22.7c0,5.2-0.7,9.2-7.2,9.2h-17v5.7
		c0,7,0.5,12.2,5.7,12.2c2.7,0,5-2.7,5-6c0.2-5.7,2.7-7,6.5-7c3.7,0,6.5,1.2,6.5,6.5c0,10.5-7.2,16.7-17.7,16.7
		c-17.7,0-19.7-9.5-19.7-24.2L432,194.9L432,194.9z M456.7,193.6v-4.7c0-4.2-1.5-7.7-5.7-7.7c-4.2,0-5.7,3.5-5.7,7.7v4.7H456.7z"/>
	<path class="st0" d="M485.6,201.6c-7.5-5.5-8.7-9.2-8.7-15.2c0-10.5,7.2-15.5,17.7-15.5c13.7,0,17.5,9.5,17.5,14.2
		c0,3.7-1.5,6.5-6.7,6.5c-3.5,0-5-1.7-5.2-5c-0.2-4-2.2-5.7-5.7-5.7c-2.7,0-4.5,1.7-4.5,4.5c0,2,0.7,4,2.7,5.5l8,6
		c8,6,12.2,10,12.2,17.7c0,11.2-8.2,17-18.7,17c-14,0-18-9.2-18-15.7c0-5,3-6.5,6.2-6.5c4.7,0,6.5,2.5,6.7,8
		c0.2,2.5,1.5,4.7,5.7,4.7c3.5,0,5-2,5-5.2c0-2.7-1-4.5-4.5-7.2L485.6,201.6z"/>
	<path class="st0" d="M523.6,181.9h-1.5c-3.7,0-5.7-1.2-5.7-4.7s2-5,5.7-5h1.5v-10c0-5.2,2.5-7.7,6.5-7.7s6.5,2.5,6.5,7.7v10h3
		c3.7,0,5.7,1.2,5.7,5c0,3.5-2,4.7-5.7,4.7h-3v33.7c0,2.5,0.5,3.7,3.5,4c3,0,4.7,1.2,4.7,4.5c0,4.2-2.7,6-8.2,6
		c-10,0-13-5.2-13-10.7L523.6,181.9L523.6,181.9z"/>
	<path class="st0" d="M556.7,151.5c4.2,0,7.5,3.2,7.5,7.5s-3.2,7.5-7.5,7.5s-7.5-3.2-7.5-7.5S552.5,151.5,556.7,151.5z M550.3,178.7
		c0-5.2,2.5-7.7,6.5-7.7s6.5,2.5,6.5,7.7v44.7c0,5.2-2.5,7.7-6.5,7.7s-6.5-2.5-6.5-7.7V178.7z"/>
	<path class="st0" d="M574,192.4c0-11,2.7-21.5,13.7-21.5c5,0,10,2.7,12,7.7h0.2c0-5.2,2.2-7.7,6.5-7.7c3.5,0,6.2,2.5,6.2,7.7v54.4
		c0,13-6.5,18.7-19.5,18.7c-9.7,0-17-3.2-17-10.7c0-3.5,2.7-5.7,6.5-5.7c3,0,5,1.7,5.7,3.7c1,2.5,2.7,3.5,4.5,3.5
		c5.7,0,6.7-3.5,6.7-11.5v-8h-0.2c-3,5.2-6,6.5-11.5,6.5c-11.7,0-13.7-10.7-13.7-22.5v-14.7L574,192.4z M587.4,203.4
		c0,12.7,1.2,16.2,5.5,16.2c3,0,6.5-2.2,6.5-14v-10c0-11.5-3.7-14-6.2-14c-3.5,0-5.7,3.2-5.7,12.7L587.4,203.4L587.4,203.4z"/>
	<path class="st1" d="M636.9,210.6l-2.7,13.7c-1,4.7-2.7,6.7-7.5,6.7c-4.2,0-6.7-2.5-6.7-6.2c0-1.2,0.2-3.7,0.7-5.7l13.5-57.2
		c1.7-7.7,3.7-10,11.7-10c7.2,0,10,2.2,11.7,10l13.5,56.9c0.5,2.2,1,4.7,1,5.7c0,4.7-3.5,6.5-7,6.5c-5.2,0-7.2-2.2-8.5-9.2
		l-2.2-11.2H636.9z M652.3,199.4l-6.2-31.7h-0.2l-6.5,31.7H652.3z"/>
	<path class="st1" d="M679.5,177.9c0-4.2,1.7-7,6-7s6,2.7,6,7v5.5h0.2c2-7.2,5.2-12.5,9.7-12.5c3.5,0,6.5,2.5,6.5,8.5
		c0,4-2,7.7-8,7.7c-4,0-7.2,2.7-7.2,8v28.5c0,5.2-2.5,7.7-6.5,7.7c-4,0-6.5-2.5-6.5-7.7L679.5,177.9L679.5,177.9z"/>
</g>
<path class="st2" d="M318.1,111.3c5,0,9.2,4.2,9.2,9.2s-4.2,9.2-9.2,9.2s-9.2-4.2-9.2-9.2C308.9,115.5,313.1,111.3,318.1,111.3z"/>
<path class="st2" d="M253.5,65.1c0-5,4.2-9.2,9.2-9.2c5,0,9.2,4.2,9.2,9.2s-4.2,9.2-9.2,9.2C257.5,74.3,253.5,70.3,253.5,65.1z"/>
<path class="st2" d="M121.5,55.9c5,0,9.2,4.2,9.2,9.2s-4.2,9.2-9.2,9.2s-9.2-4-9.2-9.2C112.2,60.1,116.5,55.9,121.5,55.9z"/>
<path class="st2" d="M66.1,130c-5,0-9.2-4.2-9.2-9.2s4.2-9.2,9.2-9.2s9.2,4.2,9.2,9.2S71,130,66.1,130z"/>
<path class="st2" d="M66.1,271c-5,0-9.2-4.2-9.2-9.2c0-5,4.2-9.2,9.2-9.2s9.2,4.2,9.2,9.2C75.3,266.8,71,271,66.1,271z"/>
<path class="st2" d="M130.7,317.4c0,5-4.2,9.2-9.2,9.2s-9.2-4.2-9.2-9.2c0-5,4.2-9.2,9.2-9.2S130.7,312.2,130.7,317.4z"/>
<path class="st2" d="M262.7,326.7c-5,0-9.2-4.2-9.2-9.2c0-5,4.2-9.2,9.2-9.2c5,0,9.2,4.2,9.2,9.2C272,322.4,267.7,326.7,262.7,326.7
	z"/>
<path class="st2" d="M318.1,271c-5,0-9.2-4.2-9.2-9.2c0-5,4.2-9.2,9.2-9.2s9.2,4.2,9.2,9.2C327.4,266.8,323.4,271,318.1,271z"/>
</svg>
