<?xml version="1.0" encoding="utf-8"?>
<!-- Generator: Adobe Illustrator 21.0.0, SVG Export Plug-In . SVG Version: 6.00 Build 0)  -->
<svg version="1.1" id="Capa_1" xmlns="http://www.w3.org/2000/svg" xmlns:xlink="http://www.w3.org/1999/xlink" x="0px" y="0px"
	 viewBox="0 0 299.8 298.5" style="enable-background:new 0 0 299.8 298.5;" xml:space="preserve">
<style type="text/css">
	.st0{fill:#FFFFFF;}
</style>
<g>
	<g>
		<g>
			<path class="st0" d="M47.2,33.3c0.1,0,0.2,0.1,0.2,0.2v0.9c0,0.1-0.1,0.2-0.2,0.2l-3.1,0.3c-0.1,0-0.2,0.1-0.2,0.2v20.8
				c0,0.1,0.1,0.2,0.2,0.2l3.1,0.3c0.1,0,0.2,0.1,0.2,0.2v0.9c0,0.1-0.1,0.2-0.2,0.2h-9.8c-0.1,0-0.2-0.1-0.2-0.2v-0.9
				c0-0.1,0.1-0.2,0.2-0.2l3.1-0.3c0.1,0,0.2-0.1,0.2-0.2V35.1c0-0.1-0.1-0.2-0.2-0.2l-3.1-0.3c-0.1,0-0.2-0.1-0.2-0.2v-0.9
				c0-0.1,0.1-0.2,0.2-0.2H47.2z"/>
			<path class="st0" d="M106.2,33.3c3,0,5.1,0.3,6.4,1c0.9,0.5,1.5,1,1.9,1.7c0.5,0.8,0.8,1.8,0.8,2.9c0,2.5-1.5,4.3-4.5,5.4
				c1.7,0.4,3.1,1.1,4.2,2.2c1.2,1.2,1.8,2.6,1.8,4.3c0,1.3-0.4,2.6-1.2,3.7c-1.4,2.1-4.3,3.2-8.7,3.2h-9.3c-0.1,0-0.2-0.1-0.2-0.2
				v-0.9c0-0.1,0.1-0.2,0.2-0.2l3.1-0.3c0.1,0,0.2-0.1,0.2-0.2V35.1c0-0.1-0.1-0.2-0.2-0.2l-3.1-0.3c-0.1,0-0.2-0.1-0.2-0.2v-0.9
				c0-0.1,0.1-0.2,0.2-0.2H106.2z M104.2,43.8c0,0.1,0.1,0.2,0.2,0.2h1.1c2,0,3.5-0.3,4.5-0.9c1.3-0.8,2-2.1,2-3.8
				c0-1.4-0.5-2.5-1.4-3.2c-0.9-0.7-2-1-3.4-1.1l-1.4-0.1h-1.4c-0.1,0-0.2,0.1-0.2,0.2V43.8z M104.2,55.8c0,0.1,0.1,0.2,0.2,0.2h2.3
				c4.4,0,6.6-1.6,6.6-4.9c0-3.9-2.4-5.8-7.3-5.8h-1.6c-0.1,0-0.2,0.1-0.2,0.2V55.8z"/>
			<path class="st0" d="M180.9,32.7c0.4,0,0.9,0,1.5,0.1c0.6,0.1,1.1,0.1,1.7,0.2c0.6,0.1,1.1,0.2,1.7,0.3c0.6,0.1,1,0.2,1.4,0.3
				c0.1,0,0.2,0.1,0.2,0.2v5.5c0,0.1-0.1,0.2-0.2,0.2h-1.4c-0.1,0-0.1,0-0.1,0c0,0-0.1-0.1-0.1-0.1l-0.7-4.1c0-0.1,0-0.1-0.1-0.2
				c-0.2,0-0.5-0.1-0.8-0.2c-0.3-0.1-0.7-0.2-1-0.2c-0.4-0.1-0.7-0.1-1.1-0.2c-0.4,0-0.7-0.1-1.1-0.1c-1.6,0-3.1,0.2-4.3,0.7
				c-1.3,0.5-2.3,1.2-3.2,2.1c-0.9,0.9-1.5,2-2,3.3c-0.5,1.3-0.7,2.7-0.7,4.2c0,1.6,0.2,3.1,0.7,4.5c0.5,1.4,1.2,2.7,2,3.8
				c0.9,1.1,1.9,1.9,3.2,2.6c1.2,0.6,2.6,0.9,4.1,0.9c0.3,0,0.6,0,1,0c0.4,0,0.8-0.1,1.1-0.1c0.4,0,0.7-0.1,1.1-0.2
				c0.4-0.1,0.7-0.2,0.9-0.3c0.1-0.1,0.1-0.1,0.1-0.2l0.7-4.1c0,0,0-0.1,0.1-0.1c0,0,0.1-0.1,0.1-0.1h1.4c0.1,0,0.2,0.1,0.2,0.2V57
				c0,0.1-0.1,0.1-0.2,0.2c-0.4,0.1-0.9,0.2-1.3,0.3c-0.5,0.1-1,0.2-1.6,0.3c-0.6,0.1-1.2,0.2-1.9,0.2c-0.7,0.1-1.4,0.1-2.2,0.1
				c-1.3,0-2.6-0.1-3.8-0.4c-1.2-0.3-2.2-0.7-3.2-1.3c-1-0.5-1.9-1.2-2.6-2c-0.8-0.8-1.4-1.6-1.9-2.5c-0.5-0.9-0.9-1.9-1.2-3
				c-0.3-1.1-0.4-2.2-0.4-3.4c0-1.4,0.2-2.6,0.5-3.8c0.3-1.2,0.8-2.2,1.4-3.2c0.6-1,1.4-1.8,2.2-2.5c0.8-0.7,1.8-1.3,2.8-1.8
				c1-0.5,2.1-0.9,3.3-1.1C178.4,32.9,179.6,32.7,180.9,32.7z"/>
			<path class="st0" d="M237.4,33.5c0-0.1,0.1-0.2,0.2-0.2h6.4c0.1,0,0.1,0,0.1,0.1l13.5,17.8V35.2c0-0.1-0.1-0.2-0.2-0.2l-2.7-0.3
				c-0.1,0-0.2-0.1-0.2-0.2v-1.1c0-0.1,0.1-0.2,0.2-0.2h7.6c0.1,0,0.2,0.1,0.2,0.2v1.1c0,0.1-0.1,0.2-0.2,0.2l-2.7,0.3
				c-0.1,0-0.2,0.1-0.2,0.2v22.6c0,0.1-0.1,0.2-0.2,0.2h-0.7c-0.1,0-0.1,0-0.2-0.1l-15.7-20.7v18.6c0,0.1,0,0.2,0.1,0.2l2.7,0.3
				c0.1,0,0.2,0.1,0.2,0.2v1.1c0,0.1-0.1,0.2-0.2,0.2h-7.6c-0.1,0-0.2-0.1-0.2-0.2v-1.1c0-0.1,0.1-0.2,0.2-0.2l2.8-0.3
				c0.1,0,0.2-0.1,0.2-0.2V35.2c0-0.1-0.1-0.2-0.2-0.2l-3.1-0.3c-0.1,0-0.2-0.1-0.2-0.2V33.5z"/>
		</g>
	</g>
	<g>
		<path class="st0" d="M148.8,235.9c3.3,0,5.6,0.3,7,1c0.9,0.5,1.6,1,2.1,1.7c0.6,0.8,0.8,1.8,0.8,2.9c0,2.5-1.6,4.3-4.9,5.4
			c1.9,0.4,3.4,1.1,4.6,2.2c1.3,1.2,2,2.6,2,4.3c0,1.3-0.4,2.6-1.3,3.7c-1.6,2.1-4.7,3.2-9.4,3.2h-10.2c-0.1,0-0.2-0.1-0.2-0.2v-0.9
			c0-0.1,0.1-0.2,0.2-0.2l3.4-0.3c0.1,0,0.2-0.1,0.2-0.2v-20.8c0-0.1-0.1-0.2-0.2-0.2l-3.4-0.3c-0.1,0-0.2-0.1-0.2-0.2v-0.9
			c0-0.1,0.1-0.2,0.2-0.2H148.8z M146.6,246.4c0,0.1,0.1,0.2,0.2,0.2h1.2c2.2,0,3.8-0.3,4.9-0.9c1.5-0.8,2.2-2.1,2.2-3.8
			c0-1.4-0.5-2.5-1.6-3.2c-1-0.7-2.2-1-3.7-1.1l-1.5-0.1h-1.5c-0.1,0-0.2,0.1-0.2,0.2V246.4z M146.6,258.5c0,0.1,0.1,0.2,0.2,0.2
			h2.5c4.8,0,7.1-1.6,7.1-4.9c0-3.9-2.6-5.8-7.9-5.8h-1.7c-0.1,0-0.2,0.1-0.2,0.2V258.5z"/>
		<g>
			<path class="st0" d="M40.6,237.7c0-0.1-0.1-0.2-0.2-0.2l-3.3-0.3c-0.1,0-0.2-0.1-0.2-0.2v-0.9c0-0.1,0.1-0.2,0.2-0.2h10.8
				c0.1,0,0.2,0.1,0.2,0.2v0.9c0,0.1-0.1,0.2-0.2,0.2l-3.6,0.3c-0.1,0-0.2,0.1-0.2,0.2v13.1c0,1.8,0.1,3.2,0.3,4.2
				c0.2,0.8,0.5,1.4,1,1.9c1.4,1.4,3.4,2.2,6,2.2c2.8,0,4.9-1,6.3-3c0.4-0.6,0.7-1.6,0.9-3c0.1-0.7,0.1-1.6,0.1-2.7v-12.7
				c0-0.1-0.1-0.2-0.2-0.2l-3.4-0.3c-0.1,0-0.2-0.1-0.2-0.2v-0.9c0-0.1,0.1-0.2,0.2-0.2h9.2c0.1,0,0.2,0.1,0.2,0.2v0.9
				c0,0.1-0.1,0.2-0.2,0.2l-3.3,0.3c-0.1,0-0.2,0.1-0.2,0.2v12.5c0,4-0.9,6.7-2.7,8.3c-1.7,1.5-4.2,2.3-7.3,2.3
				c-3.6,0-6.2-0.8-8-2.4c-0.8-0.7-1.3-1.5-1.6-2.2c-0.4-1-0.6-2.4-0.6-4V237.7z"/>
			<path class="st0" d="M252.5,260.3c-0.1,0-0.2-0.1-0.2-0.2v-0.9c0-0.1,0.1-0.2,0.2-0.2l3.1-0.3c0.1,0,0.1,0,0.2-0.1
				c0,0,0-0.1,0-0.2l-3-7.1c-0.1-0.1-0.1-0.1-0.2-0.1H244c-0.1,0-0.1,0-0.2,0.1l-3.1,7.2c-0.1,0.2,0,0.2,0.2,0.2l3,0.2
				c0.1,0,0.2,0.1,0.2,0.2v0.9c0,0.1-0.1,0.2-0.2,0.2h-8.6c-0.1,0-0.2-0.1-0.2-0.2v-0.9c0-0.1,0.1-0.2,0.2-0.2l3.3-0.3
				c0.1,0,0.1,0,0.2-0.1l10.1-23.2c0.1-0.1,0.1-0.1,0.2-0.1h1c0.1,0,0.1,0,0.2,0.1l9.3,23.1c0,0.1,0.1,0.1,0.2,0.1l3.2,0.3
				c0.1,0,0.2,0.1,0.2,0.2v0.9c0,0.1-0.1,0.2-0.2,0.2H252.5z M248.6,240.8c-0.1-0.1-0.1-0.1-0.2-0.1c-0.1,0-0.1,0-0.2,0.1l-3.7,8.7
				c-0.1,0.2,0,0.2,0.2,0.2h7.2c0.2,0,0.3-0.1,0.2-0.2L248.6,240.8z"/>
		</g>
	</g>
	<g>
		<path class="st0" d="M53.2,167.5c0.4,0,0.9,0,1.5,0.1c0.6,0.1,1.1,0.1,1.7,0.2c0.6,0.1,1.1,0.2,1.7,0.3c0.6,0.1,1,0.2,1.4,0.3
			c0.1,0,0.2,0.1,0.2,0.2v5.5c0,0.1-0.1,0.2-0.2,0.2h-1.4c-0.1,0-0.1,0-0.1,0c0,0-0.1-0.1-0.1-0.1l-0.7-4.1c0-0.1,0-0.1-0.1-0.2
			c-0.2,0-0.5-0.1-0.8-0.2c-0.3-0.1-0.7-0.2-1-0.2c-0.4-0.1-0.7-0.1-1.1-0.2c-0.4,0-0.7-0.1-1.1-0.1c-1.6,0-3.1,0.2-4.3,0.7
			c-1.3,0.5-2.3,1.2-3.2,2.1c-0.9,0.9-1.5,2-2,3.3c-0.5,1.3-0.7,2.7-0.7,4.2c0,1.6,0.2,3.1,0.7,4.5c0.5,1.4,1.2,2.7,2,3.8
			c0.9,1.1,1.9,1.9,3.2,2.6c1.2,0.6,2.6,0.9,4.1,0.9c0.3,0,0.6,0,1,0c0.4,0,0.8-0.1,1.1-0.1c0.4,0,0.7-0.1,1.1-0.2
			c0.4-0.1,0.7-0.2,0.9-0.3c0.1-0.1,0.1-0.1,0.1-0.2l0.7-4.1c0,0,0-0.1,0.1-0.1c0,0,0.1-0.1,0.1-0.1h1.4c0.1,0,0.2,0.1,0.2,0.2v5.5
			c0,0.1-0.1,0.1-0.2,0.2c-0.4,0.1-0.9,0.2-1.3,0.3c-0.5,0.1-1,0.2-1.6,0.3c-0.6,0.1-1.2,0.2-1.9,0.2c-0.7,0.1-1.4,0.1-2.2,0.1
			c-1.3,0-2.6-0.1-3.8-0.4c-1.2-0.3-2.2-0.7-3.2-1.3c-1-0.5-1.9-1.2-2.6-2c-0.8-0.8-1.4-1.6-1.9-2.5c-0.5-0.9-0.9-1.9-1.2-3
			c-0.3-1.1-0.4-2.2-0.4-3.4c0-1.4,0.2-2.6,0.5-3.8c0.3-1.2,0.8-2.2,1.4-3.2c0.6-1,1.4-1.8,2.2-2.5c0.8-0.7,1.8-1.3,2.8-1.8
			c1-0.5,2.1-0.9,3.3-1.1C50.8,167.7,52,167.5,53.2,167.5z"/>
		<path class="st0" d="M86.5,167.5c3.7,0,6.7,1.2,8.9,3.6c2.2,2.3,3.3,5.4,3.3,9c0,3.7-1.1,6.7-3.4,9.1c-2.3,2.5-5.3,3.7-8.9,3.7
			c-3.7,0-6.7-1.2-9-3.6c-2.4-2.4-3.5-5.4-3.5-9.1c0-3.7,1.2-6.7,3.5-9.1C79.7,168.8,82.8,167.5,86.5,167.5z M86,169.2
			c-2.7,0-4.9,1.1-6.5,3.2c-1.4,1.9-2.1,4.3-2.1,7.1c0,2,0.3,3.9,1,5.6c0.8,1.9,1.9,3.4,3.4,4.6c1.5,1.1,3.2,1.7,5.1,1.7
			c2.7,0,4.9-1.1,6.3-3.3c1.3-1.9,1.9-4.3,1.9-7.1c0-3.2-0.8-5.9-2.4-8.2C91.1,170.4,88.8,169.2,86,169.2z"/>
		<path class="st0" d="M111.8,168.3c0-0.1,0.1-0.2,0.2-0.2h6.4c0.1,0,0.1,0,0.1,0.1l13.5,17.8V170c0-0.1-0.1-0.2-0.2-0.2l-2.7-0.3
			c-0.1,0-0.2-0.1-0.2-0.2v-1.1c0-0.1,0.1-0.2,0.2-0.2h7.6c0.1,0,0.2,0.1,0.2,0.2v1.1c0,0.1-0.1,0.2-0.2,0.2l-2.7,0.3
			c-0.1,0-0.2,0.1-0.2,0.2v22.6c0,0.1-0.1,0.2-0.2,0.2H133c-0.1,0-0.1,0-0.2-0.1L117.1,172v18.6c0,0.1,0,0.2,0.1,0.2l2.7,0.3
			c0.1,0,0.2,0.1,0.2,0.2v1.1c0,0.1-0.1,0.2-0.2,0.2h-7.6c-0.1,0-0.2-0.1-0.2-0.2v-1.1c0-0.1,0.1-0.2,0.2-0.2l2.8-0.3
			c0.1,0,0.2-0.1,0.2-0.2V170c0-0.1-0.1-0.2-0.2-0.2l-3.1-0.3c-0.1,0-0.2-0.1-0.2-0.2V168.3z"/>
		<path class="st0" d="M159.9,168.1c0.1,0,0.2,0.1,0.2,0.2v0.9c0,0.1-0.1,0.2-0.2,0.2l-3.1,0.3c-0.1,0-0.2,0.1-0.2,0.2v20.8
			c0,0.1,0.1,0.2,0.2,0.2l3.1,0.3c0.1,0,0.2,0.1,0.2,0.2v0.9c0,0.1-0.1,0.2-0.2,0.2H150c-0.1,0-0.2-0.1-0.2-0.2v-0.9
			c0-0.1,0.1-0.2,0.2-0.2l3.1-0.3c0.1,0,0.2-0.1,0.2-0.2v-20.8c0-0.1-0.1-0.2-0.2-0.2l-3.1-0.3c-0.1,0-0.2-0.1-0.2-0.2v-0.9
			c0-0.1,0.1-0.2,0.2-0.2H159.9z"/>
		<path class="st0" d="M187.6,167.5c0.4,0,0.9,0,1.5,0.1c0.6,0.1,1.1,0.1,1.7,0.2c0.6,0.1,1.1,0.2,1.7,0.3c0.6,0.1,1,0.2,1.4,0.3
			c0.1,0,0.2,0.1,0.2,0.2v5.5c0,0.1-0.1,0.2-0.2,0.2h-1.4c-0.1,0-0.1,0-0.1,0c0,0-0.1-0.1-0.1-0.1l-0.7-4.1c0-0.1,0-0.1-0.1-0.2
			c-0.2,0-0.5-0.1-0.8-0.2c-0.3-0.1-0.7-0.2-1-0.2c-0.4-0.1-0.7-0.1-1.1-0.2c-0.4,0-0.7-0.1-1.1-0.1c-1.6,0-3.1,0.2-4.3,0.7
			c-1.3,0.5-2.3,1.2-3.2,2.1c-0.9,0.9-1.5,2-2,3.3c-0.5,1.3-0.7,2.7-0.7,4.2c0,1.6,0.2,3.1,0.7,4.5c0.5,1.4,1.2,2.7,2,3.8
			c0.9,1.1,1.9,1.9,3.2,2.6c1.2,0.6,2.6,0.9,4.1,0.9c0.3,0,0.6,0,1,0s0.8-0.1,1.1-0.1c0.4,0,0.7-0.1,1.1-0.2
			c0.4-0.1,0.7-0.2,0.9-0.3c0.1-0.1,0.1-0.1,0.1-0.2l0.7-4.1c0,0,0-0.1,0.1-0.1c0,0,0.1-0.1,0.1-0.1h1.4c0.1,0,0.2,0.1,0.2,0.2v5.5
			c0,0.1-0.1,0.1-0.2,0.2c-0.4,0.1-0.9,0.2-1.3,0.3c-0.5,0.1-1,0.2-1.6,0.3c-0.6,0.1-1.2,0.2-1.9,0.2c-0.7,0.1-1.4,0.1-2.2,0.1
			c-1.3,0-2.6-0.1-3.8-0.4c-1.2-0.3-2.2-0.7-3.2-1.3c-1-0.5-1.9-1.2-2.6-2s-1.4-1.6-1.9-2.5c-0.5-0.9-0.9-1.9-1.2-3
			c-0.3-1.1-0.4-2.2-0.4-3.4c0-1.4,0.2-2.6,0.5-3.8c0.3-1.2,0.8-2.2,1.4-3.2c0.6-1,1.4-1.8,2.2-2.5c0.8-0.7,1.8-1.3,2.8-1.8
			c1-0.5,2.1-0.9,3.3-1.1C185.2,167.7,186.4,167.5,187.6,167.5z"/>
		<path class="st0" d="M225.9,168.1c0.1,0,0.2,0.1,0.2,0.2v5.7c0,0.1-0.1,0.2-0.2,0.2h-1.4c-0.1,0-0.2,0-0.2-0.1l-0.7-4.1
			c0-0.1-0.1-0.1-0.2-0.1h-8.4c-0.1,0-0.2,0.1-0.2,0.2v8.9c0,0.1,0.1,0.2,0.2,0.2h5c0.1,0,0.2,0,0.2-0.1l0.4-2.9
			c0-0.1,0.1-0.1,0.2-0.1h1c0.1,0,0.2,0.1,0.2,0.2v7.9c0,0.1-0.1,0.2-0.2,0.2h-1c-0.1,0-0.2,0-0.2-0.1l-0.4-3.1
			c0-0.1-0.1-0.2-0.2-0.2h-5c-0.1,0-0.2,0.1-0.2,0.2v9.8c0,0.1,0.1,0.2,0.2,0.2h8.9c0.1,0,0.2,0,0.2-0.1l0.7-4
			c0-0.1,0.1-0.1,0.2-0.1h1.4c0.1,0,0.2,0.1,0.2,0.2v5.6c0,0.1-0.1,0.2-0.2,0.2h-18c-0.1,0-0.2-0.1-0.2-0.2v-0.9
			c0-0.1,0.1-0.2,0.2-0.2l3.1-0.3c0.1,0,0.2-0.1,0.2-0.2v-20.9c0-0.1-0.1-0.1-0.2-0.1l-3.1-0.3c-0.1,0-0.2-0.1-0.2-0.2v-0.9
			c0-0.1,0.1-0.2,0.2-0.2H225.9z"/>
		<path class="st0" d="M260.3,168.1c0.1,0,0.2,0.1,0.2,0.2v5.7c0,0.1-0.1,0.2-0.2,0.2h-1.4c-0.1,0-0.2,0-0.2-0.1l-0.7-4.1
			c0-0.1-0.1-0.1-0.2-0.1h-5.9c-0.1,0-0.1,0.1-0.1,0.2v20.8c0,0.1,0.1,0.2,0.2,0.2l3.5,0.3c0.1,0,0.2,0.1,0.2,0.2v0.9
			c0,0.1-0.1,0.2-0.2,0.2h-10.5c-0.1,0-0.2-0.1-0.2-0.2v-0.9c0-0.1,0.1-0.2,0.2-0.2l3.5-0.3c0.1,0,0.2-0.1,0.2-0.2v-20.8
			c0-0.1,0-0.2-0.1-0.2h-5.9c-0.1,0-0.2,0-0.2,0.1l-0.7,4.1c0,0.1-0.1,0.1-0.2,0.1h-1.4c-0.1,0-0.2-0.1-0.2-0.2v-5.7
			c0-0.1,0.1-0.2,0.2-0.2H260.3z"/>
	</g>
	<rect x="34.9" y="213.8" class="st0" width="230" height="2.1"/>
	<g>
		<g>
			<path class="st0" d="M36.1,105.8c0,0,9.7-24.6,48.2-24.6c49.6,0,98.1,64.5,152.2,55.5c0,0-8.3,15.3-43.3,12.6
				c-28-1-46.4-7.3-65.9-21.3C92.6,103.1,56,81.4,36.1,105.8z"/>
			<path class="st0" d="M251.7,113.5l12.5-16.6c0,0-27-20.1-56.8-18.7s-41.9,12.5-57.2,25.7c5.2,3.1,5.2,3.1,5.2,3.1
				s20-18,51.8-11.1C240.9,103.1,251.7,113.5,251.7,113.5z"/>
			<path class="st0" d="M44.7,103.1c0,0-11.4,5.9-8.7,20.1c3.1,15.9,24.3,24.3,46.4,23.3s42.3-17.4,42.3-17.4l-5.5-1.4
				c0,0-15,13.8-41.3,10.1C53.7,134.3,43.3,119,44.7,103.1z"/>
		</g>
		<g>
			<path class="st0" d="M217.2,134.9c0,0,13.8-1.4,20.6-2.1c0,0,0-0.1,0-0.1c-6.9-0.7-13.8-1.4-20.7-2c0,0,0,0,0-0.1
				c6.4-2.6,12.9-5.2,19.3-7.8c0,0,0-0.1,0-0.1c-6.8,1.3-13.6,2.6-20.4,3.9c0,0,0-0.1,0-0.1c5.4-4.3,10.9-8.6,16.3-12.9
				c0,0,0-0.1-0.1-0.1c-6.2,3.2-12.4,6.3-18.5,9.5c0,0,0,0-0.1-0.1c4-5.6,8-11.3,12-16.9c0,0-0.1-0.1-0.1-0.1
				c-5,4.8-10.1,9.5-15.1,14.3c0,0,0,0-0.1-0.1c2.3-6.6,4.5-13.1,6.8-19.7c0,0-0.1,0-0.1,0c-3.5,6-6.9,12-10.4,18c0,0-0.1,0-0.1,0
				c0.3-6.9,0.6-13.8,0.9-20.7c0,0-0.1,0-0.1,0c-1.6,6.7-3.3,13.4-4.9,20.2c0,0-0.1,0-0.1,0c-1.6-6.7-3.3-13.5-4.9-20.2
				c0,0-0.1,0-0.1,0c0.3,6.9,0.6,13.9,0.9,20.8c0,0,0,0-0.1,0c-3.5-6-7-12-10.5-18c0,0-0.1,0-0.1,0.1c2.3,6.6,4.5,13.1,6.8,19.7
				c0,0-0.1,0-0.1,0c-5-4.8-10.1-9.5-15.1-14.3c0,0-0.1,0.1-0.1,0.1c4,5.6,8,11.3,12,16.9c0,0,0,0-0.1,0.1
				c-6.2-3.2-12.3-6.3-18.5-9.5c0,0,0,0.1-0.1,0.1c5.4,4.3,10.7,8.9,16.3,12.9c2.6,1.6,7.9,3.6,12.1,5.1
				C206.1,133.4,213.8,135,217.2,134.9z"/>
		</g>
	</g>
</g>
<g>
	<polygon class="st0" points="2187.6,147.7 2166.4,147.7 2157.7,160.5 2168.3,176 	"/>
	<polygon class="st0" points="2157.7,198.5 2166.4,211.3 2187.6,211.3 2168.3,182.9 	"/>
	<polygon class="st0" points="2154.9,164.6 2143.4,147.7 2122.3,147.7 2143.9,179.5 2122.3,211.3 2143.4,211.3 2154.9,194.4 
		2165,179.5 	"/>
	<path class="st0" d="M2133.7,180.2c0-0.2,0-0.5,0-0.7v-6.7l-16.9-24.9V180c-0.3,8-6.8,14.3-14.9,14.3c-8.1,0-14.6-6.4-14.8-14.4
		c0,0,0,0,0,0v-16.5c0-8.7-7.1-15.8-15.8-15.8h-1.2v33.8c0,0.1,0,0.2,0,0.5c1.3,16.4,15.1,29.3,31.8,29.3
		C2119.2,211.3,2133.3,197.4,2133.7,180.2z"/>
	<path class="st0" d="M2060.7,193.3c-8.2,0-14.9-6.6-14.9-14.8v-15h20.8v-15.8h-20.8v-15.4h-1.2c-8.6,0-15.6,6.9-15.7,15.4h-5.3
		v15.8h5.3v15.9c0,0.2,0,0.5,0,0.7c0.8,16.8,14.8,30.2,31.8,30.2c6.2,0,11.9-1.8,16.8-4.8c-4-4-7.2-8.8-9-14.3
		C2066.2,192.5,2063.6,193.3,2060.7,193.3z"/>
	<path class="st0" d="M2223.4,148v3.4c0,0,0,0,0,0v27.2c0,0.3,0,0.6,0,0.9c0,8.2-6.7,14.9-14.9,14.9s-14.9-6.7-14.9-14.9
		c0-8.2,6.7-14.9,14.9-14.9c3.9,0,6.6,0.1,10.2,0.1v-17c-3.4,0-6.6,0-10.2,0c-17.6,0-31.8,14.2-31.8,31.8s14.2,31.8,31.8,31.8
		c17.5,0,31.7-14.2,31.8-31.6c0,0,0,0,0,0v-47.3h-1.2C2230.5,132.3,2223.4,139.3,2223.4,148z"/>
	<path class="st0" d="M2244.3,132.3v15.4h16.9C2260.4,139.1,2253.1,132.3,2244.3,132.3z"/>
	<path class="st0" d="M2244.3,150.4v60.8c9.4,0,16.9-7.6,16.9-16.9v-43.9H2244.3z"/>
</g>
</svg>
