<svg width="71" height="70" viewBox="0 0 71 70" fill="none" xmlns="http://www.w3.org/2000/svg">
<path d="M6.07904 31.4032C6.07904 30.479 6.68273 29.8557 7.6266 29.8557C8.57047 29.8557 9.17416 30.479 9.17416 31.4032V42.3876C9.17416 43.3118 8.57047 43.9371 7.6266 43.9371C6.68273 43.9371 6.07904 43.3118 6.07904 42.3876V31.4032Z" fill="white"/>
<path d="M11.9897 31.6671C11.9897 30.3831 12.613 29.8561 13.9344 29.8561C14.5755 29.8561 15.1418 30.0999 15.48 30.6662L20.8975 39.4049H20.9348V31.3466C20.9348 30.3457 21.5011 29.8561 22.4273 29.8561C23.3515 29.8561 23.9179 30.3457 23.9179 31.3466V42.0104C23.9179 43.2375 23.3889 43.9355 22.0871 43.9355C21.1059 43.9355 20.7854 43.7271 20.3882 43.1037L15.01 34.6109H14.9727V42.443C14.9727 43.4439 14.4064 43.9355 13.4802 43.9355C12.556 43.9355 11.9897 43.4439 11.9897 42.443V31.6671Z" fill="white"/>
<path d="M26.7397 31.4032C26.7397 30.479 27.3433 29.8557 28.2872 29.8557C29.2311 29.8557 29.8348 30.479 29.8348 31.4032V42.3876C29.8348 43.3118 29.2311 43.9371 28.2872 43.9371C27.3433 43.9371 26.7397 43.3118 26.7397 42.3876V31.4032Z" fill="white"/>
<path d="M38.9164 29.7796C42.4638 29.7796 44.4086 32.0075 44.4086 33.3289C44.4086 34.1961 43.9366 34.7251 43.0105 34.7251C41.2191 34.7251 41.7461 32.271 38.9164 32.271C36.9716 32.271 35.367 33.9503 35.367 36.896C35.367 39.3678 36.3502 41.521 39.0305 41.521C41.4629 41.521 41.4078 38.9155 42.8964 38.9155C43.6515 38.9155 44.4086 39.3481 44.4086 40.1032C44.4086 42.0657 42.0292 44.0085 39.0305 44.0085C34.783 44.0085 32.2739 41.576 32.2739 36.896C32.2739 33.0635 34.5372 29.7796 38.9164 29.7796Z" fill="white"/>
<path d="M46.3404 31.4032C46.3404 30.479 46.946 29.8557 47.8879 29.8557C48.8318 29.8557 49.4355 30.479 49.4355 31.4032V42.3876C49.4355 43.3118 48.8318 43.9371 47.8879 43.9371C46.946 43.9371 46.3404 43.3118 46.3404 42.3876V31.4032Z" fill="white"/>
<path d="M58.5748 41.5204C61.3887 41.5204 62.3503 39.3298 62.3503 36.7263C62.3503 34.1208 61.1036 32.2704 58.5748 32.2704C56.046 32.2704 54.7993 34.1208 54.7993 36.7263C54.7993 39.3298 55.6684 41.5204 58.5748 41.5204ZM58.5748 29.779C63.0306 29.779 65.4454 32.7424 65.4454 36.7263C65.4454 40.5569 63.2174 44.0099 58.5748 44.0099C53.704 44.0099 51.7061 40.84 51.7061 36.7263C51.7061 32.7424 54.1209 29.779 58.5748 29.779Z" fill="white"/>
</svg>
