<svg width="71" height="70" viewBox="0 0 71 70" fill="none" xmlns="http://www.w3.org/2000/svg">
<path d="M20.6951 31.9129C20.6951 30.5345 21.4109 30.0999 22.5062 30.0999H29.3198C30.2263 30.0999 30.887 30.3654 30.887 31.3466C30.887 32.3279 30.2263 32.5914 29.3198 32.5914H23.7902V35.7632H28.4703C29.2824 35.7632 29.9235 35.9893 29.9235 36.9528C29.9235 37.9144 29.2824 38.1405 28.4703 38.1405H23.7902V42.388C23.7902 43.3122 23.1866 43.9355 22.2427 43.9355C21.2988 43.9355 20.6951 43.3122 20.6951 42.388V31.9129Z" fill="white"/>
<path d="M32.5165 31.4032C32.5165 30.479 33.1202 29.8557 34.0641 29.8557C35.008 29.8557 35.6117 30.479 35.6117 31.4032V42.3876C35.6117 43.3118 35.008 43.9371 34.0641 43.9371C33.1202 43.9371 32.5165 43.3118 32.5165 42.3876V31.4032Z" fill="white"/>
<path d="M38.4274 31.6671C38.4274 30.3831 39.0507 29.8561 40.3702 29.8561C41.0132 29.8561 41.5795 30.0999 41.9177 30.6662L47.3352 39.4069H47.3725V31.3466C47.3725 30.3457 47.9389 29.8561 48.865 29.8561C49.7873 29.8561 50.3536 30.3457 50.3536 31.3466V42.0104C50.3536 43.2375 49.8266 43.9355 48.5248 43.9355C47.5436 43.9355 47.2231 43.7271 46.8259 43.1037L41.4478 34.6109H41.4104V42.443C41.4104 43.4439 40.8441 43.9355 39.9179 43.9355C38.9937 43.9355 38.4274 43.4439 38.4274 42.443V31.6671Z" fill="white"/>
</svg>
