<?xml version="1.0" encoding="utf-8"?>
<!-- Generator: Adobe Illustrator 21.0.0, SVG Export Plug-In . SVG Version: 6.00 Build 0)  -->
<svg version="1.1" id="Capa_1" xmlns="http://www.w3.org/2000/svg" xmlns:xlink="http://www.w3.org/1999/xlink" x="0px" y="0px"
	 viewBox="0 0 299.8 298.5" style="enable-background:new 0 0 299.8 298.5;" xml:space="preserve">
<style type="text/css">
	.st0{fill:#FFCF04;}
</style>
<g>
	<path class="st0" d="M184,186.1c-1.4-1.9-2.7-3.8-4.1-5.6c-2.3-3.2-4.6-6.5-7-9.7c-0.3-0.5-0.3-0.8-0.1-1.2c2-3.6,1.5-8.2-1.1-11
		c-1.7-1.8-3.9-2.7-6.2-3.2c-1.2-0.3-2.5-0.4-3.8-0.7c-0.2,0-0.5-0.2-0.7-0.4c-3.9-5.4-7.9-10.9-11.8-16.4c0-0.1,0-0.1-0.1-0.3
		c0.3,0,0.6,0,0.8,0c2.6,0,5.1,0,7.7,0c2.5-0.1,5-0.5,7.2-1.7c3.5-1.9,5.1-4.9,4.9-8.8c-0.2-3.8-2.3-6.3-5.7-7.7
		c-2.4-1-4.8-1.3-7.3-1.3c-4.4-0.1-8.8,0-13.3,0c-0.7,0-0.9,0.2-0.9,0.9c0,2.8,0,5.7,0,8.5c0,0.3,0,0.5,0,0.8
		c-0.1,0-0.1,0.1-0.2,0.1c-6.5-9-12.9-18-19.5-27.1c0.4,0,0.7,0,0.9,0c11.3,0,22.6,0,33.9,0c5.8,0,11.5,0.5,17,2.3
		c4.3,1.4,8.1,3.5,10.9,7.1c2,2.6,3.2,5.5,3.7,8.7c0.7,4.1,0.7,8.1-0.7,12c-1.8,5.1-5.3,8.7-10,11.1c-1.2,0.6-2.6,1.1-3.9,1.7
		c-0.2,0.1-0.4,0.2-0.6,0.3c0,0.1,0,0.1,0,0.2c0.5,0.1,1.1,0.2,1.6,0.3c6.4,1.3,11.6,4.4,15.1,10.1c1.9,3.2,2.9,6.6,3.1,10.4
		c0.2,4.3-0.4,8.5-2.4,12.4C189.9,181.3,187.3,184,184,186.1z"/>
	<path class="st0" d="M91.2,170.4c-1.7-1.4-3.2-2.6-4.7-3.8c-4.9-4-9.8-8-14.7-12c-0.4-0.4-0.6-0.7-0.6-1.3c0-11,0-22,0-33.1
		c0-1.2,0-1.2-1.2-1.2c-7.4,0-14.7,0-22.1,0c-1.1,0-1.1,0-1.1-1.1c0-5.2,0-10.4,0-15.6c0-0.7,0.2-0.9,0.9-0.9c17.7,0,35.4,0,53.2,0
		c0.5,0,0.9,0.1,1.2,0.5c4.9,5.6,9.8,11.2,14.7,16.8c0,0,0,0.1,0.1,0.3c-0.3,0-0.6,0-0.9,0c-7.9,0-15.8,0-23.8,0
		c-1.2,0-1.2,0-1.2,1.2c0,16.4,0,32.7,0,49.1C91.2,169.5,91.2,169.8,91.2,170.4z"/>
	<path class="st0" d="M192.9,192.2c10.1-24.4,20.2-48.6,30.3-72.9c0.2,0.3,0.3,0.5,0.4,0.7c3.4,5.9,6.7,11.8,10.1,17.7
		c0.3,0.5,0.3,0.9,0.1,1.5c-2.1,5.3-4.2,10.7-6.3,16c-0.1,0.3-0.2,0.6-0.3,1c0.4,0,0.7,0,1,0c5.1,0,10.3,0,15.4,0
		c0.4,0,0.7,0.1,1,0.5c3,5.3,6,10.6,9,15.8c0.1,0.1,0.1,0.3,0.3,0.6c-0.4,0-0.7,0-0.9,0c-10.3,0-20.7,0-31,0c-0.8,0-1.2,0.3-1.4,1
		c-2.3,5.9-4.6,11.7-6.9,17.6c-0.2,0.5-0.4,0.7-1,0.7c-6.3,0-12.7,0-19,0C193.4,192.2,193.2,192.2,192.9,192.2z"/>
	<path class="st0" d="M288.2,192.2c-0.3,0-0.6,0-0.8,0c-5.8,0-11.6,0-17.4,0c-0.7,0-1-0.3-1.2-0.9c-10.3-24.8-20.6-49.6-30.8-74.4
		c-2-4.9-4-9.7-6.1-14.6c-0.1-0.3-0.2-0.6-0.4-1c0.3,0,0.6-0.1,0.9-0.1c5.2,0,10.4,0,15.6,0c0.6,0,0.9,0.2,1.1,0.7
		c11.1,25.6,22.3,51.3,33.4,76.9c1.8,4.1,3.6,8.3,5.4,12.4C288,191.6,288.1,191.9,288.2,192.2z"/>
	<path class="st0" d="M122.9,125.5c8.4,9.6,16.8,19.3,25.4,29.1c-0.6,0-1.1,0-1.6,0c-1.1,0-2.2,0-3.4,0c-0.5,0-0.8,0.2-0.8,0.7
		c0,6.5,0,13,0,19.4c0,0.6,0.2,0.7,0.8,0.7c6,0,12,0,18,0c1.3,0,2.6-0.3,3.9-0.5c0.4-0.1,0.7-0.1,1,0.2c4,4.6,7.9,9.1,11.9,13.6
		c0.1,0.1,0.1,0.2,0.3,0.4c-1.5,0.5-3,1-4.5,1.4c-4.3,1.2-8.6,1.7-13.1,1.7c-12.4,0-24.8,0-37.2,0c-1,0-1,0-1-1c0-21.7,0-43.3,0-65
		c0-0.2,0-0.4,0-0.7C122.8,125.5,122.8,125.5,122.9,125.5z"/>
	<path class="st0" d="M19.9,133.9c0.3,0.2,0.5,0.3,0.7,0.4c6.2,4,12.3,7.9,18.5,11.9c0.5,0.3,0.7,0.7,0.7,1.3c0,14.6,0,29.2,0,43.8
		c0,0.8-0.3,0.9-1,0.9c-6,0-12,0-18,0c-1,0-1,0-1-1c0-18.8,0-37.7,0-56.5C19.9,134.5,19.9,134.2,19.9,133.9z"/>
	<path class="st0" d="M71.3,166.9c1.7,1.1,3.2,2.1,4.7,3c4.8,3.1,9.7,6.2,14.5,9.3c0.5,0.3,0.6,0.6,0.6,1.1c0,3.6,0,7.3,0,10.9
		c0,0.7-0.2,0.9-0.8,0.9c-6.1,0-12.2,0-18.3,0c-0.5,0-0.8-0.1-0.8-0.7c0-8,0-16,0-24C71.3,167.4,71.3,167.2,71.3,166.9z"/>
	<path class="st0" d="M39.8,128.1c-2.3-1.9-4.4-3.6-6.6-5.4c-4.1-3.4-8.3-6.8-12.4-10.2c-0.6-0.5-0.9-1-0.9-1.9c0.1-2.8,0-5.6,0-8.3
		c0-0.7,0.2-1,0.9-0.9c6.1,0,12.2,0,18.2,0c0.5,0,0.8,0,0.8,0.7c0,8.5,0,17.1,0,25.6C39.8,127.7,39.8,127.8,39.8,128.1z"/>
</g>
</svg>
