<?xml version="1.0" encoding="utf-8"?>
<!-- Generator: Adobe Illustrator 21.0.0, SVG Export Plug-In . SVG Version: 6.00 Build 0)  -->
<svg version="1.1" id="Capa_1" xmlns="http://www.w3.org/2000/svg" xmlns:xlink="http://www.w3.org/1999/xlink" x="0px" y="0px"
	 viewBox="0 0 200 100" style="enable-background:new 0 0 200 100;" xml:space="preserve">
<style type="text/css">
	.st0{fill:#FFFFFF;}
	.st1{fill:#FFCF04;}
	.st2{fill:#E23B87;}
</style>
<path class="st0" d="M85.3,63.4c-2.9,0-5.3,2.2-5.8,4.9c-0.8-0.1-2.1-0.5-3.1-1.7c-0.5-0.7-0.7-2.2-1-3.6c-0.5-2.4-0.9-5.2-2.8-6.8
	c-1.7-1.5-3.4-1.9-4.8-1.9c0.3-1.3,0.5-2.6,0.5-4s-0.2-2.8-0.5-4c1.3,0,3-0.4,4.8-1.9c1.9-1.6,2.4-4.4,2.8-6.8c0.3-1.5,0.5-3,1-3.6
	c1-1.3,2.3-1.7,3.1-1.7c0.5,2.8,2.9,4.9,5.8,4.9c3.2,0,5.9-2.6,5.9-5.9c0-3.2-2.6-5.9-5.9-5.9c-2.4,0-4.4,1.4-5.3,3.4
	c-1.3,0-4.2,0.4-6.2,3.1c-0.9,1.3-1.3,3.1-1.6,5c-0.3,1.9-0.7,4-1.7,4.8c-1.8,1.5-3.5,0.9-3.6,0.9l-0.1,0.2c-1.7-3.5-4.5-6.3-8-8
	l0.2-0.1c0,0-0.7-1.7,0.9-3.6c0.8-0.9,3-1.3,4.8-1.7c2-0.3,3.8-0.7,5-1.6c2.8-2.1,3.1-4.9,3.1-6.2c2-0.9,3.4-3,3.4-5.3
	c0-3.2-2.6-5.9-5.9-5.9s-5.9,2.6-5.9,5.9c0,2.9,2.2,5.3,4.9,5.8c-0.1,0.8-0.5,2.1-1.7,3.1c-0.7,0.5-2.2,0.7-3.6,1
	c-2.4,0.5-5.2,0.9-6.8,2.8c-1.5,1.7-1.9,3.4-1.9,4.8c-1.3-0.3-2.6-0.5-4-0.5c-1.4,0-2.8,0.2-4,0.5c0-1.3-0.4-3-1.9-4.8
	c-1.6-1.9-4.4-2.4-6.8-2.8c-1.5-0.3-3-0.5-3.6-1c-1.3-1-1.7-2.3-1.7-3.1c2.8-0.5,4.9-2.9,4.9-5.8c0-3.2-2.6-5.9-5.9-5.9
	c-3.2,0-5.9,2.6-5.9,5.8c0,2.4,1.4,4.4,3.4,5.3c0,1.3,0.4,4.2,3.1,6.2c1.3,0.9,3.1,1.3,5,1.6c1.9,0.3,4,0.7,4.8,1.7
	c1.5,1.8,0.9,3.5,0.9,3.6l0.2,0.1c-3.5,1.7-6.3,4.5-8,8l-0.1-0.1c0,0-1.7,0.7-3.6-0.9c-0.9-0.8-1.3-3-1.7-4.8c-0.3-2-0.7-3.8-1.6-5
	c-2.1-2.8-4.9-3.1-6.2-3.1c-0.9-2-3-3.4-5.3-3.4c-3.2,0-5.9,2.6-5.9,5.9c0,3.2,2.6,5.9,5.9,5.9c2.9,0,5.3-2.2,5.8-4.9
	c0.8,0.1,2.1,0.5,3.1,1.7c0.5,0.7,0.7,2.2,1,3.6c0.5,2.4,0.9,5.2,2.8,6.8c1.7,1.5,3.4,1.9,4.8,1.9c-0.3,1.3-0.5,2.6-0.5,4
	c0,1.4,0.2,2.8,0.5,4c-1.3,0-3,0.4-4.8,1.9c-1.9,1.6-2.4,4.4-2.8,6.8c-0.3,1.5-0.5,3-1,3.6c-1,1.3-2.3,1.7-3.1,1.7
	c-0.5-2.8-2.9-4.9-5.8-4.9c-3.2,0-5.9,2.6-5.9,5.9s2.6,5.9,5.9,5.9c2.4,0,4.4-1.4,5.3-3.4c1.3,0,4.2-0.4,6.2-3.1
	c0.9-1.3,1.3-3.1,1.6-5c0.3-1.9,0.7-4,1.7-4.8c1.8-1.5,3.5-0.9,3.6-0.9l0.1-0.2c1.7,3.5,4.5,6.3,8,8l-0.2,0.1
	c0.1,0.2,0.7,1.9-0.9,3.6c-0.8,0.9-3,1.3-4.8,1.7c-2,0.3-3.8,0.7-5,1.6c-2.8,2.1-3.1,4.9-3.1,6.2c-2,0.9-3.4,3-3.4,5.3
	c0,3.2,2.6,5.9,5.9,5.9s5.9-2.6,5.9-5.9c0-2.9-2.2-5.3-4.9-5.8c0.1-0.8,0.5-2.1,1.7-3.1c0.7-0.5,2.2-0.7,3.6-1
	c2.4-0.5,5.2-0.9,6.8-2.8c1.5-1.7,1.9-3.4,1.9-4.8c1.3,0.3,2.6,0.5,4,0.5c1.4,0,2.8-0.2,4-0.5c0,1.3,0.4,3,1.9,4.8
	c1.6,1.9,4.4,2.4,6.8,2.8c1.5,0.3,3,0.5,3.6,1c1.3,1,1.7,2.3,1.7,3.1c-2.8,0.5-4.9,2.9-4.9,5.8c0,3.2,2.6,5.9,5.9,5.9
	s5.9-2.6,5.9-5.9c0-2.4-1.4-4.4-3.4-5.3c0-1.3-0.4-4.2-3.1-6.2c-1.3-0.9-3.1-1.3-5-1.6c-1.9-0.3-4-0.7-4.8-1.7
	c-1.5-1.8-0.9-3.5-0.9-3.6l-0.2-0.1c3.5-1.7,6.3-4.5,8-8l0.1,0.2c0,0,1.7-0.7,3.6,0.9c0.9,0.8,1.3,3,1.7,4.8c0.3,2,0.7,3.8,1.6,5
	c2.1,2.8,4.9,3.1,6.2,3.1c0.9,2,3,3.4,5.3,3.4c3.2,0,5.9-2.6,5.9-5.9S88.5,63.4,85.3,63.4z M51.3,64c-7.5,0-13.7-6.1-13.7-13.7
	s6.1-13.7,13.7-13.7s13.7,6.1,13.7,13.7S58.9,64,51.3,64z"/>
<circle class="st1" cx="51.3" cy="50.2" r="9"/>
<g>
	<path class="st0" d="M84.1,41.6c0-1.2,0.9-2,2-2c1,0,2,0.7,2,2v17.4c0,1.2-0.9,2-2,2c-1,0-2-0.7-2-2V41.6z"/>
	<path class="st0" d="M91.2,46.9c0-1.4,0.7-2.1,1.7-2.1c1.1,0,1.7,0.7,1.7,2h0.1c0.6-1.3,2-2,3.3-2c2,0,3.4,1.2,3.4,3.8v10.3
		c0,1.4-0.7,2.1-1.7,2.1S98,60.3,98,58.9v-9.5c0-1.1-0.6-1.6-1.3-1.6c-1.1,0-1.8,0.8-1.8,2.8v8.3c0,1.4-0.7,2.1-1.7,2.1
		s-1.7-0.7-1.7-2.1L91.2,46.9L91.2,46.9z"/>
	<path class="st0" d="M103.8,47.1c-0.1-0.3-0.1-0.5-0.1-0.8c0-1,0.9-1.6,1.7-1.6c1.1,0,1.7,0.5,2,1.8l1.8,10.2h0.1l1.7-10.2
		c0.2-1.1,0.6-1.8,1.8-1.8c1.2,0,1.7,0.7,1.7,1.5c0,0.4-0.1,0.7-0.2,1.2l-2.8,12c-0.3,1-0.7,1.5-2.5,1.5c-1.9,0-2.3-0.7-2.6-2.2
		L103.8,47.1z"/>
	<path class="st0" d="M116,51.2c0-4,0.6-6.5,5.3-6.5c3.6,0,4.8,2,4.8,6.1c0,1.4-0.2,2.5-2,2.5h-4.6v1.5c0,1.9,0.1,3.3,1.5,3.3
		c0.7,0,1.3-0.7,1.3-1.6c0.1-1.5,0.7-1.9,1.7-1.9s1.7,0.3,1.7,1.7c0,2.8-2,4.5-4.8,4.5c-4.8,0-5.3-2.6-5.3-6.5L116,51.2L116,51.2z
		 M122.7,50.9v-1.3c0-1.1-0.4-2.1-1.5-2.1c-1.1,0-1.5,0.9-1.5,2.1v1.3H122.7z"/>
	<path class="st0" d="M130.5,53.1c-2-1.5-2.4-2.5-2.4-4.1c0-2.8,2-4.2,4.8-4.2c3.7,0,4.7,2.6,4.7,3.8c0,1-0.4,1.7-1.8,1.7
		c-0.9,0-1.3-0.5-1.4-1.3c-0.1-1.1-0.6-1.5-1.5-1.5c-0.7,0-1.2,0.5-1.2,1.2c0,0.5,0.2,1.1,0.7,1.5l2.2,1.6c2.2,1.6,3.3,2.7,3.3,4.8
		c0,3-2.2,4.6-5,4.6c-3.8,0-4.8-2.5-4.8-4.2c0-1.3,0.8-1.7,1.7-1.7c1.3,0,1.7,0.7,1.8,2.2c0.1,0.7,0.4,1.3,1.5,1.3
		c0.9,0,1.3-0.5,1.3-1.4c0-0.7-0.3-1.2-1.2-2L130.5,53.1z"/>
	<path class="st0" d="M140.7,47.7h-0.4c-1,0-1.5-0.3-1.5-1.3c0-0.9,0.5-1.3,1.5-1.3h0.4v-2.7c0-1.4,0.7-2.1,1.7-2.1
		c1.1,0,1.7,0.7,1.7,2.1v2.7h0.8c1,0,1.5,0.3,1.5,1.3c0,0.9-0.5,1.3-1.5,1.3h-0.8v9.1c0,0.7,0.1,1,0.9,1.1c0.8,0,1.3,0.3,1.3,1.2
		c0,1.1-0.7,1.6-2.2,1.6c-2.7,0-3.5-1.4-3.5-2.9L140.7,47.7L140.7,47.7z"/>
	<path class="st0" d="M149.7,39.5c1.1,0,2,0.9,2,2s-0.9,2-2,2c-1.1,0-2-0.9-2-2S148.5,39.5,149.7,39.5z M147.9,46.9
		c0-1.4,0.7-2.1,1.7-2.1c1.1,0,1.7,0.7,1.7,2.1v12c0,1.4-0.7,2.1-1.7,2.1c-1.1,0-1.7-0.7-1.7-2.1V46.9z"/>
	<path class="st0" d="M154.3,50.6c0-3,0.7-5.8,3.7-5.8c1.3,0,2.7,0.7,3.2,2.1h0.1c0-1.4,0.6-2.1,1.7-2.1c0.9,0,1.7,0.7,1.7,2.1v14.7
		c0,3.5-1.7,5-5.2,5c-2.6,0-4.6-0.9-4.6-2.9c0-0.9,0.7-1.5,1.7-1.5c0.8,0,1.3,0.5,1.5,1c0.3,0.7,0.7,0.9,1.2,0.9
		c1.5,0,1.8-0.9,1.8-3.1v-2.2h-0.1c-0.8,1.4-1.6,1.7-3.1,1.7c-3.2,0-3.7-2.9-3.7-6.1L154.3,50.6L154.3,50.6z M157.9,53.5
		c0,3.4,0.3,4.4,1.5,4.4c0.8,0,1.7-0.6,1.7-3.8v-2.7c0-3.1-1-3.8-1.7-3.8c-0.9,0-1.5,0.9-1.5,3.4L157.9,53.5L157.9,53.5z"/>
	<path class="st1" d="M171.3,55.5l-0.7,3.7c-0.3,1.3-0.7,1.8-2,1.8c-1.1,0-1.8-0.7-1.8-1.7c0-0.3,0.1-1,0.2-1.5l3.6-15.4
		c0.5-2.1,1-2.7,3.2-2.7c2,0,2.7,0.6,3.2,2.7l3.6,15.3c0.1,0.6,0.3,1.3,0.3,1.5c0,1.3-0.9,1.7-1.9,1.7c-1.4,0-2-0.6-2.3-2.5l-0.6-3
		H171.3z M175.4,52.5l-1.7-8.5h-0.1l-1.7,8.5H175.4z"/>
	<path class="st1" d="M182.8,46.7c0-1.1,0.5-1.9,1.6-1.9c1.1,0,1.6,0.7,1.6,1.9v1.5h0.1c0.5-2,1.4-3.4,2.6-3.4
		c0.9,0,1.7,0.7,1.7,2.3c0,1.1-0.5,2.1-2.2,2.1c-1.1,0-2,0.7-2,2.2V59c0,1.4-0.7,2.1-1.7,2.1c-1.1,0-1.7-0.7-1.7-2.1L182.8,46.7
		L182.8,46.7z"/>
</g>
<g>
	<path class="st2" d="M85.3,28.7c1.3,0,2.5,1.1,2.5,2.5s-1.1,2.5-2.5,2.5c-1.3,0-2.5-1.1-2.5-2.5C82.8,29.8,84,28.7,85.3,28.7z"/>
</g>
<g>
	<path class="st2" d="M67.9,16.2c0-1.3,1.1-2.5,2.5-2.5c1.3,0,2.5,1.1,2.5,2.5c0,1.3-1.1,2.5-2.5,2.5C69,18.7,67.9,17.7,67.9,16.2z"
		/>
</g>
<g>
	<path class="st2" d="M32.3,13.8c1.3,0,2.5,1.1,2.5,2.5s-1.1,2.5-2.5,2.5c-1.3,0-2.5-1.1-2.5-2.5C29.8,14.9,30.9,13.8,32.3,13.8z"/>
</g>
<g>
	<path class="st2" d="M17.3,33.7c-1.3,0-2.5-1.1-2.5-2.5s1.1-2.5,2.5-2.5s2.5,1.1,2.5,2.5S18.7,33.7,17.3,33.7z"/>
</g>
<g>
	<path class="st2" d="M17.3,71.8c-1.3,0-2.5-1.1-2.5-2.5s1.1-2.5,2.5-2.5s2.5,1.1,2.5,2.5S18.7,71.8,17.3,71.8z"/>
</g>
<g>
	<path class="st2" d="M34.8,84.3c0,1.3-1.1,2.5-2.5,2.5c-1.3,0-2.5-1.1-2.5-2.5c0-1.3,1.1-2.5,2.5-2.5
		C33.6,81.8,34.8,82.9,34.8,84.3z"/>
</g>
<g>
	<path class="st2" d="M70.4,86.8c-1.3,0-2.5-1.1-2.5-2.5c0-1.3,1.1-2.5,2.5-2.5c1.3,0,2.5,1.1,2.5,2.5
		C72.9,85.6,71.7,86.8,70.4,86.8z"/>
</g>
<g>
	<path class="st2" d="M85.3,71.8c-1.3,0-2.5-1.1-2.5-2.5s1.1-2.5,2.5-2.5c1.3,0,2.5,1.1,2.5,2.5S86.7,71.8,85.3,71.8z"/>
</g>
</svg>
