<?xml version="1.0" encoding="utf-8"?>
<!-- Generator: Adobe Illustrator 21.0.0, SVG Export Plug-In . SVG Version: 6.00 Build 0)  -->
<svg version="1.1" id="Capa_1" xmlns="http://www.w3.org/2000/svg" xmlns:xlink="http://www.w3.org/1999/xlink" x="0px" y="0px"
	 viewBox="0 0 327.2 298.5" style="enable-background:new 0 0 327.2 298.5;" xml:space="preserve">
<style type="text/css">
	.st0{fill:#FFCF04;}
</style>
<g>
	<g>
		<path class="st0" d="M291.4,212c-4,0-7.6,0-11.3,0c-6.2,0-10.9,2.8-14.8,7.5c-3.8,4.5-7.9,8.9-11.9,13.1
			c-3.2,3.4-7.1,5.7-11.5,7.2c-1.6,0.6-3.3,0.9-4.9,1.4c0-0.1-0.1-0.2-0.1-0.3c0.4-0.3,0.9-0.6,1.3-0.9
			c16.2-11.2,29.2-25.4,38.8-42.6c1.2-2.1,2.6-3.4,4.9-4c3.5-1.1,7-2.2,10.4-3.5c5.2-2.1,8.5-5.9,9.7-11.5
			c1.2-5.8,2.3-11.6,3.5-17.4c1.4-6.8,2.9-13.5,5.7-19.8c0.6-1.5,1.4-2.8,2.2-4.4c-0.3,0.1-0.5,0.1-0.6,0.2
			c-3.1,1.8-6.3,3.6-9.4,5.5c-4.5,2.7-7.2,6.7-8.2,11.9c-1.1,5.6-2.3,11.3-3.5,16.9c-1.4,6.1-4.1,11.4-8.5,15.9
			c-0.3,0.3-0.7,0.6-1,0.9c0-0.7,0.2-1.2,0.5-1.7c6.5-15,9.9-30.7,10.3-47c0-1.3,0.4-2.3,1.3-3.2c2.3-2.3,4.6-4.6,6.8-6.9
			c2.2-2.3,4-4.8,5-7.8c1.4-3.9,0.6-7.6-0.4-11.4c-2-7.5-4.1-14.9-5.9-22.5c-1.4-5.8-2.4-11.8-1.7-17.9c-0.2,0.2-0.3,0.3-0.4,0.4
			c-2.1,3.4-4.4,6.7-6.4,10.1c-2.5,4.1-3,8.5-1.8,13.2c1.2,4.6,2.5,9.1,3.7,13.7c1.4,5.6,2.4,11.2,1.5,16.9c-0.3,2-0.9,3.9-1.3,5.8
			c-0.1,0-0.3,0-0.4-0.1c0-0.3-0.1-0.6-0.1-1c-0.6-4.8-0.9-9.6-1.7-14.3c-2-11.7-5.7-22.8-11-33.5c-0.3-0.5-0.4-1.4-0.2-1.9
			c1-3.2,2.1-6.5,3.2-9.7c2.7-8,1.4-15-4.7-21c-3.3-3.2-6.5-6.6-9.7-10C262.9,32.2,257,26,253.3,18c-0.1,0.3-0.2,0.5-0.2,0.7
			c-0.2,3.2-0.5,6.5-0.5,9.7c0,5.8,2,10.8,5.9,15.1c3.5,3.9,6.9,7.8,10.3,11.7c3.4,4,5.9,8.6,7.2,13.7c0.4,1.6,0.7,3.3,1,5
			c-0.5-0.2-0.7-0.4-0.8-0.6C270.3,63.1,263,54,254.5,45.8c-1-0.9-1.9-1.8-2.9-2.7c-0.7-0.6-1.5-0.9-2.3-0.1
			c-0.7,0.8-0.4,1.6,0.3,2.2c0.5,0.5,1,1,1.6,1.5c8.9,8.2,16.4,17.6,22.5,28c0.3,0.4,0.5,0.9,0.9,1.6c-2.8-0.9-4.9-2.1-6.6-4
			c-1.2-1.4-2.4-2.9-3.4-4.5c-4.1-6-8.7-11.7-13.9-16.8c-3.2-3.2-6.9-4.9-11.5-4.5c-0.8,0.1-1.7,0.1-2.5,0.3
			c-3.1,0.7-6.2,1.5-9.3,2.3c0,0.1,0,0.3,0,0.4c6.4,1.8,11.7,5.5,16.1,10.4c3.7,4.2,7.2,8.8,10.7,13.2c3.3,4.2,7.5,6.6,12.9,6.8
			c2.9,0.1,5.9,0.5,8.8,0.7c0.8,0.1,1.4,0.4,1.7,1.2c1,2.3,2.2,4.6,3.2,7c5.1,11.9,8.1,24.4,9.2,37.3c0.2,2.2,0.2,4.4,0.4,6.7
			c-2.3-1.8-4.3-4.7-4.9-7.5c-0.5-2.1-0.7-4.2-1-6.3c-0.9-6.4-1.8-12.8-3.6-19c-1.1-4-3.4-7.1-7.1-9c-2.8-1.4-5.7-2.4-8.6-3.4
			c-1.6-0.6-3.3-0.8-5.4-1.2c0.4,0.5,0.5,0.6,0.6,0.8c3.9,4,6.5,8.7,8.3,13.9c2.1,6,3.3,12.2,4.2,18.4c1,6.8,4.2,11.8,10.4,14.9
			c2.2,1.1,4.1,2.7,6.1,4c0.8,0.5,1,1.2,1,2.2c-0.4,12.5-2.7,24.6-6.9,36.4c-1.4,4-3.1,7.8-4.7,11.8c-0.3-0.2-0.4-0.2-0.4-0.3
			c-0.1-0.1-0.1-0.3-0.2-0.5c-1.3-3.8-0.9-7.5,0.3-11.3c2-6.2,3.9-12.4,5.7-18.7c1-3.4,1.4-7,0-10.4c-2.4-6.1-7.2-9.9-12.3-14
			c0.1,0.4,0.1,0.5,0.1,0.6c2,5.8,2.3,11.7,1.1,17.7c-1.1,5.6-2.7,11.1-3.9,16.6c-0.6,2.7-1.3,5.5-1.5,8.3c-0.2,3.6,1.7,6.6,3.5,9.6
			c1.4,2.3,2.8,4.7,4.1,7.1c0.3,0.5,0.2,1.3-0.1,1.8c-8.1,14.9-18.9,27.5-32.3,37.9c-2.5,2-5.1,3.8-7.9,5.8c0-0.5,0-0.6,0.1-0.8
			c0.8-3.9,3.1-6.8,6.1-9.3c5.6-4.7,11-9.6,15.8-15.1c3.1-3.6,4.6-7.8,3.9-12.5c-0.5-3.1-1.3-6-2.1-9c-0.3-1.2-0.9-2.3-1.4-3.8
			c-0.5,1.9-0.9,3.5-1.4,5c-2.3,6.6-6.4,12.1-11.3,16.9c-3,2.9-6.1,5.8-9.3,8.6c-4.3,3.9-6.1,8.6-5.6,14.4c0.3,2.5,0.1,5,0.1,7.5
			c0,0.7-0.2,1.3-1,1.8c-6.3,3.6-12.9,6.7-19.8,9.2c-10.2,3.7-20.6,5.9-31.4,6.8c-1.4,0.1-2.9,0.2-4.3,0.2c-0.1-0.1-0.1-0.3-0.2-0.4
			c0.2-0.1,0.4-0.2,0.6-0.3c3.2-3.1,7.3-4.1,11.6-4.9c6.9-1.3,13.7-2.7,20.3-5.1c3.1-1.1,5.4-3.1,6.9-6.1c2.4-4.8,3.1-10,3.8-15.4
			c-0.4,0.4-0.7,0.6-0.9,0.8c-3.8,4.3-8.3,7.4-13.6,9.6c-5.2,2.2-10.6,3.3-16.1,4.4c-6.3,1.3-11.2,4.5-14.6,10.1
			c-1.1,1.9-2.4,3.7-3.7,5.5c-2.1,3-4.9,3-7,0c-1.3-1.9-2.6-3.8-3.8-5.7c-3.2-5.1-7.6-8.4-13.5-9.7c-3.8-0.8-7.6-1.7-11.4-2.8
			c-7.5-2-14.1-5.7-19.3-11.6c-0.2-0.2-0.4-0.3-0.6-0.5c0.4,3.5,1,6.9,1.8,10.2c1.5,6.3,5.1,10.5,11.6,12c6.6,1.5,13.2,3.1,19.9,4.6
			c3.4,0.8,6.5,2,9.1,4.4c0.2,0.2,0.3,0.4,0.5,0.6c0,0.1-0.1,0.2-0.1,0.3c-4.9-0.6-9.8-1-14.7-1.8c-14.2-2.4-27.6-7.2-40.1-14.3
			c-1.2-0.7-1.7-1.5-1.6-2.7c0-2.5,0.2-5,0.1-7.5c0-2.1-0.1-4.2-0.5-6.2c-0.7-3.1-2.7-5.4-5-7.6c-3.1-3-6.3-5.8-9.4-8.8
			c-4.5-4.4-8.3-9.4-10.6-15.3c-0.8-2-1.3-4.1-2-6.1c-0.1,0-0.2-0.1-0.3-0.1c-1,3.2-2.1,6.3-2.8,9.5c-1.4,5.7-0.7,11.1,3.5,15.6
			c3,3.3,6.2,6.5,9.4,9.6c3,2.9,6.2,5.5,9.2,8.5c1.9,1.8,2.8,4.3,3.3,7.1c-0.7-0.4-1.1-0.7-1.5-1c-16.1-11-28.9-25-38.5-42.1
			c-0.6-1.1-0.7-2-0.1-3c1.8-3,3.5-5.9,5.3-8.9c1.5-2.6,2.5-5.4,2-8.4c-0.6-3.5-1.6-7-2.4-10.4c-1.1-4.8-2.4-9.5-3.2-14.3
			c-0.9-5.7-0.5-11.4,1.6-17.2c-4.4,3.4-8.4,6.8-11.2,11.4c-1.7,2.9-2.6,6-1.9,9.3c1,4.7,2.2,9.4,3.5,14.1c1.1,3.9,2.6,7.7,3.7,11.7
			c0.8,2.9,0.3,5.8-0.9,8.7c-0.2-0.4-0.4-0.6-0.5-0.8c-6.9-15-10.7-30.6-11.3-47.1c0-1.2,0.2-2.1,1.2-2.7c2.6-1.7,5.2-3.4,7.9-5
			c4-2.4,6.7-5.8,7.6-10.5c0.7-3.8,1.5-7.5,2.2-11.3c1.2-6.1,2.8-12.1,6.1-17.5c1.5-2.5,3.4-4.8,5.1-7.2c0,0-0.3,0-0.4,0
			c-3.3,0.9-6.7,1.6-9.9,2.8c-5.2,1.9-9.1,5.4-10.4,11.1c-1.2,5.5-2.2,11.1-3.3,16.6c-0.6,3-0.8,6-1.5,8.9c-0.6,2.7-2.4,4.8-4.7,6.6
			c0.2-4.5,0.5-9.1,1.1-13.5c1.8-13,5.7-25.4,11.5-37.2c0.4-0.9,1-1.3,1.9-1.4c3.1-0.2,6.3-0.5,9.4-0.8c3.9-0.3,7.4-1.5,10-4.5
			c2.6-2.9,5-6,7.4-9.1c4-5.1,8.2-10,13.8-13.3c2.4-1.4,5-2.4,7.5-3.6c-3.6-1.3-7.3-2.3-11.3-2.7c-4.9-0.5-8.7,1.3-12.1,4.7
			c-5.2,5.2-9.7,10.9-13.8,16.9c-1.3,1.9-2.8,3.7-4.4,5.3c-1.4,1.4-3.2,2.3-5.2,2.8c0-0.2,0-0.3,0-0.4c0.2-0.3,0.4-0.7,0.6-1
			c6-10.6,13.8-20.3,23.1-28.8c0.5-0.4,1-0.8,1.3-1.4c0.2-0.5,0.2-1.3-0.1-1.6c-0.3-0.3-1-0.5-1.6-0.4c-0.4,0-0.8,0.5-1.1,0.8
			C66.2,52.1,58.1,61.9,51.6,73c-0.2,0.4-0.5,0.7-0.8,1.3c-0.1-0.4-0.1-0.5-0.1-0.7c0.7-6,2.8-11.5,6.5-16.2
			c3.4-4.4,7-8.7,10.8-12.7c4.8-5.1,7.2-11,7-17.9c-0.1-2.9-0.4-5.7-0.5-8.6c-1,1.4-1.7,2.8-2.5,4.1c-3.3,5.5-7.7,10.2-12.1,14.8
			s-8.8,9-13,13.7c-3.7,4.1-4.8,9-3.6,14.3c0.9,3.8,2.2,7.5,3.5,11.2c0.8,2.3,1.2,4.4-0.4,6.5c-0.3,0.4-0.4,0.9-0.7,1.4
			c-6,13.2-9.7,27-10.9,41.5c-0.1,1.3-0.2,2.6-0.3,3.9c-0.3-0.2-0.4-0.4-0.5-0.6c-1.5-4.6-2.2-9.4-1.3-14.2c1.1-5.7,2.6-11.3,4-17
			c0.5-2.1,1.2-4.2,1.6-6.3c0.6-3.4,0.4-6.8-1.3-9.8c-2.3-4.1-4.8-8.2-7.3-12.2c-0.1,0.1-0.2,0.1-0.3,0.2c0.1,0.8,0.2,1.5,0.2,2.3
			c0.2,4.5-0.4,9-1.4,13.3c-2,8.2-4.2,16.4-6.3,24.6c-0.8,3-1.6,5.9-1.1,9.1c0.6,4.1,2.8,7.3,5.5,10.2c2.5,2.6,5,5.1,7.5,7.7
			c0.4,0.4,0.6,1.1,0.7,1.7c0.4,4.5,0.5,9,1,13.5c1.4,12,4.6,23.4,9.4,34.5c0.2,0.4,0.4,0.9,0.6,1.4c-0.5-0.1-0.8-0.4-1-0.6
			c-3.4-3.4-5.9-7.3-7.4-11.8c-2.3-6.6-3.4-13.4-4.6-20.3c-0.9-4.9-2.9-9.2-7.3-12c-3.5-2.2-7.2-4.3-10.7-6.4c-0.1,0-0.2,0-0.4,0.1
			c3.1,5.1,4.9,10.6,6.2,16.3c1.8,8.1,3.5,16.2,5.1,24.4c1.2,6,4.5,10.2,10.2,12.4c3.4,1.3,6.8,2.4,10.3,3.5
			c2.1,0.6,3.7,1.6,4.5,3.7c0.3,0.7,0.7,1.3,1,1.9c9.7,16.6,22.5,30.4,38.4,41.3c0.3,0.2,0.5,0.4,1.1,0.9c-0.8-0.1-1.2-0.1-1.6-0.2
			c-5.6-1.3-10.7-3.8-14.8-8c-4.3-4.3-8.4-8.8-12.3-13.5c-3.8-4.5-8.4-7.5-14.4-7.5c-3.8,0-7.5,0-11.3,0c0.1,0.1,0.1,0.3,0.1,0.3
			c4.2,2.1,7.7,5.1,10.9,8.4c5.6,6,10.9,12.2,16.4,18.3c1.5,1.7,3,3.4,4.8,4.8c4,3.2,8.8,3.5,13.6,2.7c3.6-0.6,7.1-1.4,10.7-2
			c1.5-0.3,3-0.3,4.5,0.6c3.1,1.8,6.3,3.5,9.5,5c13.6,6.4,27.9,10.3,42.9,11.5c1.5,0.1,2.9,0.2,4.4,0.3c-0.1,0.2-0.1,0.3-0.2,0.3
			c-0.2,0.1-0.5,0.2-0.7,0.3c-6.7,2-13.5,2.2-20.1,0.2c-5.4-1.6-10.7-3.6-16.1-5.3c-4.2-1.3-8.5-1.7-12.8-0.3
			c-4.7,1.5-8.9,4.1-13,6.8c0,0,0,0.1,0,0.2c5.5-0.3,10.9,0.8,16.1,2.4c7.6,2.4,15,5,22.5,7.5c3.5,1.2,7.1,2.2,10.9,1.4
			c3.2-0.7,6-2.4,8.6-4.4c2.9-2.3,5.8-4.8,8.8-7.1c1-0.8,2.3-1.4,3.5-1.7c3.1-0.6,6.1-0.2,8.6,2c0.9,0.8,1.9,1.5,2.8,2.2
			c2.5,2,5,4.2,7.6,6c4.4,3.1,9.3,4,14.6,2.2c6.3-2.1,12.6-4.3,19-6.4c5.5-1.8,11.1-3.5,17-4.1c1.8-0.2,3.6-0.2,5.4-0.3
			c-3-1.9-6-3.7-9.1-5.3c-5.4-2.8-11.1-3.2-16.8-1.3c-3.4,1.1-6.7,2.1-10,3.4c-6.9,2.6-14,4.2-21.4,2.9c-1.9-0.3-3.7-0.8-5.6-1.3
			c0-0.1,0-0.3,0.1-0.4c0.4,0,0.7-0.1,1.1-0.1c4.3-0.5,8.7-0.7,12.9-1.4c15.4-2.5,29.9-7.7,43.3-15.6c0.6-0.3,1.4-0.5,2-0.4
			c4.2,0.7,8.3,1.5,12.4,2.2c6.6,1.1,12.4-0.4,16.9-5.8c3.6-4.3,7.3-8.6,11.1-12.8C278.5,222,283.9,216.1,291.4,212z"/>
		<path class="st0" d="M262.7,136.5c0,54.6-44.6,99.1-99.2,99c-54.7-0.1-99.1-44.6-99-99.3c0.1-54.4,44.7-98.8,99.1-98.8
			C218.2,37.5,262.7,82,262.7,136.5z M163.5,232.6c52.9,0,96.1-43.1,96.2-96.1c0.1-52.8-43.2-96.2-96.1-96.2s-96.2,43.3-96.1,96.2
			C67.5,189.5,110.6,232.6,163.5,232.6z"/>
		<path class="st0" d="M233.8,136.5c-0.1,38.8-31.7,70.4-70.4,70.3c-38.7-0.2-70.1-31.6-70.1-70.3s31.6-70.3,70.3-70.3
			S233.9,97.9,233.8,136.5z M231,136.6c-0.1-37.5-30.4-67.2-66.9-67.5c-37.1-0.3-67.7,29.7-67.8,67.1c-0.1,37.7,30.5,67.3,66.9,67.6
			C200.2,204.1,230.6,174.1,231,136.6z"/>
		<path class="st0" d="M165.3,78.2c1.9,1.7,3.6,3.4,5.5,5.1c2.4-2,4.8-3.9,7.2-5.9c1.4,1.2,2.7,2.5,4.1,3.7c3.4,3.1,6.8,6,10.1,9.2
			c1.5,1.5,2.9,3.3,3.8,5.2c1.4,3.1,3.3,5.7,6,7.6c0.6,0.4,1.2,1,1.8,1.4c2.5,2,2.7,5.1,0.5,7.5c-1.6,1.8-2.8,3.8-3.1,6.2
			c-0.4,4.5,2.4,8.3,6.9,9.2c0.6,0.1,1.3,0.2,2,0.3c0.6,5.1,1.3,10.1-0.5,15.1c-0.3,0.9-0.8,1.9-1.5,2.7
			c-4.9,5.3-9.9,10.6-16.1,14.5c-7.1,4.4-14.9,6.9-23.4,6.7c-7.7-0.2-14.7-2.9-21.4-6.7c-2.3-1.3-4.4-2.8-6.7-4.3
			c-0.7,0.9-0.4,1.8,0.2,2.7c0.9,1.3,1.9,2.5,2.9,3.8c2.2,2.9,2.3,5,0.5,8.1c-0.8,1.4-1.6,2.7-2.6,4c-1.9,2.6-2.1,5.5-1.6,8.4
			c0.2,1,1,1.9,1.6,2.9c0.5,0.8,1,1.6,1.6,2.3c0.9,1,0.7,1.9,0.1,2.9c-1.5,2.6-5.4,4.7-8.6,1.3c-2.3-2.4-4.7-4.5-7-6.9
			c-0.4-0.4-0.8-1.1-0.8-1.7c0-29.1,0-58.2-0.1-87.3c0-1.2,0.3-1.6,1.6-1.6c6.9,0.1,13.7,0,20.6,0c0.9,0,1.5-0.2,2.1-0.9
			C155.9,88.4,160.6,83.3,165.3,78.2z M140.7,152.6c3.1,2,6,4.1,9.1,5.8c5.9,3.2,12.2,5.5,18.9,5.7c8.1,0.2,15.5-2.2,22.4-6.5
			c5.3-3.3,9.6-7.9,14-12.3c1.8-1.8,2.9-3.9,3.1-6.4c0.2-2.7,0-5.4,0-8.2c0-0.7-0.3-1-1-1.2c-2.2-0.5-4-1.6-5.5-3.2
			c-4-4.3-3.7-11,0.6-15.7c1.9-2,1.9-2.9-0.3-4.5c-3.7-2.7-6.7-5.8-8.4-10.2c-0.5-1.4-1.7-2.6-2.8-3.7c-1.7-1.8-3.6-3.4-5.5-5
			c-2.4-2.2-4.8-4.3-7.2-6.6c-2.5,2-4.8,4-7.3,6c-1.8-1.7-3.5-3.3-5.2-4.9c-0.4,0.4-0.7,0.7-1,1c-4,4.4-8.1,8.8-12.1,13.2
			c-0.6,0.7-1.3,1-2.2,0.9c-6.3,0-12.6,0-18.9,0c-1.8,0-1.8,0-1.8,1.8c0,27.2,0,54.5,0,81.7c0,2.1,0.5,3.5,2.1,4.8
			c2,1.7,3.8,3.6,5.7,5.4c1,0.9,2.2,0.7,3.4-0.3c1.1-0.9,0.3-1.6-0.1-2.4c-0.9-1.4-2.1-2.7-2.5-4.2c-1-3.7-0.7-7.4,1.6-10.7
			c1-1.5,2-3,2.9-4.6s0.8-3.2-0.5-4.6c-1-1.1-1.8-2.4-2.7-3.5C136.8,157,137.5,154.3,140.7,152.6z"/>
		<path class="st0" d="M183.2,102c0,0.6,0,1.1,0,1.7c-0.2,0-0.3,0.1-0.4,0.1c-3,0.2-3.5,0.6-3.5,3.6c0,1.6,0,3.2,0,4.8
			c0,0.1,0.1,0.2,0.2,0.4c5.7,0,11.4,0,17.2,0c0,0.6,0,1,0,1.6c-1.5,0.1-3.1,0.2-4.6,0.4c-2.4,0.3-3,0.9-3,3.3c0,7.8,0,15.6,0,23.4
			c0,0.5,0,1,0,1.5c-1.4,0.2-2.5,0.2-3.6-0.6c-2.4-1.7-5-3.3-7.5-4.9c-1.1,1.3-2.1,2.6-1.9,4.4c0.2,1.8,0,3.7,0,5.6
			c-1.5,0.1-1.8-1.4-2.5-1.7c-1.9,0.9-3.5,1.9-5.3,2.4c-4.3,1.1-7.6-0.7-10.1-3.9c-2.7-3.4-3.9-7.4-4.3-11.6c-0.2-2.9,0-5.8,0.1-8.7
			c0.1-1.3-0.1-2.3-1.5-3c-2.2-1.3-4.3-2.7-6.6-4.2c0,0.6-0.1,0.9-0.1,1.2c0,6.5,0,12.9,0,19.4c0,2.1,0.5,2.6,2.7,3
			c0.8,0.2,1.7,0.2,2.5,0.3s1.6,0.1,2.4,0.1c0,0.6,0,1,0,1.6c-6.1,0-12.1,0-18.2,0c0-0.5,0-1,0-1.5c1.4-0.1,2.9-0.2,4.3-0.3
			c0.7-0.1,1.4-0.3,2.1-0.5c0.8-0.3,1.3-0.9,1.3-1.8c0-7.7,0-15.4,0-23.1c0-0.1-0.1-0.2-0.1-0.5c-2.5,0-5,0-7.5,0c0-0.6,0-1.1,0-1.7
			c0.5,0,1,0,1.5,0c5.3,0,10.7,0,16,0c1,0,1.3-0.3,1.3-1.3c-0.1-2.5,0-5,0-7.6c-1.2,0-2.3,0-3.5,0c0-0.7,0-1.2,0-1.9
			c5.4,0,10.8,0,16.2,0c0,0.6,0,1.1,0,1.8c-1.2,0-2.3,0-3.6,0c0,2.1,0,4,0,6.1c3.8-1,7.2-0.1,10.1,2.5c0.9-0.7,1.7-1.4,2.5-2.1
			c0.1,0.1,0.2,0.2,0.3,0.3c0,3.4,0,6.7,0,10.1c-0.9,0.4-1.2-0.1-1.4-0.8c-0.7-1.8-1.3-3.7-2.2-5.4c-1.5-2.6-5-3.7-7.5-2.7
			c-1.7,0.7-2.3,1.7-1.8,3.4c0.1,0.2,0.3,0.5,0.5,0.7c4.5,2.8,8.9,5.6,13.4,8.3c0.1,0,0.2,0,0.3,0c0-0.2,0.1-0.4,0.1-0.6
			c0-5.4,0-10.8,0-16.2c0-0.4-0.1-0.7-0.1-1.1c-0.3-1.9-0.8-2.3-2.9-2.4c-0.3,0-0.6,0-0.9-0.1c0-0.6,0-1.1,0-1.8
			C176.6,102,179.9,102,183.2,102z M163.2,127.8c-0.1,0-0.3,0.1-0.4,0.1c0.2,2.3,0.1,4.7,0.6,7c0.9,4.6,5.2,6.5,9.6,4.5
			c0.8-0.4,1.5-0.8,1.6-1.7c0-0.3,0.5-0.5,0.8-0.7c0.2-0.2,0.6-0.3,0.6-0.5s-0.2-0.5-0.4-0.6c-1-0.7-2-1.3-3.1-2
			C169.4,131.8,166.3,129.8,163.2,127.8z M185.8,129.7c0.1-0.2,0.2-0.3,0.2-0.3c0-4.2,0-8.5,0-12.7c0-0.5-0.5-1.1-0.9-1.4
			c-1.8-1-3.8-0.9-5.8-0.9c0,3.7,0,7.1,0,10.6c0,0.3,0.1,0.6,0.3,0.8C181.6,127.1,183.7,128.4,185.8,129.7z M161.7,142.5
			c0.7,2.5,2.6,4,5,4c2.8,0,5.5-2,6.3-4.6C169.3,143.4,165.6,143.5,161.7,142.5z"/>
		<g>
			<path class="st0" d="M85.4,124.3c-0.1,0.5-0.2,0.9-0.3,1.2c-0.2,0.4-0.3,0.7-0.6,0.9s-0.5,0.5-0.7,0.6c-0.3,0.2-0.6,0.3-0.9,0.3
				c-0.3,0.1-0.6,0.1-0.9,0.1s-0.7,0-1-0.1l-5.3-0.9l0.3-1.6l5.1,0.9c0.6,0.1,1.1,0.1,1.5,0s0.8-0.3,1-0.6c0.2-0.3,0.4-0.7,0.5-1.1
				s0-0.8-0.1-1.2c-0.1-0.4-0.4-0.6-0.7-0.9c-0.3-0.2-0.8-0.4-1.4-0.5l-5.1-0.9l0.3-1.6l5.3,0.9c0.4,0.1,0.7,0.1,1,0.2
				s0.6,0.2,0.8,0.3c0.3,0.2,0.5,0.4,0.8,0.6c0.2,0.2,0.4,0.5,0.5,0.8s0.2,0.7,0.2,1.1C85.5,123.4,85.4,123.9,85.4,124.3z"/>
			<path class="st0" d="M82.9,112.8c1.1-0.4,2-0.6,2.8-0.8l0,0c-1.1-0.3-2-0.5-2.5-0.7l-3.9-1.2l0.5-1.6l8.7,2.6l-0.5,1.7l-4.8,1.6
				c-0.8,0.3-1.8,0.6-2.9,0.8l0,0c1.1,0.3,1.9,0.5,2.5,0.7l3.9,1.2l-0.5,1.6l-8.7-2.6l0.5-1.7L82.9,112.8z"/>
			<path class="st0" d="M89.3,109.3l-8.4-3.3l0.6-1.5l8.4,3.3L89.3,109.3z"/>
			<path class="st0" d="M90,101.9c-0.4-0.4-0.6-0.6-0.8-0.8c-0.2-0.2-0.5-0.5-1-1L85,96.7l0.8-1.6l6.6,7.1l-0.6,1.3l-9.7-0.8
				l0.8-1.6l4.8,0.5c0.7,0.1,1.1,0.1,1.4,0.1S89.5,101.9,90,101.9L90,101.9z"/>
			<path class="st0" d="M94.1,96.1l2.3-3.8l1.2,0.7l-3.2,5.2l-7.7-4.8l3.1-5l1.2,0.7l-2.2,3.6l2,1.2l1.9-3.1l1.2,0.7L92,94.6
				L94.1,96.1z"/>
			<path class="st0" d="M97.6,82.6c0.5,0.4,0.8,0.8,1,1.4c0.1,0.5,0.1,1.2-0.2,1.9l0,0L103,86l-1.2,1.6l-4.3-0.2l-0.7,0.9l2.8,2.1
				l-1,1.3l-7.2-5.5l1.7-2.2c0.3-0.4,0.6-0.7,0.8-1c0.3-0.3,0.5-0.5,0.8-0.7c0.5-0.3,1-0.4,1.5-0.4C96.6,82,97.1,82.2,97.6,82.6z
				 M96.1,86.8c0.2-0.3,0.4-0.6,0.5-0.8c0.1-0.2,0.2-0.4,0.3-0.6c0.1-0.3,0.1-0.6,0-0.9c-0.1-0.2-0.3-0.4-0.5-0.6
				c-0.2-0.1-0.4-0.2-0.6-0.3c-0.2,0-0.4,0-0.7,0.1c-0.2,0.1-0.3,0.2-0.5,0.4c-0.2,0.2-0.4,0.4-0.6,0.7l-0.7,0.9l2.2,1.7L96.1,86.8z
				"/>
			<path class="st0" d="M104.9,80.1c-0.2-0.2-0.3-0.2-0.5-0.3c-0.2,0-0.4,0-0.6,0.1s-0.4,0.2-0.6,0.3s-0.4,0.3-0.6,0.4
				c-0.3,0.2-0.6,0.4-0.9,0.5s-0.6,0.3-0.9,0.3s-0.6,0-0.9-0.1S99.3,81,99,80.7c-0.3-0.3-0.6-0.7-0.7-1C98,79.5,98,79.1,98,78.8
				c0-0.4,0.1-0.7,0.3-1.1c0.2-0.4,0.4-0.7,0.8-1.1c0.3-0.4,0.7-0.7,1.1-1s0.8-0.5,1.1-0.7l1,1c-0.5,0.2-0.9,0.4-1.2,0.7
				c-0.4,0.3-0.7,0.5-0.9,0.8c-0.4,0.4-0.6,0.8-0.6,1.1c-0.1,0.4,0.1,0.7,0.3,0.9c0.2,0.2,0.3,0.3,0.5,0.3s0.4,0,0.5,0
				c0.2-0.1,0.4-0.1,0.6-0.3c0.2-0.1,0.4-0.2,0.6-0.4c0.3-0.2,0.6-0.4,1-0.6c0.3-0.2,0.6-0.3,1-0.4c0.3-0.1,0.7-0.1,1,0
				s0.7,0.3,1,0.6c0.4,0.3,0.6,0.7,0.7,1.1s0.2,0.8,0.1,1.2c-0.1,0.4-0.2,0.8-0.5,1.2c-0.2,0.4-0.6,0.8-0.9,1.2
				c-0.3,0.4-0.7,0.7-1.1,1s-0.8,0.5-1.1,0.6l-1-1c0.4-0.2,0.8-0.4,1.2-0.7c0.4-0.2,0.7-0.5,1-0.9c0.2-0.2,0.3-0.4,0.5-0.6
				c0.1-0.2,0.2-0.4,0.3-0.6c0.1-0.2,0.1-0.4,0-0.6C105.2,80.5,105.1,80.3,104.9,80.1z"/>
			<path class="st0" d="M109.2,79.5l-6.1-6.7l1.2-1.1l6.1,6.7L109.2,79.5z"/>
			<path class="st0" d="M111.9,77.1l-5.6-7.1l1.9-1.5c0.2-0.1,0.3-0.3,0.5-0.4s0.4-0.2,0.5-0.3c0.2-0.1,0.4-0.2,0.5-0.3
				c0.2-0.1,0.3-0.2,0.5-0.2c0.5-0.2,0.9-0.3,1.4-0.3s0.9,0,1.3,0.2c0.4,0.1,0.8,0.3,1.2,0.6c0.4,0.3,0.7,0.6,1,1s0.5,0.8,0.7,1.2
				c0.2,0.4,0.3,0.8,0.3,1.2c0,0.4,0,0.8-0.1,1.2c-0.1,0.4-0.3,0.8-0.5,1.3c-0.2,0.3-0.5,0.7-0.8,1.1s-0.8,0.7-1.2,1.1L111.9,77.1z
				 M112.9,74.5c0.8-0.6,1.3-1.2,1.5-1.7s0.3-1,0.2-1.5c-0.1-0.5-0.3-1-0.8-1.6c-0.2-0.3-0.5-0.5-0.7-0.7s-0.5-0.3-0.8-0.4
				s-0.5-0.1-0.8-0.1s-0.6,0-0.8,0.1c-0.3,0.1-0.5,0.2-0.8,0.4c-0.3,0.2-0.6,0.4-0.9,0.6l-0.6,0.4l3.9,5L112.9,74.5z"/>
			<path class="st0" d="M122.5,66.8l-2.9,1.8L120,71l-1.5,0.9l-1.6-9.6l1.3-0.8l7.8,5.9l-1.5,0.9L122.5,66.8z M118.7,63.8
				c0.2,1,0.4,1.8,0.5,2.5l0.2,0.8l2-1.2l-0.7-0.5C120.1,64.9,119.4,64.4,118.7,63.8L118.7,63.8z"/>
			<path class="st0" d="M126.9,66.9l-3.8-8.2l2.2-1c0.2-0.1,0.4-0.2,0.6-0.3s0.4-0.2,0.6-0.2c0.2-0.1,0.4-0.1,0.6-0.2
				c0.2,0,0.4-0.1,0.5-0.1c0.5-0.1,1-0.1,1.4,0s0.9,0.2,1.2,0.5c0.4,0.2,0.7,0.5,1,0.8s0.6,0.8,0.8,1.2s0.3,0.9,0.4,1.3
				c0.1,0.4,0.1,0.9,0,1.3c-0.1,0.4-0.2,0.8-0.4,1.2s-0.5,0.8-0.8,1.1s-0.6,0.6-1,0.8c-0.4,0.3-0.9,0.5-1.4,0.8L126.9,66.9z
				 M128.4,64.7c0.9-0.4,1.5-0.8,1.9-1.3c0.3-0.4,0.5-0.9,0.6-1.4c0-0.5-0.1-1.1-0.4-1.7c-0.2-0.3-0.3-0.6-0.5-0.9
				c-0.2-0.2-0.4-0.4-0.7-0.6c-0.2-0.1-0.5-0.2-0.8-0.3s-0.6-0.1-0.8-0.1c-0.3,0-0.6,0.1-0.9,0.2c-0.3,0.1-0.6,0.2-1,0.4l-0.7,0.3
				l2.6,5.7L128.4,64.7z"/>
			<path class="st0" d="M141.1,56.2c0.9,0.7,1.6,1.4,2.2,1.9l0,0c-0.4-1.1-0.6-1.9-0.8-2.4l-1.1-3.9l1.6-0.5l2.5,8.7l-1.7,0.5
				l-4-3.2c-0.7-0.6-1.4-1.2-2.2-2l0,0c0.4,1.1,0.6,1.9,0.8,2.5l1.1,3.9l-1.6,0.5l-2.5-8.7l1.7-0.5L141.1,56.2z"/>
			<path class="st0" d="M152.1,56.5l-3.4,0.5l-0.5,2.4l-1.7,0.3l2.1-9.5l1.5-0.2l5,8.4l-1.7,0.3L152.1,56.5z M149.7,52.3
				c-0.2,1-0.3,1.8-0.5,2.5l-0.2,0.8l2.3-0.4l-0.4-0.7C150.6,53.9,150.2,53.1,149.7,52.3L149.7,52.3z"/>
			<path class="st0" d="M160,50.3c-0.5,0-0.9,0.1-1.2,0.3c-0.4,0.2-0.7,0.4-0.9,0.7c-0.3,0.3-0.4,0.7-0.6,1.1
				c-0.1,0.4-0.2,0.9-0.1,1.4c0,0.5,0.1,1,0.3,1.4s0.4,0.7,0.7,1s0.6,0.4,1,0.6c0.4,0.1,0.8,0.2,1.3,0.1c0.3,0,0.7-0.1,1-0.1
				c0.4-0.1,0.7-0.2,1-0.3l0.1,1.4c-0.3,0.1-0.6,0.2-1,0.3s-0.7,0.1-1.1,0.1c-0.8,0-1.4,0-2-0.2s-1.1-0.5-1.5-0.8
				c-0.4-0.4-0.7-0.8-1-1.4c-0.2-0.5-0.4-1.2-0.4-1.8c0-0.7,0-1.3,0.2-1.9c0.2-0.6,0.4-1.1,0.8-1.6c0.4-0.5,0.8-0.8,1.4-1.1
				s1.2-0.4,2-0.5c0.4,0,0.7,0,1.1,0c0.3,0,0.7,0.1,0.9,0.2l0.1,1.4c-0.4-0.1-0.7-0.2-1-0.2C160.6,50.3,160.3,50.3,160,50.3z"/>
			<path class="st0" d="M164,58l0.1-9.1h1.7l-0.1,9.1H164z"/>
			<path class="st0" d="M176.4,54.4c-0.1,0.7-0.2,1.3-0.5,1.9c-0.3,0.6-0.6,1-1,1.4s-0.9,0.7-1.5,0.8c-0.6,0.2-1.2,0.2-1.9,0.2
				c-0.7-0.1-1.3-0.2-1.8-0.5s-1-0.7-1.3-1.1c-0.3-0.5-0.6-1-0.7-1.6c-0.1-0.6-0.2-1.2-0.1-1.9c0.1-0.7,0.2-1.3,0.5-1.9
				c0.3-0.6,0.6-1,1-1.4s0.9-0.7,1.5-0.8c0.6-0.2,1.2-0.2,1.9-0.2c0.7,0.1,1.3,0.2,1.8,0.5s1,0.7,1.3,1.1c0.3,0.5,0.6,1,0.7,1.6
				C176.4,53,176.5,53.7,176.4,54.4z M174.7,54.2c0.1-0.5,0-1-0.1-1.5c-0.1-0.4-0.2-0.8-0.5-1.1c-0.2-0.3-0.5-0.5-0.8-0.7
				s-0.7-0.3-1.1-0.3c-0.4,0-0.8,0-1.1,0.1s-0.6,0.3-0.9,0.5c-0.3,0.3-0.5,0.6-0.7,1s-0.3,0.9-0.3,1.4c-0.1,0.5,0,1,0.1,1.5
				c0.1,0.4,0.2,0.8,0.5,1.1c0.2,0.3,0.5,0.5,0.8,0.7s0.7,0.3,1.1,0.3c0.4,0,0.8,0,1.1-0.1s0.6-0.3,0.9-0.5c0.3-0.2,0.5-0.6,0.7-1
				C174.5,55.2,174.6,54.8,174.7,54.2z"/>
			<path class="st0" d="M183.1,55.5c0.4,1,0.8,2,1,2.8l0,0c0.2-1.2,0.4-2,0.5-2.5l0.9-4l1.6,0.4l-2,8.8l-1.7-0.4l-2-4.7
				c-0.3-0.8-0.7-1.8-1-2.8l0,0c-0.2,1.1-0.4,1.9-0.5,2.5l-0.9,4l-1.6-0.4l2-8.8l1.7,0.4L183.1,55.5z"/>
			<path class="st0" d="M192.6,61l-3.2-1.1l-1.6,1.9l-1.7-0.6l6.4-7.3l1.4,0.5l0.3,9.7l-1.7-0.6L192.6,61z M192.5,56.1
				c-0.6,0.8-1.1,1.4-1.6,2l-0.6,0.7l2.2,0.8v-0.9C192.5,58,192.5,57.2,192.5,56.1L192.5,56.1z"/>
			<path class="st0" d="M200.6,57.1l-3.3,6.9l3.8,1.8l-0.6,1.3l-5.3-2.5l3.9-8.2L200.6,57.1z"/>
			<path class="st0" d="M204.2,69.1l5-7.6l2,1.3c0.2,0.1,0.4,0.2,0.5,0.4s0.3,0.3,0.5,0.4c0.2,0.1,0.3,0.3,0.4,0.4
				c0.1,0.1,0.3,0.3,0.4,0.4c0.3,0.4,0.6,0.8,0.7,1.2c0.2,0.4,0.3,0.9,0.3,1.3s0,0.9-0.2,1.3c-0.1,0.4-0.3,0.9-0.6,1.3
				s-0.6,0.8-0.9,1.1c-0.3,0.3-0.7,0.5-1.1,0.7c-0.4,0.2-0.8,0.3-1.2,0.3s-0.9,0-1.4-0.1c-0.4-0.1-0.8-0.2-1.3-0.4
				c-0.4-0.2-0.9-0.5-1.4-0.8L204.2,69.1z M206.9,69.2c0.8,0.5,1.5,0.8,2.1,0.9c0.5,0.1,1,0,1.5-0.3c0.5-0.2,0.9-0.7,1.3-1.3
				c0.2-0.3,0.4-0.6,0.4-0.9c0.1-0.3,0.1-0.6,0.1-0.9s0-0.5-0.1-0.8s-0.2-0.5-0.4-0.8c-0.2-0.2-0.4-0.4-0.6-0.7
				c-0.2-0.2-0.5-0.4-0.8-0.6l-0.6-0.4l-3.5,5.2L206.9,69.2z"/>
			<path class="st0" d="M214,74.3l3.4,2.8l-0.9,1.1l-4.7-3.9l5.8-7l4.5,3.7l-0.9,1.1l-3.2-2.7l-1.5,1.8l2.8,2.3l-0.9,1.1l-2.8-2.3
				L214,74.3z"/>
			<path class="st0" d="M225.2,74l-5.4,5.4l3,3l-1,1l-4.2-4.2l6.4-6.4L225.2,74z"/>
			<path class="st0" d="M233.1,84.7c-0.3-0.4-0.6-0.6-0.9-0.8c-0.4-0.2-0.7-0.3-1.1-0.4c-0.4,0-0.8,0-1.2,0.1s-0.8,0.4-1.3,0.7
				c-0.4,0.3-0.7,0.7-1,1c-0.2,0.4-0.4,0.7-0.4,1.1c-0.1,0.4,0,0.7,0.1,1.1s0.3,0.8,0.6,1.1c0.2,0.3,0.4,0.5,0.7,0.8
				c0.3,0.2,0.5,0.5,0.8,0.6l-1.1,0.9c-0.3-0.2-0.5-0.4-0.8-0.7c-0.3-0.3-0.5-0.5-0.8-0.8c-0.5-0.6-0.8-1.2-1-1.8
				c-0.2-0.6-0.2-1.2-0.2-1.7c0.1-0.6,0.3-1.1,0.6-1.6s0.7-1,1.3-1.4c0.5-0.4,1.1-0.7,1.7-0.9c0.6-0.2,1.2-0.3,1.8-0.2
				c0.6,0,1.2,0.2,1.7,0.5c0.6,0.3,1.1,0.8,1.5,1.3c0.2,0.3,0.4,0.6,0.6,0.9c0.2,0.3,0.3,0.6,0.4,0.9l-1.1,0.9
				c-0.1-0.4-0.3-0.7-0.4-0.9C233.5,85.2,233.3,85,233.1,84.7z"/>
			<path class="st0" d="M231.1,93l2.4,3.8l-1.2,0.7l-3.3-5.1l7.6-4.9l3.2,4.9l-1.2,0.7l-2.3-3.5l-2,1.3l1.9,3l-1.2,0.7l-1.9-3
				L231.1,93z"/>
			<path class="st0" d="M239.5,100.9c-0.5,1-1,1.8-1.5,2.5l0,0c1-0.6,1.8-1,2.3-1.2l3.7-1.8l0.7,1.5l-8.1,4l-0.8-1.6l2.4-4.5
				c0.4-0.8,0.9-1.6,1.5-2.6l0,0c-1,0.5-1.7,0.9-2.3,1.2l-3.7,1.8l-0.7-1.5l8.1-4l0.8,1.6L239.5,100.9z"/>
			<path class="st0" d="M238.6,111.2l-0.6-1.6l7.2-2.6l-1-2.7l1.3-0.5l2.6,7l-1.3,0.5l-1-2.7L238.6,111.2z"/>
			<path class="st0" d="M247.6,119.8c-0.6,0.2-1.2,0.1-1.7-0.1s-1-0.7-1.3-1.3l0,0l-3,3.5l-0.5-1.9l2.8-3.2l-0.3-1.1l-3.4,0.9
				l-0.4-1.6l8.8-2.2l0.7,2.7c0.1,0.4,0.2,0.9,0.2,1.3s0.1,0.7,0,1c-0.1,0.6-0.3,1-0.6,1.4C248.6,119.4,248.2,119.7,247.6,119.8z
				 M245.2,116.1c0.1,0.4,0.2,0.7,0.3,0.9c0.1,0.2,0.2,0.5,0.3,0.6c0.2,0.3,0.4,0.5,0.7,0.5c0.2,0.1,0.5,0.1,0.8,0
				c0.2-0.1,0.4-0.2,0.6-0.3c0.2-0.1,0.3-0.3,0.3-0.6c0-0.2,0-0.4,0-0.6s-0.1-0.5-0.2-0.9l-0.3-1.1l-2.7,0.7L245.2,116.1z"/>
			<path class="st0" d="M247.4,130.9c-0.7,0.1-1.3,0.1-1.9,0c-0.6-0.1-1.1-0.3-1.6-0.7c-0.5-0.3-0.8-0.7-1.1-1.2s-0.5-1.1-0.6-1.8
				c-0.1-0.7-0.1-1.3,0.1-1.9c0.2-0.6,0.4-1.1,0.8-1.5c0.4-0.4,0.8-0.8,1.4-1c0.5-0.3,1.2-0.4,1.8-0.5c0.7-0.1,1.3-0.1,1.9,0
				c0.6,0.1,1.1,0.3,1.6,0.7c0.5,0.3,0.8,0.7,1.1,1.2s0.5,1.1,0.6,1.8c0.1,0.7,0.1,1.3-0.1,1.9c-0.2,0.6-0.4,1.1-0.8,1.5
				c-0.4,0.4-0.8,0.8-1.4,1C248.7,130.6,248.1,130.8,247.4,130.9z M247.2,129.2c0.5-0.1,1-0.2,1.4-0.4s0.7-0.4,1-0.7
				c0.2-0.3,0.4-0.6,0.5-0.9s0.1-0.7,0.1-1.1c-0.1-0.4-0.2-0.7-0.3-1c-0.2-0.3-0.4-0.6-0.7-0.8c-0.3-0.2-0.7-0.3-1.1-0.4
				c-0.4-0.1-0.9-0.1-1.5,0c-0.5,0.1-1,0.2-1.4,0.4c-0.4,0.2-0.7,0.4-0.9,0.7c-0.2,0.3-0.4,0.6-0.5,0.9s-0.1,0.7-0.1,1.1
				c0.1,0.4,0.2,0.7,0.3,1c0.2,0.3,0.4,0.6,0.7,0.8s0.7,0.3,1.1,0.4C246.2,129.2,246.6,129.2,247.2,129.2z"/>
		</g>
		<g>
			<g>
				<path class="st0" d="M77.4,157l8.5-2.6l0.7,2.3c0.1,0.2,0.1,0.4,0.2,0.6s0.1,0.4,0.1,0.6c0,0.2,0.1,0.4,0.1,0.6
					c0,0.2,0,0.4,0,0.6c0,0.5-0.1,1-0.2,1.4s-0.3,0.8-0.6,1.2c-0.3,0.3-0.6,0.6-1,0.9c-0.4,0.3-0.8,0.5-1.3,0.6s-0.9,0.2-1.3,0.2
					s-0.8,0-1.2-0.1c-0.4-0.1-0.8-0.3-1.1-0.5c-0.3-0.2-0.7-0.6-1-0.9c-0.2-0.3-0.5-0.7-0.7-1.2c-0.2-0.4-0.4-1-0.6-1.5L77.4,157z
					 M79.4,158.8c0.3,0.9,0.6,1.6,1,2.1c0.4,0.4,0.8,0.6,1.3,0.7c0.5,0.1,1.1,0.1,1.7-0.2c0.3-0.1,0.6-0.2,0.9-0.4s0.5-0.4,0.6-0.6
					c0.2-0.2,0.3-0.5,0.4-0.7c0.1-0.3,0.2-0.5,0.2-0.8s0-0.6,0-0.9c0-0.3-0.1-0.7-0.2-1l-0.2-0.7l-5.9,1.8L79.4,158.8z"/>
				<path class="st0" d="M82.4,167.6l1.7,4.1l-1.3,0.5l-2.3-5.6l8.2-3.5l2.2,5.4l-1.3,0.5l-1.6-3.9l-2.1,0.9l1.4,3.3l-1.3,0.5
					l-1.4-3.3L82.4,167.6z"/>
				<path class="st0" d="M93.7,174l-6.5,3.8l2.1,3.7l-1.2,0.7l-2.9-5.1l7.7-4.5L93.7,174z"/>
				<path class="st0" d="M94.1,186.8l-1.9-2.8l-2.3,0.6l-1-1.4l9.3-2.4l0.9,1.2l-5.2,8.2l-1-1.4L94.1,186.8z M96.7,182.8
					c-0.9,0.3-1.7,0.5-2.4,0.7l-0.8,0.2l1.3,1.9l0.5-0.7C95.7,184.3,96.2,183.6,96.7,182.8L96.7,182.8z"/>
				<path class="st0" d="M101.1,193.5c-0.1-0.1-0.2-0.2-0.3-0.3c-0.1-0.1-0.2-0.2-0.3-0.3l-2.5,2.4l-1.1-1.2l6.4-6.2l1.8,1.9
					c0.3,0.3,0.5,0.6,0.7,0.9c0.2,0.3,0.3,0.5,0.5,0.8c0.3,0.6,0.4,1.1,0.3,1.7c-0.1,0.5-0.3,1-0.8,1.5c-0.3,0.3-0.7,0.5-1,0.6
					c-0.4,0.1-0.8,0.1-1.2,0c-0.4-0.1-0.8-0.3-1.3-0.5C102,194.4,101.5,194,101.1,193.5z M101.5,191.9c0.1,0.1,0.1,0.2,0.2,0.3
					s0.2,0.2,0.3,0.3c0.3,0.3,0.6,0.6,0.8,0.7c0.3,0.2,0.5,0.3,0.7,0.3s0.4,0,0.6,0c0.2-0.1,0.4-0.2,0.5-0.3
					c0.2-0.2,0.3-0.4,0.4-0.6c0.1-0.2,0-0.5-0.1-0.8c-0.1-0.2-0.2-0.3-0.3-0.5c-0.1-0.2-0.3-0.4-0.6-0.6l-0.6-0.7L101.5,191.9z"/>
				<path class="st0" d="M112.1,200.1c-0.4,0.5-0.9,0.8-1.4,0.9c-0.5,0.1-1.2,0-1.8-0.3l0,0l-0.4,4.6L107,204l0.4-4.3l-0.8-0.7
					l-2.2,2.7l-1.2-1.1l5.8-6.9l2,1.8c0.3,0.3,0.6,0.6,0.9,0.9c0.3,0.3,0.5,0.6,0.6,0.8c0.3,0.5,0.4,1,0.3,1.5
					C112.7,199.1,112.4,199.6,112.1,200.1z M108,198.4c0.3,0.2,0.5,0.4,0.7,0.6c0.2,0.1,0.4,0.3,0.6,0.3c0.3,0.1,0.6,0.1,0.8,0.1
					c0.2-0.1,0.4-0.2,0.6-0.4s0.3-0.4,0.3-0.6c0-0.2,0-0.4-0.1-0.7c-0.1-0.2-0.2-0.3-0.3-0.5c-0.2-0.2-0.4-0.4-0.6-0.6l-0.9-0.8
					l-1.8,2.1L108,198.4z"/>
				<path class="st0" d="M119.4,207.6c-0.4,0.6-0.8,1-1.3,1.4s-1,0.6-1.5,0.7c-0.5,0.1-1.1,0.1-1.7,0s-1.1-0.4-1.7-0.8
					c-0.6-0.4-1-0.8-1.3-1.3s-0.5-1-0.6-1.6s0-1.1,0.1-1.7c0.2-0.6,0.4-1.2,0.8-1.7c0.4-0.6,0.8-1,1.3-1.4s1-0.6,1.5-0.7
					c0.5-0.1,1.1-0.1,1.7,0s1.1,0.4,1.7,0.8c0.6,0.4,1,0.8,1.3,1.3s0.5,1,0.6,1.6s0,1.1-0.1,1.7C120,206.4,119.8,207,119.4,207.6z
					 M118,206.6c0.3-0.5,0.5-0.9,0.6-1.3c0.1-0.4,0.2-0.8,0.1-1.2c0-0.4-0.2-0.7-0.3-1c-0.2-0.3-0.4-0.6-0.8-0.8s-0.6-0.4-1-0.4
					c-0.3-0.1-0.7-0.1-1,0s-0.7,0.3-1,0.5c-0.3,0.3-0.7,0.6-1,1.1s-0.5,0.9-0.6,1.3c-0.1,0.4-0.2,0.8-0.1,1.2c0,0.4,0.2,0.7,0.3,1
					c0.2,0.3,0.4,0.6,0.8,0.8c0.3,0.2,0.6,0.4,1,0.4c0.3,0.1,0.7,0.1,1,0s0.7-0.3,1-0.5C117.4,207.4,117.7,207,118,206.6z"/>
				<path class="st0" d="M122.7,212.1c0.4-0.4,0.6-0.6,0.8-0.8c0.2-0.1,0.5-0.5,1-0.9l3.5-3.2l1.5,0.8l-7.2,6.3l-1.3-0.7l1.1-9.7
					l1.5,0.8l-0.6,4.8c-0.1,0.7-0.2,1.1-0.2,1.4C122.9,211.2,122.8,211.5,122.7,212.1L122.7,212.1z"/>
				<path class="st0" d="M126.9,216.6l3.6-8.3l1.5,0.7l-3.6,8.3L126.9,216.6z"/>
				<path class="st0" d="M136.7,215.3c0.3,1.1,0.5,2,0.7,2.8l0,0c0.3-1.1,0.6-1.9,0.7-2.5l1.3-3.9l1.5,0.5l-2.9,8.6l-1.6-0.6
					l-1.4-4.9c-0.2-0.9-0.5-1.8-0.7-2.9l0,0c-0.3,1.1-0.6,1.9-0.8,2.5l-1.3,3.9l-1.5-0.5l2.9-8.6l1.6,0.6L136.7,215.3z"/>
				<path class="st0" d="M146.7,215c-0.4-0.1-0.8-0.1-1.2-0.1c-0.4,0.1-0.8,0.2-1.1,0.4s-0.6,0.5-0.8,0.9s-0.4,0.8-0.5,1.3
					s-0.2,1-0.1,1.4c0,0.4,0.2,0.8,0.4,1.1s0.5,0.6,0.8,0.8s0.7,0.4,1.2,0.5c0.3,0.1,0.7,0.1,1,0.2c0.4,0,0.7,0,1,0l-0.3,1.4
					c-0.3,0-0.7,0-1,0c-0.4,0-0.7-0.1-1.1-0.2c-0.7-0.2-1.4-0.4-1.9-0.8c-0.5-0.3-0.9-0.8-1.2-1.2c-0.3-0.5-0.5-1-0.5-1.6
					c-0.1-0.6,0-1.2,0.1-1.9c0.2-0.7,0.4-1.3,0.7-1.8s0.7-1,1.2-1.3s1-0.6,1.6-0.7c0.6-0.1,1.3-0.1,2,0.1c0.4,0.1,0.7,0.2,1,0.3
					s0.6,0.3,0.8,0.4l-0.3,1.4c-0.3-0.2-0.6-0.3-0.9-0.5C147.3,215.2,147,215.1,146.7,215z"/>
				<path class="st0" d="M149,223.4l1.4-8.9l1.6,0.3l-1.4,8.9L149,223.4z"/>
				<path class="st0" d="M158.4,222.2l-3.3-0.3l-1,2.2l-1.7-0.1l4.2-8.7l1.5,0.1l2.8,9.3l-1.7-0.1L158.4,222.2z M157,217.5
					c-0.4,0.9-0.7,1.7-1,2.3l-0.4,0.8l2.3,0.2l-0.2-0.8C157.5,219.3,157.3,218.5,157,217.5L157,217.5z"/>
				<path class="st0" d="M165.7,224.7l-0.6-9l2.3-0.2c0.2,0,0.4,0,0.6,0c0.2,0,0.4,0,0.6,0c0.2,0,0.4,0,0.6,0.1
					c0.2,0,0.4,0.1,0.5,0.1c0.5,0.1,0.9,0.3,1.3,0.5c0.4,0.2,0.7,0.5,1,0.9c0.3,0.3,0.5,0.7,0.6,1.2c0.2,0.4,0.2,0.9,0.3,1.4
					c0,0.5,0,0.9-0.1,1.4c-0.1,0.4-0.2,0.8-0.4,1.2s-0.4,0.7-0.8,1c-0.3,0.3-0.7,0.5-1.1,0.7c-0.4,0.2-0.8,0.3-1.3,0.4
					c-0.5,0.1-1,0.2-1.6,0.2L165.7,224.7z M167.9,223.1c0.9-0.1,1.7-0.2,2.2-0.5s0.8-0.6,1-1.1s0.3-1.1,0.3-1.8c0-0.4-0.1-0.7-0.2-1
					c-0.1-0.3-0.2-0.5-0.4-0.8c-0.2-0.2-0.4-0.4-0.6-0.6c-0.2-0.2-0.5-0.3-0.8-0.4c-0.3-0.1-0.5-0.1-0.9-0.2c-0.3,0-0.7,0-1,0h-0.7
					l0.4,6.3L167.9,223.1z"/>
				<path class="st0" d="M177,222.2l4.3-0.7l0.2,1.4l-5.9,1l-1.5-8.9l5.7-1l0.2,1.4l-4,0.6l0.4,2.3l3.5-0.6l0.2,1.4l-3.5,0.6
					L177,222.2z"/>
				<path class="st0" d="M190.9,213.3c0.1,0.4,0.1,0.7,0.1,1.1c-0.1,0.4-0.3,0.7-0.6,1l0,0c0.2,0,0.5,0,0.7,0.1s0.4,0.1,0.6,0.3
					c0.2,0.1,0.3,0.3,0.5,0.4c0.1,0.2,0.2,0.4,0.3,0.6c0.1,0.2,0.1,0.4,0.1,0.7s0,0.5-0.1,0.8s-0.3,0.6-0.5,0.8
					c-0.2,0.3-0.5,0.5-0.9,0.8c-0.1,0.1-0.2,0.1-0.3,0.2c-0.1,0.1-0.3,0.1-0.4,0.2c-0.1,0.1-0.3,0.1-0.5,0.2
					c-0.2,0.1-0.4,0.1-0.6,0.2l-2.5,0.8l-2.6-8.6l2.9-0.9c0.6-0.2,1.2-0.3,1.6-0.3c0.3,0,0.6,0,0.9,0.1c0.3,0.1,0.5,0.2,0.7,0.3
					s0.4,0.3,0.5,0.5C190.7,212.9,190.8,213.1,190.9,213.3z M188.1,215.5c0.4-0.1,0.7-0.3,0.9-0.4c0.2-0.2,0.3-0.4,0.4-0.6
					c0-0.2,0-0.4,0-0.6c-0.1-0.2-0.2-0.4-0.4-0.6c-0.2-0.1-0.4-0.2-0.7-0.2c-0.1,0-0.3,0-0.4,0.1c-0.2,0-0.3,0.1-0.6,0.2l-1.3,0.4
					l0.7,2.2L188.1,215.5z M187.1,217.3l0.7,2.4l1-0.3c0.3-0.1,0.5-0.2,0.7-0.2c0.2-0.1,0.3-0.2,0.5-0.2c0.2-0.1,0.4-0.2,0.5-0.4
					s0.2-0.3,0.3-0.4c0.1-0.1,0.1-0.3,0.1-0.4c0-0.1,0-0.3-0.1-0.4c-0.1-0.2-0.2-0.4-0.4-0.6c-0.2-0.1-0.4-0.2-0.7-0.2
					c-0.1,0-0.3,0-0.5,0.1c-0.2,0-0.4,0.1-0.6,0.2L187.1,217.3z"/>
				<path class="st0" d="M198.8,217.4c-0.4,0.2-0.8,0.3-1.2,0.4c-0.4,0.1-0.7,0.1-1.1,0c-0.3,0-0.6-0.1-0.9-0.3
					c-0.3-0.1-0.5-0.3-0.8-0.6c-0.2-0.2-0.4-0.4-0.5-0.7c-0.2-0.3-0.3-0.6-0.5-0.9l-2.1-4.9l1.5-0.7l2,4.8c0.2,0.6,0.5,1,0.8,1.3
					s0.6,0.5,1,0.5s0.7,0,1.2-0.2c0.4-0.2,0.7-0.4,0.9-0.7s0.3-0.7,0.3-1.1c0-0.4-0.1-0.9-0.4-1.5l-2-4.8l1.5-0.7l2.1,4.9
					c0.1,0.3,0.3,0.7,0.3,1c0.1,0.3,0.1,0.6,0.1,0.9c0,0.3,0,0.7-0.1,1s-0.2,0.6-0.4,0.9c-0.2,0.3-0.5,0.5-0.8,0.8
					C199.6,217,199.2,217.2,198.8,217.4z"/>
				<path class="st0" d="M205.3,212.4l3.8-2.2l0.7,1.2l-5.2,3l-4.4-7.9l5-2.9l0.7,1.2l-3.6,2.1l1.1,2l3.1-1.8l0.7,1.2l-3.1,1.8
					L205.3,212.4z"/>
				<path class="st0" d="M212.8,203.5c1,0.4,1.9,0.7,2.7,1.1l0,0c-0.7-0.9-1.2-1.6-1.5-2l-2.3-3.3l1.3-1l5.2,7.4l-1.4,1l-4.7-1.7
					c-0.8-0.3-1.7-0.7-2.7-1.1l0,0c0.7,0.9,1.2,1.6,1.5,2.1l2.3,3.3l-1.3,1l-5.2-7.4l1.4-1L212.8,203.5z"/>
				<path class="st0" d="M223.4,194.8c0.5,0.5,0.8,1,1,1.6s0.4,1.1,0.4,1.7c0,0.6-0.1,1.1-0.4,1.6c-0.2,0.5-0.6,1-1.1,1.5
					s-1,0.8-1.6,1s-1.1,0.3-1.6,0.2s-1.1-0.2-1.6-0.5s-1-0.7-1.5-1.2s-0.8-1-1-1.6s-0.4-1.1-0.4-1.7c0-0.6,0.1-1.1,0.4-1.6
					c0.2-0.5,0.6-1,1.1-1.5s1-0.8,1.6-1s1.1-0.3,1.6-0.2s1.1,0.2,1.6,0.5C222.5,193.8,223,194.2,223.4,194.8z M222.2,195.9
					c-0.4-0.4-0.7-0.7-1.1-0.9c-0.4-0.2-0.7-0.3-1.1-0.4c-0.4,0-0.7,0-1,0.1s-0.6,0.3-0.9,0.6c-0.3,0.3-0.5,0.6-0.7,0.9
					c-0.2,0.3-0.2,0.7-0.2,1c0,0.4,0.1,0.7,0.3,1.1c0.2,0.4,0.4,0.8,0.8,1.2c0.4,0.4,0.7,0.7,1.1,0.9c0.4,0.2,0.7,0.3,1.1,0.4
					c0.4,0,0.7,0,1-0.1s0.6-0.3,0.9-0.6c0.3-0.3,0.5-0.6,0.6-0.9c0.1-0.3,0.2-0.7,0.2-1c0-0.4-0.1-0.7-0.3-1.1
					C222.8,196.7,222.6,196.3,222.2,195.9z"/>
				<path class="st0" d="M229,191.3c-0.2-0.2-0.3-0.2-0.5-0.2s-0.4,0-0.6,0.1c-0.2,0.1-0.4,0.2-0.6,0.3c-0.2,0.1-0.4,0.3-0.6,0.5
					c-0.3,0.2-0.6,0.4-0.9,0.6c-0.3,0.2-0.6,0.3-0.9,0.3c-0.3,0.1-0.6,0-0.9,0c-0.3-0.1-0.6-0.3-0.9-0.6c-0.4-0.3-0.6-0.7-0.8-1
					c-0.2-0.4-0.2-0.7-0.2-1.1s0.1-0.7,0.3-1.1c0.2-0.4,0.4-0.7,0.7-1.1c0.3-0.4,0.7-0.7,1.1-1c0.4-0.3,0.7-0.5,1.1-0.7l1,0.9
					c-0.4,0.2-0.8,0.5-1.2,0.7c-0.3,0.3-0.6,0.5-0.9,0.8c-0.4,0.4-0.6,0.8-0.6,1.1c0,0.4,0.1,0.7,0.4,0.9c0.2,0.2,0.3,0.2,0.5,0.3
					c0.2,0,0.3,0,0.5-0.1s0.4-0.2,0.5-0.3c0.2-0.1,0.4-0.3,0.6-0.4c0.3-0.2,0.6-0.4,0.9-0.6c0.3-0.2,0.6-0.3,0.9-0.4
					c0.3-0.1,0.6-0.1,1,0c0.3,0.1,0.7,0.3,1,0.6c0.4,0.3,0.6,0.7,0.8,1c0.1,0.4,0.2,0.8,0.1,1.2c0,0.4-0.2,0.8-0.4,1.2
					s-0.5,0.9-0.9,1.3c-0.3,0.4-0.7,0.7-1.1,1c-0.4,0.3-0.7,0.5-1.1,0.6l-1-0.9c0.4-0.2,0.8-0.4,1.2-0.7c0.3-0.3,0.7-0.6,1-0.9
					c0.2-0.2,0.3-0.4,0.5-0.6c0.1-0.2,0.2-0.4,0.3-0.7c0.1-0.2,0.1-0.4,0-0.6C229.3,191.7,229.2,191.5,229,191.3z"/>
				<path class="st0" d="M236,182.4l-1.9,2.8l1.4,2l-1,1.5l-5.3-8.1l0.8-1.3l9.3,2.1l-1,1.4L236,182.4z M231.3,181.2
					c0.6,0.8,1.1,1.5,1.5,2l0.5,0.7l1.3-1.9l-0.8-0.2C233.1,181.7,232.3,181.4,231.3,181.2L231.3,181.2z"/>
				<path class="st0" d="M240.1,179.9l-7.7-4.5l0.8-1.4l7.7,4.5L240.1,179.9z"/>
				<path class="st0" d="M239.4,167.5c0.6,0.3,1,0.7,1.2,1.2s0.3,1.1,0.2,1.9l0,0l4.4-0.8l-0.8,1.8l-4.1,0.7l-0.5,1l3.1,1.5
					l-0.7,1.5l-8-3.9l1.2-2.5c0.2-0.4,0.4-0.8,0.6-1.1c0.2-0.3,0.4-0.6,0.6-0.8c0.4-0.4,0.8-0.6,1.3-0.7
					C238.4,167.1,238.9,167.2,239.4,167.5z M238.9,171.9c0.2-0.3,0.3-0.6,0.4-0.9c0.1-0.3,0.1-0.5,0.1-0.7c0-0.4,0-0.6-0.2-0.8
					s-0.3-0.4-0.6-0.5c-0.2-0.1-0.4-0.2-0.6-0.1c-0.2,0-0.4,0.1-0.6,0.3c-0.1,0.1-0.3,0.3-0.4,0.5c-0.1,0.2-0.3,0.5-0.4,0.8
					l-0.5,1.1l2.5,1.2L238.9,171.9z"/>
				<path class="st0" d="M245.3,165.8l1.5-4.2l1.3,0.5l-2.1,5.7l-8.3-3.1l2-5.5l1.3,0.5l-1.4,4l2.2,0.8l1.2-3.4l1.3,0.5l-1.2,3.4
					L245.3,165.8z"/>
				<path class="st0" d="M247.3,154.9c-0.2-0.1-0.4,0-0.6,0c-0.2,0.1-0.3,0.2-0.4,0.4c-0.1,0.2-0.3,0.4-0.4,0.6
					c-0.1,0.2-0.2,0.5-0.3,0.7c-0.2,0.3-0.3,0.6-0.5,0.9c-0.2,0.3-0.4,0.5-0.6,0.7c-0.2,0.2-0.5,0.3-0.8,0.4c-0.3,0.1-0.7,0-1.1-0.1
					c-0.5-0.1-0.8-0.3-1.1-0.6s-0.5-0.5-0.7-0.9c-0.2-0.3-0.2-0.7-0.2-1.1c0-0.4,0-0.8,0.2-1.3c0.1-0.5,0.3-0.9,0.5-1.4
					c0.2-0.4,0.4-0.8,0.7-1.1l1.3,0.4c-0.3,0.4-0.5,0.8-0.7,1.2s-0.3,0.8-0.4,1.1c-0.1,0.5-0.1,1,0,1.3s0.4,0.6,0.7,0.7
					c0.2,0.1,0.4,0.1,0.6,0c0.2-0.1,0.3-0.2,0.4-0.3c0.1-0.1,0.3-0.3,0.4-0.5c0.1-0.2,0.2-0.4,0.3-0.6c0.2-0.3,0.4-0.7,0.5-1
					c0.2-0.3,0.4-0.6,0.7-0.8c0.2-0.2,0.5-0.4,0.9-0.4c0.3-0.1,0.7-0.1,1.2,0.1c0.5,0.1,0.8,0.3,1.1,0.6s0.5,0.6,0.6,1
					s0.2,0.8,0.2,1.3s-0.1,1-0.2,1.5c-0.1,0.5-0.3,0.9-0.5,1.4c-0.2,0.4-0.4,0.8-0.7,1l-1.3-0.4c0.3-0.4,0.5-0.8,0.7-1.2
					s0.3-0.8,0.5-1.2c0.1-0.3,0.1-0.5,0.1-0.8s0-0.5,0-0.7s-0.1-0.4-0.3-0.6C247.8,155,247.6,154.9,247.3,154.9z"/>
			</g>
		</g>
	</g>
</g>
</svg>
