<?xml version="1.0" encoding="utf-8"?>
<!-- Generator: Adobe Illustrator 21.0.0, SVG Export Plug-In . SVG Version: 6.00 Build 0)  -->
<svg version="1.1" id="Capa_1" xmlns="http://www.w3.org/2000/svg" xmlns:xlink="http://www.w3.org/1999/xlink" x="0px" y="0px"
	 viewBox="0 0 312.2 298.5" style="enable-background:new 0 0 312.2 298.5;" xml:space="preserve">
<style type="text/css">
	.st0{fill:#FFCF04;}
</style>
<g>
	<polygon class="st0" points="202.4,147.7 181.3,147.7 172.6,160.5 183.2,176 	"/>
	<polygon class="st0" points="172.6,198.5 181.3,211.3 202.4,211.3 183.2,182.9 	"/>
	<polygon class="st0" points="169.8,164.6 158.3,147.7 137.1,147.7 158.8,179.5 137.1,211.3 158.3,211.3 169.8,194.4 179.9,179.5 	
		"/>
	<path class="st0" d="M148.6,180.2c0-0.2,0-0.5,0-0.7v-6.7l-16.9-24.9V180c-0.3,8-6.8,14.3-14.9,14.3s-14.6-6.4-14.8-14.4l0,0v-16.5
		c0-8.7-7.1-15.8-15.8-15.8H85v33.8c0,0.1,0,0.2,0,0.5c1.3,16.4,15.1,29.3,31.8,29.3C134.1,211.3,148.2,197.4,148.6,180.2z"/>
	<path class="st0" d="M75.6,193.3c-8.2,0-14.9-6.6-14.9-14.8v-15h20.8v-15.8H60.7v-15.4h-1.2c-8.6,0-15.6,6.9-15.7,15.4h-5.3v15.8
		h5.3v15.9c0,0.2,0,0.5,0,0.7c0.8,16.8,14.8,30.2,31.8,30.2c6.2,0,11.9-1.8,16.8-4.8c-4-4-7.2-8.8-9-14.3
		C81.1,192.5,78.4,193.3,75.6,193.3z"/>
	<path class="st0" d="M238.3,148v3.4l0,0v27.2c0,0.3,0,0.6,0,0.9c0,8.2-6.7,14.9-14.9,14.9s-14.9-6.7-14.9-14.9s6.7-14.9,14.9-14.9
		c3.9,0,6.6,0.1,10.2,0.1v-17c-3.4,0-6.6,0-10.2,0c-17.6,0-31.8,14.2-31.8,31.8s14.2,31.8,31.8,31.8c17.5,0,31.7-14.2,31.8-31.6l0,0
		v-47.3H254C245.3,132.3,238.3,139.3,238.3,148z"/>
	<path class="st0" d="M259.2,132.3v15.4H276C275.3,139.1,268,132.3,259.2,132.3z"/>
	<path class="st0" d="M259.2,150.4v60.8c9.4,0,16.9-7.6,16.9-16.9v-43.9H259.2z"/>
</g>
</svg>
