<?xml version="1.0" encoding="utf-8"?>
<!-- Generator: Adobe Illustrator 21.0.0, SVG Export Plug-In . SVG Version: 6.00 Build 0)  -->
<svg version="1.1" id="Capa_1" xmlns="http://www.w3.org/2000/svg" xmlns:xlink="http://www.w3.org/1999/xlink" x="0px" y="0px"
	 viewBox="0 0 840.9 298.5" style="enable-background:new 0 0 840.9 298.5;" xml:space="preserve">
<style type="text/css">
	.st0{fill:#FFCF04;}
</style>
<g>
	<path class="st0" d="M103.3,73.9l3,7.5c0.2,0.5,0.7,0.5,1,0.3l5.4-6c0.4-0.5,0.9-0.3,0.7,0.4l-1,7.1c0,0.5,0.5,0.6,0.8,0.5l8.4-3.1
		c0.5-0.3,0.9-0.1,0.5,0.4l-5.4,5.9c-0.4,0.3-0.3,0.8,0.1,1l8.2,2.5l0.6,0.2c0.8,0.2,0.7,0.6-0.1,0.9l-7.2,2.5
		c-0.3,0.1-0.5,0.4-0.1,0.7l3.2,1.2c-0.9,0-1.9,0-3,0.1h-0.1c-3,0.1-5.4,0.4-7.9,0.8c-5.1,0.7-11.5,3-17.9,5.7l1.9-3.7
		c0.2-0.3,0-0.7-0.5-0.8l-7.2-1c-0.9,0-1.4-0.6-0.2-1.1l7.2-3c0.4-0.2,0.4-0.6,0-0.8L87,87.9c-1.1-0.6-0.9-1.1,0.2-1.2l8.3,0.2
		l0.6-0.7l-3.6-8.8c-0.2-0.5,0.3-0.7,0.6-0.4l6.7,5.8c0.3,0.2,0.8,0.2,1-0.2l1.7-8.7C102.6,73.4,103.2,73.4,103.3,73.9z"/>
	<path class="st0" d="M118.4,95.8c10.9-0.5,16,1.1,21.5,4.7c2.9,1.9,5.1,5,7.6,8.5c1,1.4,2.5,3.2,5.8,5.4
		c-12.6-3.5-19.7-1.1-28.8-6.2C119.8,105.5,117.6,102.9,118.4,95.8z"/>
	<path class="st0" d="M34.2,139.4c-2.2-1.1,21.2-15.9,34.8-24.6c0.1-0.1,0.1,0,0.2-0.1c-0.2,1.3-0.3,2.9,0.7,5.7
		c0.8,2.3,3.4,6.1,6,9.5C62.1,129.1,46.3,133.2,34.2,139.4z"/>
	<path class="st0" d="M69.5,193.9c0,4.8-1,8.6-2.9,11.6c-2.2,3.4-5.6,5.1-10.2,5.1c-4.3,0-7.7-1.6-10.4-4.9v14.8H36v-60.1h10v4.9
		c2.6-3.3,6.1-4.9,10.4-4.9c4.5,0,7.9,1.7,10.2,5.1c1.9,2.9,2.9,6.8,2.9,11.6V193.9L69.5,193.9z M59.5,193.9v-16.7
		c0-2.7-0.4-4.5-1.3-5.4c-0.9-0.9-2.6-1.3-5.4-1.3c-2.7,0-4.5,0.4-5.4,1.3c-0.9,0.9-1.3,2.6-1.3,5.4v16.7c0,2.7,0.4,4.5,1.3,5.4
		c0.9,0.9,2.7,1.3,5.4,1.3s4.5-0.4,5.4-1.3C59,198.5,59.5,196.7,59.5,193.9L59.5,193.9z M86.2,210.7h-10v-53.5h10V210.7L86.2,210.7z
		 M126.4,210.7h-10v-4.9c-2.6,3.3-6,4.9-10.4,4.9c-4.5,0-7.9-1.7-10.2-5.1c-1.9-3-2.9-6.8-2.9-11.6c0-4.7,1-8.6,2.9-11.6
		c2.2-3.4,5.6-5.1,10.2-5.1c4.3,0,7.8,1.6,10.4,4.9v-4.9c0-2.6-0.5-4.4-1.4-5.3c-0.9-0.9-2.7-1.3-5.3-1.3H96.3v-10h13.4
		c11.2,0,16.7,5.6,16.7,16.7L126.4,210.7L126.4,210.7z M116.3,193.9c0-2.6-0.5-4.4-1.4-5.3c-0.9-0.9-2.7-1.3-5.3-1.3
		c-2.7,0-4.5,0.4-5.4,1.3c-0.9,0.9-1.3,2.7-1.3,5.3c0,2.7,0.4,4.5,1.3,5.4s2.7,1.3,5.4,1.3c2.7,0,4.4-0.4,5.3-1.3
		C115.9,198.4,116.3,196.6,116.3,193.9L116.3,193.9z M166.5,210.7h-10v-4.9c-2.6,3.3-6.1,4.9-10.4,4.9c-4.5,0-7.9-1.7-10.2-5.1
		c-1.9-3-2.9-6.8-2.9-11.6v-16.7c0-4.8,1-8.7,2.9-11.6c2.2-3.4,5.6-5.1,10.2-5.1c4.3,0,7.7,1.6,10.4,4.9v-8.3h10V210.7L166.5,210.7z
		 M156.5,193.9v-16.7c0-2.7-0.4-4.5-1.3-5.4c-0.9-0.9-2.6-1.3-5.4-1.3c-2.7,0-4.5,0.4-5.4,1.3c-0.9,0.9-1.3,2.6-1.3,5.4v16.7
		c0,2.7,0.4,4.5,1.3,5.4c0.9,0.9,2.7,1.3,5.4,1.3s4.5-0.4,5.4-1.3C156,198.5,156.5,196.7,156.5,193.9L156.5,193.9z M206.6,193.9
		h-23.4v0.5c-0.1,2.5,0.4,4.2,1.4,5.1c1,0.8,2.7,1.2,5.3,1.2h13.4v10h-13.4c-11.2,0-16.7-5.6-16.7-16.8v-16.7
		c0-11.1,5.6-16.7,16.7-16.7c11.2,0,16.7,5.6,16.7,16.7V193.9L206.6,193.9z M196.6,183.9v-6.6c0-2.6-0.5-4.4-1.4-5.3
		c-0.9-0.9-2.7-1.3-5.3-1.3c-2.7,0-4.5,0.4-5.4,1.3c-0.9,0.9-1.3,2.7-1.3,5.3v6.6H196.6L196.6,183.9z M270.1,210.7h-10v-33.4
		c0-2.7-0.4-4.5-1.3-5.4s-2.7-1.3-5.4-1.3c-2.7,0-4.4,0.4-5.3,1.3c-0.9,0.9-1.3,2.7-1.3,5.4v33.4h-10v-33.4c0-2.7-0.5-4.5-1.4-5.4
		s-2.7-1.3-5.3-1.3c-2.7,0-4.5,0.4-5.4,1.3c-0.9,0.9-1.3,2.7-1.3,5.4v33.4h-10v-50.2h10v4.9c2.6-3.3,6.1-4.9,10.4-4.9
		c5.2,0,9,2.5,11.4,7.4c0.6-1.3,1.4-2.5,2.2-3.4s1.7-1.7,2.6-2.3c1-0.6,2-1,3.2-1.3s2.5-0.4,4-0.4c4.5,0,7.9,1.7,10.2,5.1
		c1.9,2.9,2.9,6.8,2.9,11.6v33.5H270.1z M310.3,210.7h-10v-4.9c-2.6,3.3-6,4.9-10.4,4.9c-4.5,0-7.9-1.7-10.2-5.1
		c-1.9-3-2.9-6.8-2.9-11.6c0-4.7,1-8.6,2.9-11.6c2.2-3.4,5.6-5.1,10.2-5.1c4.3,0,7.8,1.6,10.4,4.9v-4.9c0-2.6-0.5-4.4-1.4-5.3
		c-0.9-0.9-2.7-1.3-5.3-1.3h-13.4v-10h13.4c11.2,0,16.7,5.6,16.7,16.7L310.3,210.7L310.3,210.7z M300.2,193.9c0-2.6-0.5-4.4-1.4-5.3
		c-0.9-0.9-2.7-1.3-5.3-1.3c-2.7,0-4.5,0.4-5.4,1.3c-0.9,0.9-1.3,2.7-1.3,5.3c0,2.7,0.4,4.5,1.3,5.4s2.7,1.3,5.4,1.3
		c2.7,0,4.4-0.4,5.3-1.3C299.8,198.4,300.2,196.6,300.2,193.9z"/>
	<path class="st0" d="M70.3,113.7c8.8-5.4,28.3-15.4,40.2-17.1c1.8,15,10.6,17.7,26.3,17.6c4.9,0,8.7,0.1,12.2,0.6
		c7.1,1,19.2,3.7,29.2,9.7c7.3,4.4,15.8,13.1,22,21.9c0.2,0.2,0.3,0.3,0,0.2c-12.5-6.4-27.1-12.7-39.7-12.2
		c-17.9,0.7-25.7,4.7-33.6,10.3c-2-1.6-17.6-15.5-49.9-15.3C71.3,123.2,68.8,118.5,70.3,113.7z"/>
	<path class="st0" d="M559.9,206.4v-23.9c0-8.1-3.9-12.1-11.6-12.1c-4.2,0-8.5,1.8-12.6,5.3c-1.7-3.5-4.8-5.3-9.2-5.3
		c-3.9,0-7.9,1.6-12,4.7l-0.9-3.9h-7.5v35.2h8.9v-24.8c2.9-2.4,5.7-3.6,8.5-3.6c3.3,0,5.1,2.4,5.1,7.2v21.2h8.9v-23.6
		c0-0.7,0-1-0.1-1.3c2.9-2.4,5.7-3.6,8.5-3.6c2.1,0,3.5,0.7,4.3,2.2c0.5,1,0.8,2.7,0.8,4.9v21.3h8.9V206.4z M598.2,191.2v-2.6
		c0-5.5-1.4-9.9-4.3-13.2c-2.9-3.3-6.7-5-11.4-5c-4.8,0-8.8,1.8-11.7,5.4c-2.8,3.4-4.2,7.7-4.2,12.9c0,5.1,1.4,9.4,4.2,12.7
		c3.1,3.7,7.6,5.6,13.3,5.6c4.8,0,9.1-1.3,12.8-3.8l-2.2-5.7c-3,1.6-6.1,2.5-9.1,2.5c-2.7,0-5.1-0.8-7-2.5s-2.8-3.8-2.9-6.4h22.5
		V191.2z M588.9,184.9h-13.7c0-4.1,2.8-7.7,6.9-7.7c2.2,0,3.8,0.8,5.1,2.5C588.3,181,588.9,182.8,588.9,184.9L588.9,184.9z
		 M636.1,204.3v-50.5h-8.9v16.9c-1.4-0.2-2.9-0.3-4.5-0.3c-5.7,0-10.4,1.8-14,5.3s-5.4,8-5.4,13.4c0,5.7,1.9,10.2,5.6,13.5
		c3.5,3,8,4.5,13.5,4.5C627.9,207.1,632.5,206.2,636.1,204.3L636.1,204.3z M627.2,199.3c-1.3,0.4-2.6,0.5-4,0.5
		c-6.8,0-11-4.6-11-11.1c0-6.8,4.4-11.2,10.9-11.2c1.5,0,2.9,0.1,4.2,0.5v21.3H627.2z M655.3,160.4c0-3-2.4-5.4-5.6-5.4
		c-3,0-5.5,2.4-5.5,5.4s2.5,5.4,5.5,5.4C652.9,165.8,655.3,163.4,655.3,160.4L655.3,160.4z M654.2,206.4v-35.2h-8.9v35.2H654.2
		L654.2,206.4z M692.6,206.4c-0.4-1.3-0.7-4.4-0.7-9.3v-13.9c0-8.5-4.7-12.8-14-12.8c-5.3,0-9.8,1.3-13.8,3.9l2.9,5.6
		c2.8-1.7,5.9-2.6,9.1-2.6c4.5,0,6.7,2,6.7,5.9v0.9l-6.2,0.2c-9.1,0.3-14.7,4.4-14.7,11.5c0,6.8,4.9,11.2,11.5,11.2
		c3.9,0,7.3-1.3,10.2-3.8l1.5,3.1h7.5V206.4z M682.9,197.9c-1.7,1.5-3.9,2.2-6.3,2.2c-3.8,0-5.7-1.6-5.7-4.9c0-3,2.3-4.6,7-4.8
		l5.1-0.1L682.9,197.9L682.9,197.9z M709.8,202.1c0-3-2.2-5.4-5.1-5.4c-3,0-5.2,2.3-5.2,5.4c0,3,2.2,5.2,5.2,5.2
		C707.6,207.3,709.8,205.1,709.8,202.1L709.8,202.1z M732.5,205.4l-1.1-6.6c-1,0.2-1.8,0.4-2.6,0.4c-1.6,0-2.4-1.2-2.4-3.6v-41.7
		h-8.9v45.6c0,5.1,2.7,7.7,8.1,7.7C728,207.1,730.3,206.5,732.5,205.4L732.5,205.4z M766.6,206.4c-0.4-1.3-0.7-4.4-0.7-9.3v-13.9
		c0-8.5-4.7-12.8-14-12.8c-5.3,0-9.8,1.3-13.8,3.9l2.9,5.6c2.8-1.7,5.9-2.6,9.1-2.6c4.5,0,6.7,2,6.7,5.9v0.9l-6.2,0.2
		c-9.1,0.3-14.7,4.4-14.7,11.5c0,6.8,4.9,11.2,11.5,11.2c3.9,0,7.3-1.3,10.2-3.8l1.5,3.1h7.5V206.4z M756.8,197.9
		c-1.7,1.5-3.9,2.2-6.3,2.2c-3.8,0-5.7-1.6-5.7-4.9c0-3,2.3-4.6,7-4.8l5.1-0.1L756.8,197.9L756.8,197.9z M806.8,187.5
		c0-5.4-1.7-9.7-5.1-12.9c-3.1-2.8-7-4.2-11.7-4.2c-2.2,0-4.5,0.4-6.8,1v-17.7h-8.9v50.8c3,1.6,6.9,2.5,11.6,2.5
		c5.9,0,10.8-1.7,14.7-5.1C804.7,198.3,806.8,193.5,806.8,187.5L806.8,187.5z M797.9,188.3c0,3.3-1,6-3,8.3
		c-1.9,2.2-4.4,3.3-7.4,3.3c-1.7,0-3.2-0.2-4.4-0.7v-20.1c1.7-0.7,3.4-1.1,5-1.1c2.9,0,5.3,1,7.1,3C797,183,797.9,185.4,797.9,188.3
		z"/>
	<path class="st0" d="M454,184.3c-4.3,0-8.1,2.5-9.8,6.2l-12.6-1.8c-0.1-6-5-10.8-11-10.8c-1.6,0-3.1,0.3-4.5,0.9l-6.8-9.2
		c1.4-1.8,2.3-4,2.3-6.4c0-5.6-4.5-10.1-10.1-10.1s-10.1,4.5-10.1,10.1s4.5,10.1,10.1,10.1c1.3,0,2.4-0.2,3.6-0.7l6.9,9.3
		c-1.5,1.9-2.4,4.3-2.4,6.9c0,2.9,1.1,5.5,2.9,7.4l-4.7,6.4c-0.8-0.2-1.6-0.4-2.5-0.4c-5,0-9.1,4.1-9.1,9.1s4.1,9.1,9.1,9.1
		s9.1-4.1,9.1-9.1c0-2.2-0.8-4.3-2.2-5.8l4.6-6.3c1.2,0.4,2.5,0.7,3.8,0.7c4.3,0,8-2.5,9.8-6.1h0.1l12.6,1.8
		c0.2,5.9,5,10.6,10.9,10.6c6,0,10.9-4.9,10.9-10.9S460,184.3,454,184.3z"/>
	<rect x="355.5" y="148.9" class="st0" width="2.2" height="74.3"/>
</g>
</svg>
