<?xml version="1.0" encoding="utf-8"?>
<!-- Generator: Adobe Illustrator 21.0.0, SVG Export Plug-In . SVG Version: 6.00 Build 0)  -->
<svg version="1.1" id="Capa_1" xmlns="http://www.w3.org/2000/svg" xmlns:xlink="http://www.w3.org/1999/xlink" x="0px" y="0px"
	 viewBox="0 0 110.6 30.1" style="enable-background:new 0 0 110.6 30.1;" xml:space="preserve">
<style type="text/css">
	.st0{fill:#FFFFFF;}
	.st1{fill:#FFCF04;}
</style>
<g>
	<path class="st0" d="M2.3,3.8c0-1.2,0.9-2,2-2c1,0,2,0.7,2,2v17.4c0,1.2-0.9,2-2,2c-1,0-2-0.7-2-2V3.8z"/>
	<path class="st0" d="M9.4,9.1c0-1.4,0.7-2.1,1.7-2.1c1.1,0,1.7,0.7,1.7,2h0.1c0.6-1.3,2-2,3.3-2c2,0,3.4,1.2,3.4,3.8v10.3
		c0,1.4-0.7,2.1-1.7,2.1s-1.7-0.7-1.7-2.1v-9.5c0-1.1-0.6-1.6-1.3-1.6c-1.1,0-1.8,0.8-1.8,2.8v8.3c0,1.4-0.7,2.1-1.7,2.1
		s-1.7-0.7-1.7-2.1L9.4,9.1L9.4,9.1z"/>
	<path class="st0" d="M22,9.3c-0.1-0.3-0.1-0.5-0.1-0.8c0-1,0.9-1.6,1.7-1.6c1.1,0,1.7,0.5,2,1.8l1.8,10.2h0.1l1.7-10.2
		c0.2-1.1,0.6-1.8,1.8-1.8c1.2,0,1.7,0.7,1.7,1.5c0,0.4-0.1,0.7-0.2,1.2l-2.8,12c-0.3,1-0.7,1.5-2.5,1.5c-1.9,0-2.3-0.7-2.6-2.2
		L22,9.3z"/>
	<path class="st0" d="M34.2,13.4c0-4,0.6-6.5,5.3-6.5c3.6,0,4.8,2,4.8,6.1c0,1.4-0.2,2.5-2,2.5h-4.6V17c0,1.9,0.1,3.3,1.5,3.3
		c0.7,0,1.3-0.7,1.3-1.6c0.1-1.5,0.7-1.9,1.7-1.9s1.7,0.3,1.7,1.7c0,2.8-2,4.5-4.8,4.5c-4.8,0-5.3-2.6-5.3-6.5L34.2,13.4L34.2,13.4z
		 M40.9,13.1v-1.3c0-1.1-0.4-2.1-1.5-2.1s-1.5,0.9-1.5,2.1v1.3H40.9z"/>
	<path class="st0" d="M48.7,15.3c-2-1.5-2.4-2.5-2.4-4.1c0-2.8,2-4.2,4.8-4.2c3.7,0,4.7,2.6,4.7,3.8c0,1-0.4,1.7-1.8,1.7
		c-0.9,0-1.3-0.5-1.4-1.3c-0.1-1.1-0.6-1.5-1.5-1.5c-0.7,0-1.2,0.5-1.2,1.2c0,0.5,0.2,1.1,0.7,1.5l2.2,1.6c2.2,1.6,3.3,2.7,3.3,4.8
		c0,3-2.2,4.6-5,4.6c-3.8,0-4.8-2.5-4.8-4.2c0-1.3,0.8-1.7,1.7-1.7c1.3,0,1.7,0.7,1.8,2.2c0.1,0.7,0.4,1.3,1.5,1.3
		c0.9,0,1.3-0.5,1.3-1.4c0-0.7-0.3-1.2-1.2-2L48.7,15.3z"/>
	<path class="st0" d="M58.9,9.9h-0.4c-1,0-1.5-0.3-1.5-1.3c0-0.9,0.5-1.3,1.5-1.3h0.4V4.6c0-1.4,0.7-2.1,1.7-2.1
		c1.1,0,1.7,0.7,1.7,2.1v2.7h0.8c1,0,1.5,0.3,1.5,1.3c0,0.9-0.5,1.3-1.5,1.3h-0.8V19c0,0.7,0.1,1,0.9,1.1c0.8,0,1.3,0.3,1.3,1.2
		c0,1.1-0.7,1.6-2.2,1.6c-2.7,0-3.5-1.4-3.5-2.9L58.9,9.9L58.9,9.9z"/>
	<path class="st0" d="M67.9,1.7c1.1,0,2,0.9,2,2s-0.9,2-2,2s-2-0.9-2-2S66.7,1.7,67.9,1.7z M66.1,9.1c0-1.4,0.7-2.1,1.7-2.1
		c1.1,0,1.7,0.7,1.7,2.1v12c0,1.4-0.7,2.1-1.7,2.1c-1.1,0-1.7-0.7-1.7-2.1V9.1z"/>
	<path class="st0" d="M72.5,12.8c0-3,0.7-5.8,3.7-5.8c1.3,0,2.7,0.7,3.2,2.1h0.1c0-1.4,0.6-2.1,1.7-2.1c0.9,0,1.7,0.7,1.7,2.1v14.7
		c0,3.5-1.7,5-5.2,5c-2.6,0-4.6-0.9-4.6-2.9c0-0.9,0.7-1.5,1.7-1.5c0.8,0,1.3,0.5,1.5,1c0.3,0.7,0.7,0.9,1.2,0.9
		c1.5,0,1.8-0.9,1.8-3.1V21h-0.1c-0.8,1.4-1.6,1.7-3.1,1.7c-3.2,0-3.7-2.9-3.7-6.1L72.5,12.8L72.5,12.8z M76.1,15.7
		c0,3.4,0.3,4.4,1.5,4.4c0.8,0,1.7-0.6,1.7-3.8v-2.7c0-3.1-1-3.8-1.7-3.8c-0.9,0-1.5,0.9-1.5,3.4V15.7L76.1,15.7z"/>
	<path class="st1" d="M89.5,17.7l-0.7,3.7c-0.3,1.3-0.7,1.8-2,1.8c-1.1,0-1.8-0.7-1.8-1.7c0-0.3,0.1-1,0.2-1.5l3.6-15.4
		c0.5-2.1,1-2.7,3.2-2.7c2,0,2.7,0.6,3.2,2.7l3.6,15.3c0.1,0.6,0.3,1.3,0.3,1.5c0,1.3-0.9,1.7-1.9,1.7c-1.4,0-2-0.6-2.3-2.5l-0.6-3
		L89.5,17.7L89.5,17.7z M93.6,14.7l-1.7-8.5h-0.1l-1.7,8.5H93.6z"/>
	<path class="st1" d="M101,8.9c0-1.1,0.5-1.9,1.6-1.9s1.6,0.7,1.6,1.9v1.5h0.1c0.5-2,1.4-3.4,2.6-3.4c0.9,0,1.7,0.7,1.7,2.3
		c0,1.1-0.5,2.1-2.2,2.1c-1.1,0-2,0.7-2,2.2v7.6c0,1.4-0.7,2.1-1.7,2.1c-1.1,0-1.7-0.7-1.7-2.1L101,8.9L101,8.9z"/>
</g>
</svg>
